<svg width="29" height="30" viewBox="0 0 29 30" fill="none" xmlns="http://www.w3.org/2000/svg">
<g clip-path="url(#clip0_34_71)">
<path d="M29.0034 8.19735C29.0029 6.99614 28.9971 5.79494 28.9938 4.59372C28.9983 4.30273 29.0078 4.0117 29.0064 3.72072C28.9965 1.58909 27.4333 0.00727259 25.3282 0.00169879C23.9645 -0.0019142 22.6007 0.00131227 21.2369 0.00161603C15.7579 0.00282815 10.2789 0.00175818 4.79993 0.00672057C3.06832 0.00828902 1.61719 1.1599 1.24634 2.82154C1.06462 3.63581 1.16981 4.46569 1.15714 5.28844C1.15334 5.5353 1.09937 5.62472 0.840224 5.62113C0.310052 5.61381 -0.00624199 5.90912 0.00329285 6.35352C0.0126175 6.78741 0.318041 7.06375 0.832856 7.05789C1.08157 7.05506 1.15697 7.12557 1.15573 7.383C1.14559 9.48281 1.14651 11.5827 1.15334 13.6826C1.15409 13.9112 1.10281 13.9985 0.8579 13.9972C0.310977 13.9942 0.00586944 14.2657 0.00195609 14.7108C-0.00195631 15.1565 0.309945 15.4396 0.845928 15.4381C1.07397 15.4374 1.15477 15.4939 1.15367 15.7398C1.14426 17.8518 1.14507 19.9638 1.151 22.0758C1.15159 22.2879 1.1078 22.3719 0.876021 22.3729C0.303796 22.3755 -0.00578713 22.6497 8.19393e-05 23.1035C0.00582146 23.5484 0.311832 23.8204 0.857115 23.8167C1.10325 23.815 1.15624 23.9035 1.1514 24.1315C1.13882 24.7259 1.13903 25.3211 1.15062 25.9156C1.18947 27.9061 2.92179 29.5294 4.88344 29.4208C4.94311 29.4238 5.00277 29.4294 5.06245 29.4294C11.8436 29.4318 18.6247 29.4339 25.4059 29.4344C25.5728 29.4344 25.7422 29.4306 25.9061 29.4027C27.7855 29.0822 29.0072 27.616 29.0076 25.6714C29.0086 19.8467 29.0059 14.022 29.0034 8.19735ZM27.5716 9.58315C27.5692 14.9129 27.5686 20.2426 27.5667 25.5723C27.5661 27.0716 26.6782 27.9724 25.2005 27.9729C18.9426 27.9751 12.6846 27.9767 6.42669 27.979C6.27128 27.979 6.11587 27.9847 5.96046 27.9877C5.40198 27.9278 4.83639 28.0438 4.28041 27.9144C3.28066 27.6818 2.59749 26.8357 2.58515 25.801C2.57877 25.2669 2.60153 24.7319 2.5766 24.1989C2.56241 23.8958 2.65034 23.7917 2.95117 23.8178C3.26166 23.8447 3.50683 23.7048 3.65303 23.4123C3.77903 23.1603 3.75202 22.9186 3.60175 22.6887C3.44947 22.4558 3.22139 22.3379 2.95756 22.3729C2.61033 22.419 2.57597 22.2553 2.57749 21.9609C2.58796 19.9215 2.58892 17.882 2.57479 15.8426C2.57265 15.5327 2.6317 15.4018 2.9634 15.437C3.25795 15.4682 3.49595 15.3273 3.64162 15.0533C3.78095 14.7912 3.75476 14.5373 3.59122 14.2984C3.43455 14.0695 3.20524 13.9695 2.93916 13.9939C2.66698 14.0189 2.5724 13.9389 2.5743 13.6401C2.58751 11.5643 2.58474 9.4883 2.57491 7.41246C2.57369 7.1546 2.61996 7.04878 2.90451 7.05657C3.41259 7.07049 3.72236 6.7805 3.72751 6.34685C3.73278 5.90288 3.41892 5.6182 2.88376 5.61947C2.65637 5.62002 2.56161 5.56537 2.57613 5.31759C2.61858 4.59253 2.49242 3.85878 2.64872 3.14064C2.86469 2.14832 3.71573 1.45685 4.72013 1.45651C11.6117 1.45424 18.5034 1.45528 25.395 1.46079C26.6274 1.46177 27.5571 2.42502 27.5677 3.68427C27.5736 4.37591 27.5768 5.06759 27.5812 5.75924C27.5779 7.03388 27.5722 8.30851 27.5716 9.58315Z" fill="#797979"/>
<path d="M23.2067 20.0776C22.5521 18.3637 21.4385 17.0622 19.9281 16.0824C19.4878 15.7967 19.0075 15.5895 18.4973 15.3423C19.3667 14.7719 19.976 14.0283 20.3919 13.1194C20.9689 11.9632 21.0117 10.755 20.7014 9.52472C20.0217 6.82963 17.322 5.07467 14.615 5.64253C12.416 6.10382 10.9578 7.48102 10.4594 9.71474C9.97375 11.8914 10.6519 13.7343 12.3676 15.1513C12.6371 15.374 12.5538 15.4242 12.2994 15.5311C11.4748 15.8773 10.7386 16.371 10.0831 16.9838C8.57435 18.3942 7.69448 20.1315 7.43249 22.1999C7.32488 23.0495 7.92022 23.8519 8.76382 23.8868C9.3123 23.9095 9.86279 23.8822 10.4124 23.8773C10.5198 23.8811 10.6272 23.8882 10.7346 23.8883C14.5482 23.8899 18.3618 23.8914 22.1755 23.8916C23.2983 23.8916 23.9257 23.1447 23.7401 22.0228C23.6298 21.3561 23.4499 20.7142 23.2067 20.0776ZM11.7594 10.8543C11.7701 8.7198 13.5043 6.99114 15.6272 6.99875C17.7336 7.00629 19.4619 8.79031 19.4513 10.9461C19.4409 13.0823 17.7091 14.8124 15.5892 14.8046C13.4179 14.7966 11.7482 13.0743 11.7594 10.8543ZM22.0012 22.4395C18.6522 22.4324 15.3032 22.4362 11.9541 22.4379C11.7988 22.438 11.6434 22.444 11.4881 22.4473C10.747 22.4426 10.0053 22.4188 9.26502 22.4417C8.93024 22.4521 8.84482 22.3465 8.90625 22.0298C9.38155 19.5794 10.7247 17.83 12.9838 16.8199C14.3094 16.2273 15.6885 16.2027 17.09 16.4399C19.0477 16.9319 20.536 18.0576 21.5344 19.8391C21.9281 20.5418 22.1547 21.3035 22.3038 22.0953C22.3585 22.3859 22.2706 22.4401 22.0012 22.4395Z" fill="#797979"/>
</g>
<defs>
<clipPath id="clip0_34_71">
<rect width="29.0078" height="29.4344" fill="white"/>
</clipPath>
</defs>
</svg>
