<svg width="26" height="24" viewBox="0 0 26 24" fill="none" xmlns="http://www.w3.org/2000/svg">
<g clip-path="url(#clip0_34_67)">
<path d="M12.8155 23.8738C8.75371 23.874 4.69189 23.8744 0.630066 23.8722C0.50095 23.8721 0.361408 23.8719 0.245065 23.8255C0.0462064 23.7461 0.00310891 23.5669 0.00346779 23.3604C0.00736029 21.1226 0.00570323 18.8849 0.00573286 16.6471C0.00576047 14.5651 0.0113544 12.4831 1.76792e-05 10.4011C-0.00157406 10.1088 0.104264 9.93338 0.339505 9.77986C1.31162 9.14546 2.27306 8.49462 3.24434 7.85891C3.39748 7.75868 3.45846 7.65604 3.45783 7.46743C3.45022 5.18872 3.45279 2.90997 3.45299 0.631235C3.45303 0.129714 3.58066 -1.82317e-05 4.07266 1.92167e-09C9.8916 0.000216779 15.7105 0.000476777 21.5295 0.000846852C22.0588 0.000880618 22.1777 0.120479 22.1778 0.651997C22.1779 2.92254 22.1802 5.19308 22.1734 7.4636C22.1729 7.64991 22.2282 7.75683 22.3845 7.85879C23.3635 8.49757 24.3323 9.15214 25.3112 9.79117C25.5415 9.94149 25.6299 10.1216 25.6294 10.3997C25.6221 14.7031 25.6246 19.0064 25.6245 23.3098C25.6245 23.7507 25.501 23.8733 25.05 23.8733C20.9718 23.874 16.8937 23.8737 12.8155 23.8738ZM4.33138 0.881066C4.32625 0.957779 4.31827 1.02151 4.31826 1.08525C4.3177 4.60093 4.31886 8.11661 4.31433 11.6323C4.31413 11.7869 4.36887 11.8652 4.4999 11.9347C6.74369 13.1252 8.98588 14.3188 11.2258 15.5167C11.3691 15.5934 11.4719 15.5844 11.6025 15.4912C11.9018 15.2776 12.2144 15.0828 12.5191 14.8767C12.7182 14.7421 12.9113 14.7412 13.1106 14.8762C13.4083 15.078 13.714 15.2683 14.0064 15.4775C14.1498 15.5801 14.2607 15.592 14.4246 15.5042C16.6564 14.3085 18.8922 13.1201 21.13 11.9356C21.2752 11.8587 21.3165 11.7687 21.3163 11.6094C21.3116 8.1183 21.3128 4.6272 21.3122 1.13611C21.3121 1.05028 21.3048 0.964447 21.301 0.881064L4.33138 0.881066ZM23.7448 22.9934C23.635 22.9162 23.5704 22.8687 23.5038 22.8244C20.0063 20.4976 16.5078 18.1723 13.0141 15.84C12.8566 15.7348 12.7586 15.7441 12.6086 15.8443C9.50207 17.9177 6.39179 19.9855 3.28233 22.0545C2.82974 22.3557 2.37748 22.6573 1.87306 22.9934H23.7448ZM10.6042 16.1524C7.33095 14.4096 4.10583 12.6925 0.866451 10.9678V22.631C4.11905 20.467 7.34096 18.3235 10.6042 16.1524ZM15.026 16.1528C18.2883 18.3231 21.5148 20.4696 24.7678 22.6338V10.9655C21.5159 12.697 18.291 14.4142 15.026 16.1528ZM22.1919 9.80375H23.7682C23.2153 9.43626 22.718 9.10576 22.1919 8.75607V9.80375ZM3.44119 8.75319C2.90869 9.10785 2.4127 9.43818 1.86156 9.80525H3.44119V8.75319ZM22.185 11.3678C22.6125 11.1395 23.0068 10.9289 23.4614 10.6861H22.185V11.3678ZM3.44158 10.6822H2.24053C2.23704 10.695 2.23356 10.7078 2.23008 10.7206C2.62639 10.9311 3.02271 11.1417 3.44158 11.3643V10.6822Z" fill="white"/>
<path d="M13.8589 8.38925C13.3328 8.79021 12.7619 8.93641 12.1256 8.74533C11.2208 8.47361 10.6827 7.56682 10.8575 6.60996C11.0231 5.70294 11.8926 5.07059 12.8642 5.15054C13.7549 5.22384 14.4769 6.0218 14.4883 6.94686C14.4907 7.14353 14.4847 7.34037 14.4901 7.53692C14.5013 7.94461 14.7688 8.21943 15.1433 8.21425C15.5081 8.2092 15.7564 7.93879 15.764 7.53816C15.7911 6.11096 15.1454 5.03904 13.9514 4.52885C12.0558 3.71889 9.92925 5.12004 9.85896 7.18411C9.80271 8.83588 10.9285 10.0251 12.1829 10.2857C12.4051 10.3319 12.6356 10.3569 12.8625 10.3585C13.9575 10.366 15.0525 10.3605 16.1475 10.363C16.5123 10.3639 16.7271 10.6643 16.5825 10.9674C16.4947 11.1514 16.3395 11.2095 16.1399 11.2086C15.0368 11.2038 13.9336 11.2083 12.8305 11.2062C11.0389 11.2028 9.55172 10.0358 9.11398 8.29288C8.59623 6.23142 9.80453 4.11445 11.8055 3.57733C14.2718 2.91528 16.6036 4.73135 16.6335 7.33372C16.6385 7.77125 16.5733 8.18267 16.2861 8.53155C15.7023 9.24065 14.6411 9.26293 14.0224 8.57951C13.9686 8.52004 13.9177 8.45786 13.8589 8.38925ZM12.6471 7.95953C13.1961 7.96306 13.6366 7.53719 13.6456 6.99419C13.6543 6.46589 13.1963 5.99547 12.671 5.99322C12.1297 5.9909 11.6863 6.42886 11.6817 6.97039C11.6771 7.52463 12.0981 7.95601 12.6471 7.95953Z" fill="white"/>
</g>
<defs>
<clipPath id="clip0_34_67">
<rect width="25.6294" height="23.874" fill="white"/>
</clipPath>
</defs>
</svg>
