<svg width="31" height="31" viewBox="0 0 31 31" fill="none" xmlns="http://www.w3.org/2000/svg">
<g clip-path="url(#clip0_34_63)">
<path d="M30.4028 17.0966C29.6984 15.9181 28.7734 15.0112 27.6088 14.3469C27.6415 14.3227 27.6522 14.3078 27.6632 14.3076C28.1535 14.2973 28.1596 14.2966 28.0836 13.7447C27.7602 11.3953 26.8901 9.27824 25.4512 7.405C25.1236 6.9785 25.1226 6.98072 24.7012 7.31781C23.6975 8.12079 22.6134 8.7904 21.4429 9.31142C21.2467 9.39875 21.1744 9.4794 21.2024 9.72254C21.35 11.004 21.4642 12.2893 21.5987 13.5724C21.6224 13.7983 21.5558 13.9084 21.3393 13.9977C20.094 14.5112 19.0713 15.3261 18.2738 16.4227C18.1442 16.6009 18.0106 16.6582 17.7993 16.6574C15.7158 16.6498 13.6323 16.6527 11.5488 16.6529C11.2051 16.6529 11.1869 16.655 11.2149 17.008C11.3058 18.1568 11.4071 19.3049 11.514 20.4523C11.5425 20.7589 11.5752 20.7691 11.8607 20.7049C13.4917 20.3381 15.1381 20.2329 16.7622 20.3996C16.8735 21.2025 16.9828 21.9907 17.0938 22.7909C16.8929 22.7719 16.6559 22.7484 16.4188 22.7274C15.0201 22.6032 13.6367 22.6935 12.2679 23.0186C12.0776 23.0638 12.017 23.1283 12.0707 23.3336C12.4207 24.6711 12.8467 25.9793 13.5677 27.1639C13.7926 27.5334 14.0633 27.8866 14.3674 28.1915C14.9309 28.7566 15.5748 28.7675 16.1265 28.195C16.4912 27.8167 16.8158 27.378 17.071 26.9166C17.4253 26.2759 17.6976 25.5885 18.0079 24.915C18.0265 24.9463 18.0613 25.0033 18.0944 25.0614C18.5075 25.7843 18.9164 26.5098 19.3368 27.2283C19.4095 27.3526 19.4394 27.4451 19.3637 27.5796C19.3186 27.6596 19.3272 27.7706 19.3117 27.8677C19.4087 27.8624 19.5059 27.8591 19.6026 27.8505C19.633 27.8479 19.6621 27.831 19.696 27.8191C20.1691 28.4638 20.6404 29.1058 21.1122 29.7486C16.315 31.9132 9.04183 31.4891 3.95598 25.891C-0.905267 20.5401 -1.33773 12.2869 2.94401 6.33341C7.23564 0.36614 15.1432 -1.69686 21.7648 1.49286C28.5815 4.77654 31.0587 11.7464 30.4028 17.0966ZM5.63119 16.6529C4.63749 16.6529 3.64378 16.6542 2.65008 16.6516C2.47538 16.6511 2.35229 16.672 2.37914 16.905C2.67471 19.4696 3.61326 21.7595 5.21145 23.7713C5.32389 23.9128 5.41076 23.9792 5.57937 23.8374C6.66408 22.9252 7.85527 22.1862 9.14733 21.6159C9.2846 21.5553 9.32353 21.4834 9.30711 21.3189C9.16198 19.8657 9.02671 18.4114 8.90367 16.9561C8.88434 16.7275 8.81916 16.646 8.58821 16.6484C7.60263 16.6588 6.61688 16.6528 5.63119 16.6529ZM5.62237 14.3059C6.61605 14.3059 7.60979 14.3 8.60336 14.3104C8.82452 14.3127 8.8848 14.2367 8.90319 14.0187C9.02526 12.5714 9.15626 11.1249 9.30378 9.68013C9.32412 9.48096 9.27025 9.40315 9.10982 9.33267C7.86894 8.78751 6.72835 8.0739 5.67528 7.21468C5.48116 7.05629 5.30411 7.07971 5.14413 7.28495C3.60007 9.26099 2.67739 11.4984 2.39201 14.0052C2.36052 14.2817 2.37113 14.3051 2.64135 14.3054C3.63502 14.3065 4.6287 14.3059 5.62237 14.3059ZM15.2463 14.3058C16.5042 14.3058 17.7621 14.3022 19.0199 14.3094C19.2232 14.3106 19.3152 14.2597 19.295 14.0358C19.1887 12.856 19.0886 11.6755 18.9897 10.495C18.9705 10.2656 18.8802 10.1967 18.6466 10.2513C16.3874 10.7787 14.126 10.7777 11.8648 10.2574C11.5841 10.1928 11.542 10.212 11.5146 10.5095C11.4073 11.673 11.314 12.8378 11.2085 14.0015C11.1875 14.233 11.2583 14.3129 11.4969 14.3108C12.7466 14.3001 13.9965 14.3058 15.2463 14.3058ZM15.2441 8.30047C16.256 8.29953 17.2542 8.17598 18.2406 7.9503C18.3776 7.91894 18.4953 7.88857 18.4414 7.67824C18.094 6.32399 17.6653 5.00029 16.9338 3.80475C16.6882 3.40323 16.3837 3.02203 16.0424 2.70127C15.527 2.21679 14.9672 2.2164 14.4537 2.7078C14.0981 3.04803 13.7833 3.45212 13.5275 3.87566C12.8245 5.03976 12.4125 6.32725 12.0687 7.63985C12.0122 7.85581 12.0966 7.91483 12.2707 7.954C13.2501 8.17428 14.24 8.29777 15.2441 8.30047ZM11.2254 3.21139C11.1963 2.98728 11.0558 3.06276 10.9412 3.10395C9.61292 3.58119 8.39319 4.26019 7.28307 5.1406C7.06919 5.31022 7.05949 5.36422 7.28958 5.51602C8.0182 5.99673 8.75205 6.46983 9.49465 6.92789C9.79146 7.11097 9.82252 7.08171 9.91176 6.74858C10.2243 5.58203 10.6115 4.44381 11.1573 3.36562C11.1827 3.31546 11.2029 3.2626 11.2254 3.21139ZM19.4157 3.05641C19.2259 3.09752 19.2696 3.21292 19.3291 3.32998C19.8947 4.44394 20.2941 5.62104 20.6114 6.82817C20.6664 7.03737 20.7602 7.08283 20.9339 6.9726C21.6912 6.49218 22.4519 6.01704 23.2016 5.52483C23.4502 5.36165 23.4376 5.31092 23.1939 5.11942C22.0994 4.25962 20.9034 3.58718 19.5973 3.11841C19.5373 3.09685 19.4765 3.07713 19.4157 3.05641ZM11.2561 27.8378C11.2107 27.7299 11.1946 27.6845 11.1732 27.6419C10.617 26.5332 10.214 25.3669 9.8981 24.1674C9.8298 23.908 9.77382 23.8718 9.55052 24.0104C8.78892 24.4833 8.03279 24.9656 7.28235 25.4566C7.06077 25.6015 7.07334 25.6625 7.2885 25.8327C8.07283 26.4531 8.91386 26.9809 9.81899 27.3987C10.2033 27.5761 10.5993 27.7284 10.9952 27.8779C11.0614 27.9029 11.1543 27.8554 11.2561 27.8378Z" fill="#797979"/>
<path d="M17.9121 20.9223C18.0031 17.6179 20.1433 15.1271 23.1717 14.6057C26.3016 14.0669 29.4893 16.2935 30.1655 19.4561C30.4555 20.8122 30.2317 22.0853 29.7056 23.3256C28.6218 25.8803 27.1103 28.1503 25.2162 30.1572C24.9694 30.4187 24.6707 30.6319 24.3849 30.8525C24.2017 30.9939 23.9892 30.9964 23.8044 30.8542C23.531 30.644 23.2493 30.4375 23.0087 30.1916C21.6229 28.7754 20.5075 27.1523 19.5316 25.428C18.9092 24.3283 18.359 23.1925 18.0739 21.9478C17.9821 21.547 17.9444 21.1335 17.9121 20.9223ZM24.1342 16.2463C21.6784 16.2416 19.6905 18.2406 19.6862 20.7194C19.6819 23.1784 21.6707 25.2032 24.1 25.2132C26.5267 25.2233 28.5228 23.2071 28.5273 20.7416C28.5318 18.2582 26.5703 16.2511 24.1342 16.2463Z" fill="#797979"/>
</g>
<defs>
<clipPath id="clip0_34_63">
<rect width="30.5044" height="30.9597" fill="white"/>
</clipPath>
</defs>
</svg>
