<svg width="38" height="55" viewBox="0 0 38 55" fill="none" xmlns="http://www.w3.org/2000/svg">
<g clip-path="url(#clip0_23_7820)">
<path d="M19.1338 55.0001L2.00921 28.051C-2.88518 17.9961 1.47696 5.81146 11.6784 1.52875C27.3702 -5.05779 42.8132 10.8262 36.5862 26.6143C31.2656 36.3679 24.7128 45.3913 19.1338 55.0001ZM19.1357 51.0853C19.1454 50.8504 19.2418 50.6312 19.3614 50.4335C23.8971 42.9525 29.9408 35.0408 33.8941 27.4051C41.7622 12.2062 25.2894 -3.98711 10.6486 4.39824C2.26376 9.20162 -0.18729 19.6755 4.44869 28.1196C8.64113 35.7552 14.3995 43.0249 18.669 50.6802L19.1357 51.0853Z" fill="#EE6226"/>
<path d="M29.008 19.5031C29.008 25.1247 24.5186 29.6814 18.9801 29.6814C13.4416 29.6814 8.95215 25.1247 8.95215 19.5031C8.95215 13.8816 13.4416 9.32483 18.9801 9.32483C24.5186 9.32483 29.008 13.8816 29.008 19.5031ZM26.906 19.5051C26.906 15.0599 23.3557 11.4544 18.9743 11.4544C14.5928 11.4544 11.0426 15.058 11.0426 19.5051C11.0426 23.9522 14.5928 27.5557 18.9743 27.5557C23.3557 27.5557 26.906 23.9522 26.906 19.5051Z" fill="#EE6226"/>
</g>
<defs>
<clipPath id="clip0_23_7820">
<rect width="38" height="55" fill="white"/>
</clipPath>
</defs>
</svg>
