<svg width="71" height="53" viewBox="0 0 71 53" fill="none" xmlns="http://www.w3.org/2000/svg">
<g clip-path="url(#clip0_23_7834)">
<path d="M66.139 10.0472C67.0996 10.2753 69.6029 9.48445 69.8546 10.9511L69.8277 25.4367C69.3378 26.4706 68.3715 26.1082 67.4185 26.4344C63.5147 27.7753 63.2246 34.0086 66.9824 35.8398C67.8912 36.2832 69.6029 36.0424 69.8258 37.153L69.8623 50.8477C69.8604 51.7174 69.4915 52.4018 68.6404 52.3655L2.15927 52.2376C1.65208 51.9711 1.58868 51.4126 1.54257 50.8477C1.18331 46.5756 1.79425 41.6532 1.58291 37.315C1.84804 35.9784 3.13332 36.3365 4.13042 35.9933C8.20144 34.597 8.17839 27.7731 3.99402 26.4258C3.15638 26.1572 2.18041 26.364 1.72316 25.4367L1.76735 10.7124L2.21499 10.2519L63.8989 0.00649097C64.4657 -0.0553311 64.7711 0.411532 64.9075 0.961535L66.1409 10.0472H66.139ZM16.9352 10.0686H64.1045L63.0978 2.40902L49.4477 4.65807C49.3766 5.78792 50.5792 8.77457 48.8963 8.92379C47.39 9.05809 47.6763 6.06932 47.4227 4.96291L47.2075 4.95865L16.9352 10.0707V10.0686ZM53.0326 12.3027V15.7327C53.0326 15.7775 52.5293 16.3296 52.4543 16.368C51.9856 16.6089 51.0192 16.2891 51.0192 15.7327V12.5414L50.804 12.3027H3.70584V24.1107C11.0813 25.4665 11.0813 36.9846 3.70584 38.4726V50.1207H50.8751V46.8484C50.8751 45.8124 53.0326 45.6226 53.0326 47.0083V50.1207H67.845V38.5515C67.4781 38.1869 66.9229 38.2381 66.4522 38.0228C62.2486 36.0978 61.0306 30.1543 64.0334 26.3427C65.1035 24.9847 66.5041 24.4475 67.9891 23.8719V12.3027H53.0326Z" fill="#EE6226"/>
<path d="M13.663 26.543L39.295 26.4983C40.9692 26.3768 41.2662 28.694 39.5899 28.9008H13.7747C12.3775 28.7537 12.218 26.818 13.665 26.5409L13.663 26.543Z" fill="#EE6226"/>
<path d="M13.5095 40.7408L39.5899 40.7024C41.1864 40.9006 41.0229 43.0836 39.4364 43.0985L14.0676 43.1049C12.5647 43.1731 12.0605 41.359 13.5075 40.7386L13.5095 40.7408Z" fill="#EE6226"/>
<path d="M13.3598 33.7186L40.1059 33.7698C41.0866 34.4434 40.8454 35.6671 39.7452 35.9293H13.619C12.4589 35.6522 12.2816 34.3283 13.3598 33.7208V33.7186Z" fill="#EE6226"/>
<path d="M13.5098 19.5166L26.7583 19.4803C28.1196 19.5656 28.0179 21.5482 26.7642 21.7251H13.6194C12.3896 21.4523 12.3219 19.96 13.5098 19.5166Z" fill="#EE6226"/>
<path d="M52.0035 19.9919C52.9343 19.6956 53.4426 20.414 53.5382 21.3179C53.6917 22.7611 53.7077 26.916 53.5243 28.3251C53.309 29.9751 51.4793 29.9794 51.296 28.3443C51.1465 26.997 51.1186 22.2943 51.3079 21.0088C51.3597 20.6571 51.6786 20.0964 52.0035 19.9941V19.9919Z" fill="#EE6226"/>
<path d="M53.1974 42.2565C52.5496 42.9472 51.4554 42.5741 51.3079 41.5743C51.1245 40.3208 51.1405 35.3793 51.3079 34.0938C51.5152 32.5014 53.305 32.5866 53.5223 34.258C53.7056 35.665 53.6897 39.8262 53.5402 41.2673C53.5123 41.5317 53.3608 42.0795 53.1954 42.2565H53.1974Z" fill="#EE6226"/>
</g>
<rect x="0.5" y="0.5" width="70" height="51.3654" stroke="#FAFAFA"/>
<defs>
<clipPath id="clip0_23_7834">
<rect width="71" height="52.3654" fill="white"/>
</clipPath>
</defs>
</svg>
