<svg width="30" height="25" viewBox="0 0 30 25" fill="none" xmlns="http://www.w3.org/2000/svg">
<g clip-path="url(#clip0_23_7583)">
<path d="M0.511942 25C0.511942 24.6573 0.511942 24.3454 0.511942 24.0038C1.08233 24.0038 1.63648 24.0038 2.2112 24.0038C2.2112 20.9537 2.2112 17.9323 2.2112 14.8865C2.13111 14.9215 2.05426 14.9554 1.96226 14.9958C1.31503 14.251 0.668879 13.5073 0 12.7382C5.06422 8.4861 10.109 4.25207 15.1743 0C17.4331 1.92022 19.68 3.82983 21.967 5.77339C21.967 4.89497 21.967 4.06217 21.967 3.19011C21.6769 3.19011 21.3728 3.19011 21.0448 3.19011C21.0448 2.14619 21.0448 1.14152 21.0448 0.113516C23.1402 0.113516 25.2399 0.113516 27.3754 0.113516C27.3754 0.830681 27.3786 1.53405 27.3743 2.23743C27.3721 2.5313 27.4609 2.90367 27.3126 3.09251C27.1968 3.23997 26.779 3.15935 26.4954 3.18163C26.4749 3.18269 26.4565 3.19648 26.3937 3.22194C26.3937 3.30681 26.3937 3.40866 26.3937 3.5105C26.3937 5.41799 26.398 7.32548 26.3883 9.23403C26.3872 9.45894 26.4651 9.60322 26.634 9.74432C27.7509 10.6853 28.8614 11.6338 30 12.6024C29.6937 12.9503 29.395 13.2909 29.0941 13.6304C28.7845 13.9805 28.4782 14.3348 28.1579 14.6754C28.0886 14.7486 27.9631 14.7698 27.804 14.8419C27.804 17.8252 27.804 20.8943 27.804 23.9964C28.3679 23.9964 28.922 23.9964 29.4967 23.9964C29.4967 24.3391 29.4967 24.6499 29.4967 24.9989C19.8413 25 10.189 25 0.511942 25ZM26.7379 23.9826C26.7379 23.832 26.7379 23.6972 26.7379 23.5625C26.7379 20.4636 26.7324 17.3647 26.7465 14.2659C26.7476 13.9158 26.6372 13.6887 26.3699 13.4628C23.795 11.289 21.231 9.10248 18.6648 6.92022C17.5045 5.93359 16.3432 4.94802 15.1743 3.95502C15.0877 4.02079 15.0097 4.07596 14.9361 4.13749C11.1155 7.34776 7.29598 10.5591 3.47103 13.7651C3.30327 13.9052 3.25998 14.0526 3.25998 14.2553C3.26431 17.386 3.26322 20.5156 3.26322 23.6463C3.26322 23.7577 3.26322 23.868 3.26322 23.972C5.71253 23.972 8.11422 23.972 10.5419 23.972C10.5419 23.8224 10.5419 23.6972 10.5419 23.572C10.5419 21.8746 10.5321 20.1782 10.5441 18.4808C10.5646 15.7331 13.0832 13.7195 15.8215 14.2499C17.8833 14.6499 19.3737 16.4078 19.3856 18.4755C19.3953 20.1825 19.3878 21.8905 19.3878 23.5975C19.3878 23.7206 19.3878 23.8436 19.3878 23.9794C21.8511 23.9826 24.2756 23.9826 26.7379 23.9826ZM11.5961 23.9826C13.8549 23.9826 16.0769 23.9826 18.3087 23.9826C18.3184 23.9285 18.3325 23.8892 18.3325 23.85C18.3314 21.9955 18.3801 20.139 18.3152 18.2867C18.2416 16.2041 16.2144 14.7348 14.1569 15.2737C11.8721 15.8721 11.3536 17.7286 11.6372 19.739C12.1004 19.739 12.5691 19.739 13.0529 19.739C13.0529 20.0912 13.0529 20.4106 13.0529 20.7691C12.555 20.7691 12.0788 20.7691 11.5961 20.7691C11.5961 21.8576 11.5961 22.909 11.5961 23.9826ZM15.1699 2.61617C19.4148 6.22215 23.6478 9.81647 27.897 13.4256C28.1124 13.1859 28.3159 12.9578 28.5399 12.7085C24.0753 8.91258 19.627 5.13155 15.1699 1.34309C10.5993 5.18778 6.04914 9.01549 1.47521 12.8644C1.69385 13.1169 1.89191 13.345 2.10513 13.5901C6.47233 9.92043 10.8146 6.27414 15.1699 2.61617ZM25.3319 3.20496C24.5591 3.20496 23.8123 3.20496 23.0374 3.20496C23.0374 4.34118 23.0363 5.45618 23.0417 6.57013C23.0417 6.63378 23.0861 6.71547 23.137 6.75896C23.8524 7.37534 24.571 7.98642 25.3319 8.63463C25.3319 6.79185 25.3319 5.00849 25.3319 3.20496ZM26.2974 2.11543C26.2974 1.78761 26.2974 1.46085 26.2974 1.11924C24.886 1.11924 23.4779 1.11924 22.0698 1.11924C22.0698 1.46191 22.0698 1.7823 22.0698 2.11543C23.4822 2.11543 24.8752 2.11543 26.2974 2.11543Z" fill="#EE6226"/>
<path d="M14.9165 6.54041C16.5573 6.53829 17.8875 7.83576 17.8983 9.44726C17.9091 11.0789 16.593 12.3605 14.9078 12.3605C13.2692 12.3605 11.9304 11.0482 11.9336 9.44726C11.9358 7.84425 13.2735 6.54253 14.9165 6.54041ZM16.8463 9.42817C16.8452 8.36833 16.0118 7.55144 14.9317 7.54826C13.8526 7.54614 12.9802 8.39379 12.9802 9.44302C12.9813 10.4954 13.8569 11.3537 14.9241 11.3484C15.9956 11.3441 16.8474 10.4933 16.8463 9.42817Z" fill="#EE6226"/>
</g>
<defs>
<clipPath id="clip0_23_7583">
<rect width="30" height="25" fill="white"/>
</clipPath>
</defs>
</svg>
