<svg width="33" height="19" viewBox="0 0 33 19" fill="none" xmlns="http://www.w3.org/2000/svg">
<g clip-path="url(#clip0_23_7579)">
<path d="M13.2571 0.00551151C16.7375 0.00551151 20.2161 0.00918584 23.6966 0C23.9873 0 24.1491 0.0808354 24.2926 0.343551C25.3338 2.27809 26.3989 4.19977 27.4401 6.13431C27.5781 6.39151 27.7381 6.50174 28.0269 6.4999C28.5991 6.49623 29.1693 6.5293 29.7414 6.53114C30.2823 6.53481 30.6906 6.74425 30.9978 7.2017C31.5516 8.02843 32.1494 8.8276 32.6866 9.66535C32.8595 9.93541 32.9772 10.29 32.9827 10.6096C33.014 12.1033 32.9975 13.5987 32.9956 15.0923C32.9938 15.965 32.5173 16.4316 31.6362 16.4335C30.9795 16.4335 30.3209 16.4482 29.666 16.4261C29.414 16.4188 29.3128 16.5143 29.2116 16.7293C28.5218 18.1972 27.361 19 25.7312 18.9945C24.1013 18.989 22.9479 18.1751 22.2691 16.7035C22.1716 16.4923 22.0594 16.4261 21.835 16.428C18.2828 16.4353 14.7306 16.4353 11.1765 16.428C10.9539 16.428 10.8399 16.4868 10.7405 16.7035C10.0617 18.1769 8.90464 18.9816 7.27479 18.9816C5.64125 18.9816 4.4952 18.1604 3.81272 16.6925C3.72074 16.4959 3.62325 16.4243 3.40986 16.428C2.69243 16.4408 1.97499 16.4353 1.25572 16.4316C0.519896 16.4261 0.0103362 15.9374 0.0084966 15.2007C0.00113833 11.0855 -0.00621994 6.96654 0.0084966 2.84761C0.0140153 1.2456 1.30171 0.0238832 2.96284 0.00918584C4.6534 -0.00551151 6.34581 0.00551151 8.03637 0.00551151C9.7766 0.00551151 11.5168 0.00551151 13.2571 0.00551151ZM3.38594 15.2705C3.72626 12.9759 4.97717 11.5833 6.79466 11.4107C7.70525 11.3243 8.56433 11.4768 9.34246 11.9802C10.5198 12.7426 11.0827 13.8614 11.1655 15.2154C11.2354 15.2356 11.2575 15.2485 11.2814 15.2485C14.725 15.2522 18.1687 15.2503 21.6124 15.2595C21.8846 15.2595 21.8902 15.1107 21.9049 14.9141C22.0428 13.031 23.612 11.4897 25.4755 11.3996C27.499 11.3004 29.2153 12.6305 29.5501 14.5596C29.5887 14.7819 29.6071 15.0078 29.6347 15.2283C30.0247 15.2283 30.3798 15.2632 30.7256 15.2209C31.3676 15.1419 31.7705 14.6753 31.7778 14.0286C31.7889 12.9594 31.7907 11.8902 31.7723 10.8209C31.7686 10.6023 31.695 10.3561 31.5773 10.1742C31.1542 9.52205 30.7017 8.89006 30.2528 8.25624C30.021 7.92922 29.7028 7.75285 29.2962 7.74183C28.8216 7.72897 28.3489 7.69039 27.8743 7.69039C19.0885 7.68488 10.3046 7.68488 1.51878 7.68304C1.4268 7.68304 1.33299 7.69957 1.22997 7.7106C1.22997 9.87478 1.22077 12.0132 1.23549 14.1499C1.23917 14.6735 1.65123 15.1254 2.18103 15.2044C2.56733 15.2632 2.96836 15.2503 3.38594 15.2705ZM9.54481 1.24193C9.48043 1.21804 9.45835 1.20335 9.43628 1.20335C7.23616 1.20151 5.03787 1.18314 2.83775 1.20518C1.93636 1.21437 1.23549 1.95842 1.22445 2.8568C1.20789 3.98482 1.21893 5.11468 1.22077 6.2427C1.22077 6.31067 1.24469 6.37865 1.25572 6.43928C4.02795 6.43928 6.77994 6.43928 9.54665 6.43928C9.54482 4.69213 9.54481 2.97254 9.54481 1.24193ZM17.9903 1.196C17.9903 2.95049 17.9903 4.68662 17.9903 6.4356C20.7275 6.4356 23.4575 6.4356 26.237 6.4356C25.2952 4.7105 24.3791 3.03133 23.4538 1.35583C23.4115 1.28051 23.2882 1.20335 23.2018 1.20335C21.4762 1.19416 19.7507 1.196 17.9903 1.196ZM10.781 6.4356C12.7861 6.4356 14.7581 6.4356 16.7173 6.4356C16.7173 4.67559 16.7173 2.94682 16.7173 1.22172C14.7214 1.22172 12.7604 1.22172 10.781 1.22172C10.781 2.96886 10.781 4.68845 10.781 6.4356ZM28.3268 15.2503C28.3323 13.8376 27.1771 12.6691 25.7643 12.6563C24.3423 12.6434 23.1503 13.8265 23.1558 15.2448C23.1613 16.6521 24.3331 17.8205 25.7404 17.8224C27.1495 17.8224 28.3213 16.6594 28.3268 15.2503ZM7.28399 12.6783C5.8528 12.6783 4.71411 13.8155 4.71595 15.243C4.71779 16.6594 5.88591 17.8224 7.29318 17.8095C8.69126 17.7967 9.84466 16.6447 9.85386 15.254C9.86306 13.8467 8.69861 12.6783 7.28399 12.6783Z" fill="#EE6226"/>
</g>
<defs>
<clipPath id="clip0_23_7579">
<rect width="33" height="19" fill="white"/>
</clipPath>
</defs>
</svg>
