<svg width="32" height="17" viewBox="0 0 32 17" fill="none" xmlns="http://www.w3.org/2000/svg">
<g clip-path="url(#clip0_23_7575)">
<path d="M28.3298 0C29.0227 0.160592 29.7241 0.291985 30.4053 0.488263C31.4632 0.794847 31.9687 1.39666 31.9988 2.2937C32.0289 3.21994 31.5954 3.83635 30.5777 4.23053C28.1406 5.17624 25.6885 6.08788 23.2648 7.06116C22.8464 7.22824 22.4162 7.56727 22.1869 7.93874C20.488 10.6948 18.8259 13.4702 17.1855 16.2603C16.8725 16.794 16.5177 17.0389 15.8716 16.9951C15.1267 16.9448 14.3752 16.9789 13.6253 16.9838C12.9391 16.9886 12.7365 16.7388 13.0043 16.0867C13.7341 14.2991 14.4237 12.4986 15.1251 10.6996C15.1702 10.5828 15.1753 10.4514 15.2305 10.1724C13.5734 10.7807 12.0268 11.3177 10.5087 11.9195C9.31189 12.3931 8.18207 12.2715 7.06563 11.741C6.7225 11.5772 6.39778 11.3582 6.09817 11.1262C4.2168 9.66794 2.34213 8.20153 0.4708 6.73187C-0.210443 6.19656 -0.148511 6.00191 0.631487 5.62719C2.89281 4.53874 4.99345 4.65229 6.96186 6.26307C7.46735 6.67672 8.08331 6.96221 8.58713 7.37586C9.11104 7.80572 9.5546 7.78139 10.1455 7.4813C11.6837 6.6978 13.2587 5.98406 14.9543 5.17948C13.6186 4.34246 12.375 3.56221 11.1297 2.78521C9.58807 1.82328 9.61653 1.86546 11.1531 0.879198C11.9716 0.352004 12.6813 0.272519 13.6019 0.640744C15.4381 1.37557 17.3194 2.01145 19.2041 2.63111C19.564 2.74952 20.0628 2.70735 20.4227 2.56298C22.2589 1.83139 24.0632 1.03006 25.8927 0.283874C26.2877 0.123282 26.7397 0.0908397 27.1648 0C27.5531 0 27.9415 0 28.3298 0ZM23.3887 6.13817C25.6584 5.2687 27.8394 4.42357 30.0287 3.5979C30.6547 3.36107 31.2121 3.10477 31.1803 2.32777C31.1468 1.49399 30.489 1.29771 29.8362 1.13712C27.8544 0.648855 25.9463 0.838645 24.1034 1.71947C19.5138 3.91097 14.9058 6.06679 10.3296 8.28263C9.56966 8.65086 9.00893 8.68979 8.31932 8.16097C7.41044 7.46345 6.42958 6.84866 5.44705 6.24685C4.11972 5.43416 2.44088 5.50553 1.34118 6.40258C3.24933 7.88521 5.11564 9.40191 7.06229 10.818C8.00966 11.5074 9.1194 11.6259 10.2894 11.1506C11.7925 10.539 13.3274 9.99885 14.8623 9.46355C15.4715 9.25105 15.9084 8.96555 16.0808 8.30859C16.1494 8.04905 16.4423 7.75544 16.7068 7.65C18.6752 6.86326 20.657 6.11059 22.6438 5.3709C23.3083 5.12109 23.4958 5.30601 23.3887 6.13817ZM13.8663 16.176C14.4656 16.176 14.8857 16.1289 15.2908 16.1857C16.039 16.2911 16.4256 15.9764 16.7788 15.3568C17.8601 13.4621 19.015 11.6064 20.1381 9.73282C20.7558 8.70277 21.3684 7.66784 22.0998 6.44151C21.1039 6.81298 20.339 7.20391 19.5222 7.38397C17.4885 7.83492 16.3888 9.01097 15.8532 10.9559C15.3761 12.6932 14.5777 14.3478 13.8663 16.176ZM11.1933 1.88492C12.6244 2.77548 14.0103 3.64494 15.4096 4.49656C15.5803 4.60038 15.8565 4.71393 16.0055 4.65067C16.8909 4.27433 17.7529 3.84771 18.789 3.36107C16.8842 2.67977 15.187 2.12824 13.5416 1.46155C12.6378 1.09656 11.9197 1.16145 11.1933 1.88492Z" fill="#EE6226"/>
</g>
<defs>
<clipPath id="clip0_23_7575">
<rect width="32" height="17" fill="white"/>
</clipPath>
</defs>
</svg>
