<svg width="23" height="23" viewBox="0 0 23 23" fill="none" xmlns="http://www.w3.org/2000/svg">
<g clip-path="url(#clip0_23_7567)">
<path d="M5.73026 0.468556C5.94023 0.433684 6.12161 0.534812 6.30856 0.608043C8.28621 1.38777 10.2639 2.16751 12.2415 2.94863C13.246 3.34547 14.2512 3.74022 15.253 4.14404C15.3806 4.19565 15.4525 4.19286 15.555 4.08964C16.503 3.13206 17.4608 2.18355 18.4088 1.22597C18.6083 1.02441 18.8316 0.891899 19.1064 0.817971C20.0537 0.56271 20.9983 0.296987 21.9421 0.0291722C22.549 -0.143094 23.1377 0.440659 22.9717 1.04045C22.6906 2.05871 22.4171 3.07975 22.106 4.08964C22.0572 4.24795 21.956 4.3714 21.8409 4.48648C20.8622 5.46428 19.8856 6.44418 18.9034 7.41849C18.8078 7.51334 18.7897 7.58867 18.8385 7.71072C19.6938 9.8616 20.5455 12.0132 21.398 14.1648C21.783 15.1363 22.18 16.1029 22.542 17.0821C22.632 17.3242 22.5127 17.5934 22.3334 17.7782C21.7377 18.3933 21.1343 19.0015 20.5169 19.595C20.1493 19.9486 19.5961 19.92 19.2801 19.4416C18.2875 17.9372 17.2836 16.4398 16.2819 14.9417C15.6534 14.0016 15.0186 13.0649 14.3921 12.1227C14.3294 12.0285 14.298 12.025 14.2233 12.0997C12.9795 13.346 11.7358 14.5923 10.4864 15.833C10.3852 15.9335 10.4306 16.0172 10.4627 16.1057C10.9105 17.3562 11.3639 18.6039 11.8097 19.8551C11.8864 20.07 11.9855 20.282 11.9715 20.5226C11.9597 20.72 11.9081 20.8901 11.7616 21.0345C11.1861 21.6029 10.6175 22.1776 10.0441 22.7474C9.74625 23.0438 9.33607 23.0808 8.99355 22.8416C8.88543 22.7662 8.82823 22.6421 8.76544 22.5312C7.92067 21.0352 7.08078 19.5364 6.2402 18.0383C6.10277 17.7935 5.96814 17.548 5.83071 17.3032C5.78467 17.2216 5.70724 17.1805 5.62702 17.1352C4.87851 16.7146 4.13489 16.2871 3.38778 15.8644C2.8625 15.5673 2.33373 15.2758 1.80636 14.9822C1.29573 14.6976 0.774634 14.4312 0.282839 14.1146C0.12658 14.0141 0.0379871 13.8537 0.0107814 13.6668C-0.0352591 13.3495 0.0672856 13.0907 0.29679 12.8662C0.818582 12.3549 1.33549 11.8381 1.84752 11.3165C2.1412 11.0173 2.47883 10.9524 2.8632 11.0877C3.66332 11.3695 4.46206 11.6561 5.26149 11.9407C5.82444 12.1415 6.38808 12.3396 6.94824 12.546C7.04311 12.5809 7.09683 12.5656 7.16589 12.4965C8.40479 11.2537 9.6451 10.0123 10.8889 8.7743C10.9775 8.68573 10.9705 8.65016 10.8687 8.58251C8.58338 7.06001 6.30019 5.53402 4.0163 4.01013C3.79028 3.85948 3.54404 3.74162 3.35011 3.53936C3.12898 3.30921 3.09898 2.77567 3.37104 2.50855C4.0156 1.87528 4.64692 1.22806 5.2859 0.588515C5.40589 0.469253 5.56494 0.454607 5.73026 0.468556ZM20.03 18.4631C20.4255 18.0676 20.8043 17.6764 21.1999 17.3025C21.324 17.1854 21.3261 17.0933 21.2682 16.9475C20.0691 13.9263 18.8769 10.9029 17.6764 7.88229C17.5089 7.46104 17.5843 7.12278 17.9024 6.80754C18.9195 5.80044 19.9282 4.78428 20.9424 3.7744C21.0178 3.69977 21.0652 3.61887 21.0938 3.51774C21.2319 3.01628 21.375 2.51692 21.5152 2.01616C21.5814 1.77834 21.6463 1.54051 21.7175 1.28107C20.9285 1.50425 20.1702 1.71975 19.4106 1.93038C19.3275 1.95339 19.2794 2.00919 19.225 2.06359C18.2205 3.0665 17.2118 4.06523 16.2156 5.0772C15.8787 5.41964 15.5243 5.49148 15.0786 5.31224C13.5878 4.71035 12.0908 4.12451 10.5959 3.53378C9.05634 2.92492 7.51677 2.31676 5.97721 1.70929C5.91442 1.68488 5.85931 1.64025 5.78677 1.71487C5.37589 2.13333 4.95943 2.54621 4.5353 2.96956C4.59181 3.01001 4.63924 3.04627 4.68807 3.07836C7.11636 4.69989 9.54395 6.32143 11.9722 7.94227C12.4815 8.28261 12.531 8.75478 12.1006 9.18579C10.6691 10.6176 9.23562 12.0467 7.80697 13.4813C7.50631 13.7833 7.17635 13.8544 6.77664 13.7094C5.43379 13.2225 4.08815 12.7441 2.74252 12.265C2.68322 12.244 2.62323 12.1862 2.54859 12.2622C2.16771 12.6486 1.78125 13.0294 1.3913 13.4185C1.45129 13.4541 1.49175 13.4792 1.5336 13.5022C3.09758 14.381 4.66017 15.2618 6.22624 16.1357C6.50249 16.2899 6.70827 16.4963 6.86244 16.7725C7.73163 18.3278 8.60709 19.8796 9.48116 21.432C9.51186 21.4857 9.54464 21.5388 9.58162 21.6015C9.94924 21.234 10.3001 20.8741 10.6622 20.5254C10.7584 20.4326 10.7759 20.3608 10.7305 20.2352C10.2443 18.8927 9.76787 17.5466 9.28235 16.2034C9.14284 15.8177 9.21399 15.4941 9.50488 15.2047C10.9475 13.7672 12.3859 12.3256 13.8271 10.8868C13.8941 10.8199 13.9673 10.7536 14.0489 10.7069C14.4026 10.5012 14.7849 10.6197 15.0465 11.0117C16.6684 13.4387 18.2902 15.8665 19.9121 18.2943C19.9491 18.348 19.9868 18.401 20.03 18.4631Z" fill="#EE6226"/>
<path d="M15.2109 21.1964C15.1969 21.0604 15.2625 20.9453 15.3622 20.8456C15.9963 20.2102 16.6304 19.5755 17.2673 18.9423C17.4613 18.7498 17.7549 18.747 17.9412 18.9283C18.1295 19.1117 18.1316 19.3977 17.9321 19.5993C17.2959 20.2409 16.6548 20.8784 16.0159 21.5172C15.854 21.679 15.6552 21.7181 15.4585 21.6218C15.3029 21.5451 15.2004 21.4021 15.2109 21.1964Z" fill="#EE6226"/>
<path d="M3.71343 4.92383C3.92968 4.90918 4.0685 5.00194 4.1543 5.16932C4.24429 5.34578 4.22964 5.5292 4.09152 5.66939C3.44137 6.32986 2.78774 6.98684 2.12573 7.63615C1.92971 7.82864 1.66044 7.79447 1.47 7.58803C1.31165 7.41716 1.32351 7.14446 1.50419 6.96313C2.14596 6.31939 2.79053 5.67845 3.43091 5.03332C3.51811 4.94545 3.61368 4.90918 3.71343 4.92383Z" fill="#EE6226"/>
<path d="M5.92959 6.71904C5.93029 6.85225 5.87588 6.96244 5.7838 7.0552C5.33525 7.50435 4.8874 7.95489 4.43607 8.40125C4.23168 8.60281 3.94706 8.6049 3.7636 8.41659C3.58153 8.23038 3.58153 7.95838 3.77894 7.75752C4.22819 7.3007 4.68301 6.84876 5.13853 6.39822C5.28293 6.25524 5.45803 6.21479 5.65056 6.295C5.81937 6.36474 5.92959 6.53561 5.92959 6.71904Z" fill="#EE6226"/>
<path d="M14.4482 18.908C14.444 18.7776 14.4823 18.6737 14.5751 18.5823C15.0481 18.1158 15.5161 17.6436 15.9877 17.1763C16.144 17.0215 16.4286 17.0347 16.6016 17.1979C16.7683 17.3549 16.799 17.6394 16.6462 17.7956C16.16 18.2915 15.6696 18.7825 15.1729 19.2679C15.0425 19.3956 14.8639 19.4032 14.7042 19.3279C14.5319 19.2484 14.437 19.1019 14.4482 18.908Z" fill="#EE6226"/>
</g>
<defs>
<clipPath id="clip0_23_7567">
<rect width="23" height="23" fill="white"/>
</clipPath>
</defs>
</svg>
