<svg width="25" height="29" viewBox="0 0 25 29" fill="none" xmlns="http://www.w3.org/2000/svg">
<g clip-path="url(#clip0_23_7558)">
<path d="M2.36133 9.21151C3.20672 9.29363 4.03686 9.23669 4.84412 8.94432C5.36486 8.75597 5.84856 8.49754 6.31374 8.1975C6.44229 8.11427 6.54797 7.97739 6.72336 7.98287C7.32908 9.17756 7.94134 10.369 8.53725 11.568C8.64837 11.7914 8.73116 11.7421 8.88041 11.6228C9.68876 10.9822 10.4612 10.2989 11.2041 9.58273C11.6083 9.19399 12.0212 8.81291 12.4515 8.40775C13.0573 9.59696 13.6543 10.7566 14.2371 11.9228C14.3515 12.1506 14.4136 12.2075 14.6293 12.0028C15.7089 10.9811 16.843 10.024 18.1209 9.25531C18.3159 9.13814 18.2854 9.04396 18.2015 8.8808C17.6383 7.79233 17.075 6.70276 16.5314 5.60444C16.4072 5.35367 16.3113 5.34053 16.0837 5.48508C14.8831 6.24613 13.797 7.15173 12.7533 8.11208C12.4483 8.39351 12.4472 8.39242 12.2642 8.03653C11.6726 6.88564 11.081 5.73584 10.4895 4.58495C11.5844 3.51948 12.7555 2.54818 14.0399 1.71704C14.1652 1.63601 14.285 1.55716 14.4408 1.56592C14.4986 1.66119 14.5639 1.75317 14.614 1.85282C15.1468 2.89092 15.6838 3.92683 16.2024 4.9726C16.3266 5.22336 16.4116 5.29783 16.6926 5.13685C17.8311 4.48421 19.0567 4.07247 20.3575 3.89289C20.6124 3.85785 20.8793 3.89289 21.1222 3.77572C21.6876 4.88609 22.253 5.99646 22.8163 7.10903C22.9023 7.27985 22.9721 7.45944 23.0494 7.63465C21.4556 7.73977 19.9685 8.1964 18.5741 8.98155C18.366 9.09872 18.3409 9.17866 18.4499 9.38671C19.0632 10.5628 19.6613 11.7487 20.2649 12.9303C19.7027 13.3541 19.1024 13.7209 18.5425 14.1501C17.8703 14.6648 17.2646 15.2518 16.6109 15.785C16.5249 15.8551 16.4671 15.9657 16.3364 15.9646C15.7525 14.84 15.1685 13.7143 14.5857 12.5897C14.3929 12.2185 14.3961 12.2185 14.1031 12.4955C13.0333 13.5041 11.9896 14.5433 10.8054 15.4215C10.6137 15.5638 10.6235 15.6624 10.7215 15.854C11.3305 17.0312 11.9253 18.2149 12.5256 19.3965C12.3992 19.6516 12.128 19.7184 11.9144 19.8466C11.0505 20.3634 10.1136 20.6624 9.1081 20.7434C8.81069 20.7675 8.52853 20.6525 8.23439 20.6788C7.54697 19.4797 6.96631 18.2237 6.32246 17.0027C6.22005 16.8078 6.35405 16.8199 6.4728 16.8385C6.82032 16.8932 7.16676 16.9097 7.51864 16.8757C8.60915 16.7706 9.54823 16.2964 10.4459 15.7029C10.6278 15.5825 10.5396 15.4905 10.4808 15.3744C9.98618 14.4042 9.49267 13.434 8.99589 12.4649C8.88804 12.2535 8.81614 11.9371 8.64619 11.8659C8.43702 11.7783 8.22894 12.0608 8.02304 12.1845C6.97829 12.812 5.87035 13.1756 4.63822 13.042C4.47698 13.0244 4.29505 13.042 4.19809 12.8503C3.58693 11.6392 2.97358 10.4259 2.36133 9.21151Z" fill="#EFEEEE"/>
<path d="M2.3604 9.21151C2.97265 10.4248 3.586 11.6381 4.19716 12.8536C4.29303 13.0453 4.47605 13.0277 4.63729 13.0453C5.86942 13.1788 6.97845 12.8153 8.02211 12.1878C8.22801 12.0641 8.43609 11.7816 8.64526 11.8692C8.81521 11.9404 8.88711 12.2568 8.99497 12.4682C9.49174 13.4373 9.98525 14.4075 10.4798 15.3777C10.5387 15.4938 10.628 15.5857 10.445 15.7062C9.5473 16.2997 8.60822 16.7728 7.51771 16.879C7.16583 16.9129 6.81939 16.8965 6.47187 16.8418C6.35312 16.8231 6.21912 16.8111 6.32153 17.006C6.96538 18.2281 7.54604 19.483 8.23346 20.6821C9.01893 22.2305 9.80332 23.7789 10.591 25.3251C11.1629 26.4475 11.7392 27.5677 12.3122 28.6901C12.358 28.7788 12.4005 28.8686 12.4648 29C12.1009 29 11.7784 28.9956 11.4549 29.0011C11.2653 29.0044 11.2522 28.8401 11.1956 28.7306C9.75102 25.9131 8.31081 23.0923 6.86842 20.2736C4.96084 16.545 3.05109 12.8175 1.14788 9.08668C1.05528 8.9049 0.953959 8.7943 0.739344 8.74174C0.188097 8.60486 -0.124566 8.00149 0.0399363 7.45616C0.20226 6.91959 0.803619 6.60202 1.33961 6.77066C1.89304 6.94587 2.2057 7.52733 2.00089 8.07267C1.9181 8.29386 1.94424 8.45703 2.05645 8.64209C2.16866 8.82605 2.26017 9.02097 2.3604 9.21151Z" fill="#EC6226"/>
<path d="M10.4891 4.58716C11.0807 5.73805 11.6723 6.88785 12.2638 8.03874C12.4468 8.39463 12.4468 8.39572 12.753 8.11429C13.7966 7.15394 14.8828 6.24834 16.0833 5.48729C16.311 5.34274 16.4069 5.35588 16.5311 5.60665C17.0758 6.70498 17.6379 7.79454 18.2012 8.88301C18.2861 9.04618 18.3155 9.14035 18.1205 9.25752C16.8426 10.0251 15.7086 10.9822 14.6289 12.005C14.4132 12.2087 14.3501 12.1528 14.2368 11.925C13.6539 10.7588 13.0569 9.59917 12.4512 8.40996C12.0209 8.81403 11.6091 9.1951 11.2038 9.58494C10.4597 10.3 9.68842 10.9833 8.88008 11.625C8.72974 11.7444 8.64694 11.7925 8.53691 11.5702C7.941 10.3701 7.32983 9.17758 6.72303 7.98398C6.71649 7.88434 6.7982 7.85148 6.8592 7.80549C8.12184 6.8309 9.29515 5.75557 10.3922 4.59592C10.4085 4.57731 10.4554 4.58935 10.4891 4.58716Z" fill="#EC6226"/>
<path d="M20.2632 12.9336C19.6597 11.752 19.0616 10.5661 18.4482 9.39C18.3393 9.18194 18.3643 9.102 18.5724 8.98483C19.9658 8.19969 21.4528 7.74306 23.0478 7.63793C23.1022 7.70911 23.1676 7.77372 23.2079 7.85146C23.7831 8.96841 24.3529 10.0886 24.9314 11.2034C25.0381 11.4082 25.0381 11.4936 24.7734 11.5133C23.2754 11.6206 21.8821 12.0772 20.5726 12.8065C20.4745 12.8602 20.3841 12.9347 20.2632 12.9336Z" fill="#EC6226"/>
<path d="M21.1209 3.779C20.8779 3.89726 20.611 3.86112 20.3561 3.89617C19.0542 4.07575 17.8297 4.48749 16.6913 5.14013C16.4102 5.3011 16.3252 5.22555 16.201 4.97588C15.6825 3.93011 15.1443 2.8942 14.6127 1.8561C14.5615 1.75755 14.4972 1.66556 14.4395 1.5692C14.4525 1.49036 14.4689 1.4159 14.5495 1.37319C15.932 0.653746 17.3656 0.10294 18.9398 0.00219593C19.1011 -0.00765945 19.2111 0.00767114 19.2939 0.173022C19.8964 1.37757 20.5097 2.57773 21.1209 3.779Z" fill="#EC6226"/>
<path d="M12.5254 19.3987C11.9262 18.2172 11.3303 17.0323 10.7213 15.8563C10.6222 15.6657 10.6135 15.5661 10.8052 15.4237C11.9883 14.5455 13.032 13.5063 14.1029 12.4978C14.3959 12.2218 14.3927 12.2207 14.5855 12.5919C15.1683 13.7176 15.7523 14.8422 16.3362 15.9669C16.3471 16.0687 16.2872 16.1322 16.2185 16.1968C15.1106 17.2437 14.0245 18.3146 12.8185 19.2509C12.7313 19.3188 12.6561 19.4173 12.5254 19.3987Z" fill="#EC6226"/>
</g>
<defs>
<clipPath id="clip0_23_7558">
<rect width="25" height="29" fill="white"/>
</clipPath>
</defs>
</svg>
