<svg width="81" height="60" viewBox="0 0 81 60" fill="none" xmlns="http://www.w3.org/2000/svg">
<rect x="0.632812" y="1.21411" width="79" height="57.7775" stroke="#FAFAFA"/>
<path d="M3.51373 50.6834C2.82138 50.5605 2.25383 49.9554 2.28652 49.1937C2.59852 43.8831 1.88537 38.1088 2.28355 32.8566C2.55395 29.2967 4.72311 26.732 8.29776 26.772C8.59788 21.5812 7.89662 15.9205 8.28885 10.785C8.53251 7.58757 10.3005 5.23483 13.1917 4.1291C30.3608 3.31823 47.6873 4.01852 64.9128 3.77281C68.2379 4.06767 70.829 6.50642 71.4411 9.90039L71.4649 26.7751C74.368 26.6 77.1017 28.9927 77.4464 31.972C78.0734 37.387 77.0215 43.8985 77.4821 49.4302C77.6395 49.8848 76.7392 50.6834 76.4688 50.6834H72.7991V56.5468C72.5257 56.8662 72.1929 57.0413 71.7828 57.1058C70.9835 57.2348 66.0925 57.2164 65.6081 56.9062C65.4923 56.8325 65.2337 56.4055 65.2337 56.3134V50.6803H14.523V56.3134C14.523 56.4025 14.2644 56.8294 14.1486 56.9062C13.6672 57.2164 8.77617 57.2348 7.97388 57.1058C7.56382 57.0382 7.23399 56.8662 6.95764 56.5468V50.6834C5.90278 50.5544 4.51511 50.8584 3.51076 50.6834H3.51373ZM69.2393 26.772V10.1031C69.2393 9.7161 68.22 7.95922 67.8813 7.59986C66.9809 6.64463 65.7121 6.22077 64.4522 6.08562L15.5154 6.07334C13.4087 5.92284 10.5174 8.39537 10.5174 10.5638V26.772H15.4114V20.6782C15.4114 18.8015 17.3518 17.2627 19.0722 17.1061C23.7345 16.6791 29.0147 17.4255 33.7423 17.1368C34.9279 17.2043 36.9871 18.7493 36.9871 19.9902V26.772H42.7696V20.2205C42.7696 19.898 43.6105 18.4637 43.9047 18.1749C44.5614 17.5269 45.539 17.1921 46.4304 17.1091C49.6812 16.8081 57.9834 16.7006 61.1005 17.1398C62.2623 17.3026 64.3453 18.7124 64.3453 19.9932V26.7751H69.2393V26.772ZM17.8599 20.2205V26.772H34.7645V20.4509C34.7645 20.3618 34.506 19.9318 34.3901 19.8581L18.3086 19.7629C18.2076 19.812 17.8807 20.1437 17.8599 20.2205ZM62.1226 26.772V20.6782C62.1226 20.3987 61.3501 19.4711 60.9103 19.6308L45.53 19.8489C45.4142 19.9441 44.9952 20.8041 44.9952 20.9055V26.7689H62.1226V26.772ZM4.73797 42.6361H74.9118L75.2446 42.2921V32.1747C75.2446 32.0979 74.7305 30.9246 74.6235 30.7465C73.9549 29.6469 72.808 29.1739 71.5837 29.0602H8.17594C7.00518 28.8974 4.73797 30.5222 4.73797 31.714V42.6361ZM75.0247 44.9336H4.73797V48.1525H75.0247V44.9336ZM9.18623 50.6834V54.8206H12.3003V50.6834H9.18623ZM70.5764 50.6834H67.4623V54.8206H70.5764V50.6834Z" fill="#EE6226"/>
</svg>
