<svg width="59" height="66" viewBox="0 0 59 66" fill="none" xmlns="http://www.w3.org/2000/svg">
<path d="M49.0983 47.0309C49.2544 46.9196 49.4105 46.8033 49.5616 46.6819C51.3897 45.2051 52.7344 43.2125 53.4243 40.9619H53.9279C55.7359 40.9619 57.2316 39.5407 57.3223 37.7251C57.3726 36.3798 56.6122 35.1306 55.3934 34.5642C57.9921 29.3145 55.8618 22.937 50.6343 20.3274C49.1789 19.5991 47.5774 19.2198 45.9507 19.2147H38.3965L35.8785 15.4823C35.5511 15.0018 35.5511 14.3696 35.8785 13.8892L40.28 7.36503C41.3124 5.83767 40.9196 3.75399 39.3937 2.71215C38.8397 2.33284 38.185 2.13054 37.5152 2.13559H31.2502C30.7215 2.17605 30.3236 2.63629 30.3589 3.16732C30.3941 3.64778 30.7718 4.02709 31.2502 4.0625H37.5202C38.3008 4.0625 38.9354 4.69468 38.9404 5.47859C38.9404 5.76687 38.8548 6.04503 38.6936 6.28273L34.2921 12.8069C33.5215 13.9398 33.5215 15.4317 34.2921 16.5646L36.2763 19.503C33.164 20.2667 30.5553 22.406 29.1905 25.3191H17.7836V4.07767H26.7731C27.3019 4.11813 27.7652 3.71859 27.8005 3.18249C27.8408 2.65146 27.4429 2.18617 26.9091 2.15077C26.8638 2.15077 26.8185 2.15077 26.7681 2.15077H17.6275C17.0987 0.5172 15.3512 -0.377974 13.7245 0.153062C12.4453 0.567775 11.5842 1.7664 11.5842 3.11169V57.8337H4.02998C1.85941 57.8084 0.0715826 59.533 0.00107685 61.7127C-0.0492844 63.8976 1.67307 65.7082 3.84868 65.7587C3.8789 65.7587 3.90911 65.7587 3.93933 65.7587H19.7024C20.2312 65.7183 20.6291 65.258 20.5938 64.727C20.5585 64.2465 20.1808 63.8672 19.7024 63.8318H3.93933C3.40046 63.8318 2.88174 63.6042 2.50907 63.2148C2.14143 62.8456 1.92991 62.3449 1.91984 61.819C1.92488 60.6709 2.85656 59.7454 3.99976 59.7504H25.4335C25.8163 59.7504 26.1889 59.8566 26.5113 60.064V60.7215C26.5113 61.5104 26.6976 62.2893 27.0552 62.9923C26.6724 63.5082 26.0731 63.8065 25.4335 63.8065H24.3709C23.8421 63.847 23.4443 64.3072 23.4795 64.8383C23.5148 65.3187 23.8925 65.698 24.3709 65.7334H25.4335C26.5012 65.7334 27.5235 65.2985 28.2638 64.5298C29.1653 65.3086 30.3135 65.7385 31.5021 65.7436H53.0365C55.7913 65.7436 58.0223 63.498 58.0273 60.7316V59.801C58.0273 54.081 54.4567 48.9729 49.0983 47.0309ZM38.6584 63.8167L40.4815 53.7017H44.0571L45.8852 63.8167H38.6584ZM44.173 51.795H40.3707L39.3634 48.8617C41.257 49.3523 43.2513 49.3523 45.1449 48.8617L44.173 51.795ZM38.7591 21.1416H45.9507C50.73 21.1416 54.6028 25.0308 54.6028 29.8304C54.6028 31.383 54.1898 32.9104 53.4042 34.2456H52.7394C50.0703 34.2456 47.6932 32.5462 46.8169 30.0175C46.6356 29.5168 46.0867 29.2538 45.5831 29.4359C45.2759 29.5472 45.0442 29.8101 44.9737 30.1338C44.6967 31.4184 44.0974 32.6069 43.2362 33.5982C42.8787 33.9977 42.9139 34.6147 43.3118 34.9738C43.7096 35.3329 44.324 35.2975 44.6816 34.8929C45.2406 34.2506 45.714 33.5375 46.0867 32.7688C47.6227 34.9233 50.1005 36.1977 52.7394 36.1977H54.0085C54.3913 36.1977 54.7539 36.3545 55.0157 36.6327C55.2826 36.9159 55.4237 37.2902 55.4136 37.6796C55.3632 38.4584 54.7136 39.0653 53.933 39.0552H52.684C52.2408 39.0552 51.853 39.3587 51.7523 39.7936C50.5084 45.0585 45.2456 48.3104 40.0081 47.0612C36.4224 46.2065 33.6273 43.3945 32.7712 39.7936C32.6654 39.3587 32.2776 39.0552 31.8344 39.0552H30.5905C29.8099 39.0653 29.1653 38.4584 29.1149 37.6796C29.0898 37.28 29.2408 36.8906 29.5178 36.6074C29.7797 36.3292 30.1423 36.1725 30.525 36.1725H30.5804C31.1344 36.1725 31.6783 36.3292 32.1467 36.6327C34.6547 38.2561 37.767 38.6304 40.5872 37.6442C41.0858 37.4672 41.3477 36.921 41.1765 36.4152C41.0002 35.9145 40.4563 35.6515 39.9527 35.8285C37.6915 36.6226 35.1986 36.3191 33.1892 35.0143C32.6251 34.6502 31.9956 34.4074 31.3308 34.3062C28.8782 30.1844 30.2229 24.8437 34.3273 22.3858C35.6619 21.5867 37.1929 21.1618 38.749 21.1568L38.7591 21.1416ZM13.508 3.10663C13.508 2.45422 14.0368 1.92318 14.6864 1.92318C15.3361 1.92318 15.8649 2.45422 15.8649 3.10663V57.8337H13.508V3.10663ZM17.7836 57.8337V27.246H28.5106C28.2991 28.0906 28.1933 28.9554 28.1933 29.8253C28.1933 31.4437 28.561 33.0419 29.2711 34.4934C28.843 34.6704 28.4602 34.9334 28.1379 35.2672C27.5084 35.9246 27.1659 36.8097 27.2012 37.72C27.2919 39.5357 28.7825 40.9568 30.5905 40.9619H31.0941C31.7891 43.2074 33.1338 45.195 34.9568 46.6667C35.1079 46.7881 35.264 46.9044 35.4202 47.0157C30.661 48.7403 27.2616 52.9886 26.6069 58.0258C26.2192 57.8994 25.8163 57.8387 25.4134 57.8387H17.7836V57.8337ZM28.43 60.7316V59.801C28.4149 54.4451 32.051 49.772 37.2281 48.4824L38.6936 52.8369L36.6792 63.8167H31.5021C29.8049 63.8167 28.4351 62.436 28.43 60.7316ZM56.1287 60.7316C56.1287 62.436 54.7539 63.8116 53.0567 63.8167H47.8342L45.8198 52.8369L47.2903 48.4824C52.4675 49.772 56.0985 54.4451 56.0834 59.801L56.1287 60.7316Z" fill="#EE6226"/>
</svg>
