<svg width="90" height="94" viewBox="0 0 90 94" fill="none" xmlns="http://www.w3.org/2000/svg">
<g clip-path="url(#clip0_23_8206)">
<path d="M4.1993 71.9751V72.2267H3.41852V76.3735H6.09848V72.2267H5.30715V71.9751H9.52227V72.2267H8.73095V81.0811H9.52227V81.3328H5.30715V81.0811H6.09848V76.7195H3.41852V81.0811H4.1993V81.3328H0V81.0811H0.791325V72.2267H0V71.9751H4.1993Z" fill="#05446B"/>
<path d="M14.6288 78.1925H11.9647L10.9307 81.081H11.9383V81.3327H9.88086V81.081H10.5139L13.9483 71.8911H15.0508L18.443 81.081H19.0602V81.3327H14.6605V81.081H15.6153L14.6341 78.1925H14.6288ZM12.086 77.8989H14.5233L13.3521 74.397L12.086 77.8989Z" fill="#05446B"/>
<path d="M25.3327 72.2267H24.2829V71.9751H26.3404V72.2267H25.7073L22.4629 81.4691H21.3339L17.9048 72.2267H17.2876V71.9751H21.6874V72.2267H20.7325L22.9957 78.916L25.338 72.2267H25.3327Z" fill="#05446B"/>
<path d="M29.2367 78.1925H26.5726L25.5386 81.081H26.5462V81.3327H24.4888V81.081H25.1218L28.5509 71.8911H29.6535L33.0456 81.081H33.6629V81.3327H29.2631V81.081H30.218L29.2367 78.1925ZM26.6939 77.8989H29.1312L27.96 74.397L26.6939 77.8989Z" fill="#05446B"/>
<path d="M41.6869 81.338H39.8035L35.1874 72.6828V81.0811H35.926V81.3328H34.0796V81.0811H34.8182V72.2267H34.0796V71.9751H37.7935L41.3176 78.6906V72.232H40.579V71.9803H42.4254V72.232H41.6869V81.338Z" fill="#05446B"/>
<path d="M47.1947 78.1925H44.5306L43.4966 81.081H44.5042V81.3327H42.4468V81.081H43.0798L46.5142 71.8911H47.6168L51.0089 81.081H51.6261V81.3327H47.2264V81.081H48.1812L47.2 78.1925H47.1947ZM44.6467 77.8989H47.0839L45.9128 74.397L44.6467 77.8989Z" fill="#05446B"/>
<path d="M57.4237 76.0959V77.1549C57.4237 79.6136 58.1359 81.2072 59.6025 81.2072C60.6945 81.2072 61.565 80.0854 62.3194 78.3449H62.5621L62.4671 81.3278H62.3194C62.2244 81.1548 62.1717 81.0605 61.9554 81.0605C61.4964 81.0605 60.7578 81.4746 59.2754 81.4746C56.4214 81.4746 54.6699 79.9753 54.6699 76.7774C54.6699 73.5796 56.5533 71.8286 59.3124 71.8286C60.7104 71.8286 61.3593 72.2428 61.8288 72.2428C62.0451 72.2428 62.0978 72.1484 62.1928 71.9754H62.3405L62.446 74.8797H62.2033C61.4648 73.2336 60.6576 72.096 59.497 72.096C58.1359 72.096 57.4132 73.3279 57.4132 76.0959H57.4237Z" fill="#05446B"/>
<path d="M70.9663 78.2712V72.2267H70.0905V71.9751H72.053V72.2267H71.3144V78.1768C71.3144 80.2371 70.6286 81.4691 67.8695 81.4691C65.6749 81.4691 64.1028 80.6932 64.1028 78.0301V72.2267H63.3643V71.9751H67.6058V72.2267H66.73V78.4861C66.73 79.9593 67.0782 81.0287 68.7347 81.0287C70.0958 81.0287 70.9715 80.1847 70.9715 78.2712H70.9663Z" fill="#05446B"/>
<path d="M76.5789 71.9751C78.9476 71.9751 80.3192 72.5098 80.3192 74.1664C80.3192 75.4508 79.5121 76.1323 78.0983 76.3577V76.3839C79.7917 76.5989 80.7888 77.3066 80.7888 78.7116C80.7888 80.7823 79.0373 81.3328 76.5103 81.3328H72.5537V81.0811H73.4294V72.2267H72.5537V71.9751H76.5789ZM76.0514 76.3473H76.3996C77.3702 76.3473 77.6498 75.7339 77.6498 74.633V74.0039C77.6498 72.7195 77.423 72.2267 76.4787 72.2267H76.0461V76.3473H76.0514ZM76.0514 81.0811H76.6844C77.7184 81.0811 78.0191 80.3053 78.0191 79.0733V78.3656C78.0191 77.2699 77.6709 76.5989 76.3626 76.5989H76.0514V81.0811Z" fill="#05446B"/>
<path d="M85.5687 78.1925H82.9046L81.8706 81.081H82.8783V81.3327H80.8208V81.081H81.4539L84.8829 71.8911H85.9855L89.3777 81.081H89.9949V81.3327H85.5951V81.081H86.55L85.5687 78.1925ZM83.026 77.8989H85.4632L84.2921 74.397L83.026 77.8989Z" fill="#05446B"/>
<path d="M15.9531 91.9285L16.1958 91.5039C16.5123 91.7502 17.0557 91.9495 17.6149 91.9495C18.3746 91.9495 18.6858 91.6926 18.6858 91.2994C18.6858 90.2667 16.0956 91.0792 16.0956 89.5118C16.0956 88.8617 16.6548 88.3794 17.6729 88.3794C18.1899 88.3794 18.7491 88.5209 19.0868 88.7516L18.8494 89.1815C18.5012 88.9403 18.0844 88.8407 17.6729 88.8407C16.9502 88.8407 16.6337 89.1186 16.6337 89.496C16.6337 90.5655 19.2239 89.7581 19.2239 91.2837C19.2239 91.9704 18.6173 92.416 17.578 92.416C16.9185 92.416 16.2802 92.2063 15.9531 91.9232V91.9285Z" fill="#05446B"/>
<path d="M20.2158 86.7798H20.7539V92.3787H20.2158V86.7798Z" fill="#05446B"/>
<path d="M21.8564 90.3974C21.8564 89.2231 22.7216 88.3843 23.8928 88.3843C25.0639 88.3843 25.9186 89.2231 25.9186 90.3974C25.9186 91.5716 25.0587 92.4209 23.8928 92.4209C22.7269 92.4209 21.8564 91.5769 21.8564 90.3974ZM25.3699 90.3974C25.3699 89.4695 24.7421 88.8508 23.8875 88.8508C23.0329 88.8508 22.3998 89.4695 22.3998 90.3974C22.3998 91.3253 23.0382 91.9439 23.8875 91.9439C24.7369 91.9439 25.3699 91.3253 25.3699 90.3974Z" fill="#05446B"/>
<path d="M30.7138 88.4105V91.8967C30.7138 93.2597 30.0385 93.8783 28.7197 93.8783C27.9916 93.8783 27.2795 93.6581 26.8574 93.2649L27.1317 92.856C27.5116 93.1968 28.0866 93.4012 28.7038 93.4012C29.7115 93.4012 30.1757 92.9399 30.1757 91.9596V91.4563C29.8434 91.9596 29.2736 92.227 28.6194 92.227C27.4799 92.227 26.6147 91.4354 26.6147 90.2978C26.6147 89.1602 27.4799 88.3843 28.6194 88.3843C29.2894 88.3843 29.8645 88.6569 30.1968 89.1759V88.4157H30.7138V88.4105ZM30.1915 90.2978C30.1915 89.438 29.5532 88.8508 28.6722 88.8508C27.7912 88.8508 27.1634 89.438 27.1634 90.2978C27.1634 91.1575 27.7912 91.7551 28.6722 91.7551C29.5532 91.7551 30.1915 91.1575 30.1915 90.2978Z" fill="#05446B"/>
<path d="M35.2402 89.9203V92.379H34.7232V91.7604C34.4805 92.1693 34.011 92.4157 33.3515 92.4157C32.4494 92.4157 31.8955 91.9491 31.8955 91.2624C31.8955 90.649 32.2912 90.1405 33.436 90.1405H34.7021V89.8993C34.7021 89.2231 34.317 88.8508 33.5731 88.8508C33.0561 88.8508 32.5708 89.0343 32.2437 89.3174L32.001 88.919C32.402 88.5782 32.9928 88.3843 33.6259 88.3843C34.6599 88.3843 35.2402 88.898 35.2402 89.9255V89.9203ZM34.7021 91.189V90.5389H33.4518C32.6763 90.5389 32.4283 90.843 32.4283 91.2466C32.4283 91.708 32.8029 91.991 33.436 91.991C34.069 91.991 34.4911 91.7027 34.7021 91.1837V91.189Z" fill="#05446B"/>
<path d="M40.3788 90.0779V92.3793H39.8407V90.1304C39.8407 89.2916 39.4028 88.8617 38.6431 88.8617C37.7832 88.8617 37.2451 89.3912 37.2451 90.2929V92.3741H36.707V88.4056H37.224V89.1395C37.5142 88.6572 38.0523 88.3794 38.7434 88.3794C39.7141 88.3794 40.3841 88.9351 40.3841 90.0779H40.3788Z" fill="#05446B"/>
<path d="M47.5268 88.4105V91.8967C47.5268 93.2597 46.8515 93.8783 45.5327 93.8783C44.8046 93.8783 44.0924 93.6581 43.6704 93.2649L43.9447 92.856C44.3246 93.1968 44.8996 93.4012 45.5168 93.4012C46.5245 93.4012 46.9887 92.9399 46.9887 91.9596V91.4563C46.6563 91.9596 46.0866 92.227 45.4324 92.227C44.2929 92.227 43.4277 91.4354 43.4277 90.2978C43.4277 89.1602 44.2929 88.3843 45.4324 88.3843C46.1024 88.3843 46.6774 88.6569 47.0098 89.1759V88.4157H47.5268V88.4105ZM47.0045 90.2978C47.0045 89.438 46.3662 88.8508 45.4852 88.8508C44.6042 88.8508 43.9764 89.438 43.9764 90.2978C43.9764 91.1575 44.6042 91.7551 45.4852 91.7551C46.3662 91.7551 47.0045 91.1575 47.0045 90.2978Z" fill="#05446B"/>
<path d="M48.6401 90.3974C48.6401 89.2231 49.5053 88.3843 50.6765 88.3843C51.8476 88.3843 52.7023 89.2231 52.7023 90.3974C52.7023 91.5716 51.8424 92.4209 50.6765 92.4209C49.5106 92.4209 48.6401 91.5769 48.6401 90.3974ZM52.1536 90.3974C52.1536 89.4695 51.5258 88.8508 50.6712 88.8508C49.8166 88.8508 49.1835 89.4695 49.1835 90.3974C49.1835 91.3253 49.8219 91.9439 50.6712 91.9439C51.5206 91.9439 52.1536 91.3253 52.1536 90.3974Z" fill="#05446B"/>
<path d="M57.276 90.5602H53.9366C53.9999 91.3885 54.633 91.939 55.5087 91.939C55.9941 91.939 56.4267 91.766 56.7326 91.42L57.0386 91.766C56.6799 92.1906 56.126 92.416 55.4982 92.416C54.2532 92.416 53.4038 91.572 53.4038 90.3925C53.4038 89.2129 54.2321 88.3794 55.3557 88.3794C56.4794 88.3794 57.2918 89.2024 57.2918 90.3925C57.2918 90.4397 57.2866 90.4973 57.2866 90.5602H57.276ZM53.9366 90.1618H56.7696C56.701 89.3859 56.1312 88.8407 55.3505 88.8407C54.5697 88.8407 54.0052 89.3859 53.9366 90.1618Z" fill="#05446B"/>
<path d="M57.8301 91.9285L58.0728 91.5039C58.3893 91.7502 58.9327 91.9495 59.4919 91.9495C60.2515 91.9495 60.5628 91.6926 60.5628 91.2994C60.5628 90.2667 57.9725 91.0792 57.9725 89.5118C57.9725 88.8617 58.5317 88.3794 59.5499 88.3794C60.0669 88.3794 60.6261 88.5209 60.9637 88.7516L60.7263 89.1815C60.3781 88.9403 59.9614 88.8407 59.5499 88.8407C58.8271 88.8407 58.5106 89.1186 58.5106 89.496C58.5106 90.5655 61.1009 89.7581 61.1009 91.2837C61.1009 91.9704 60.4942 92.416 59.4549 92.416C58.7955 92.416 58.1572 92.2063 57.8301 91.9232V91.9285Z" fill="#05446B"/>
<path d="M67.7587 90.0776V92.379H67.2206V90.13C67.2206 89.2912 66.7827 88.8614 66.023 88.8614C65.1631 88.8614 64.625 89.3909 64.625 90.2925V92.3738H64.0869V86.7749H64.625V89.0973C64.9204 88.6359 65.4427 88.3738 66.118 88.3738C67.0887 88.3738 67.7587 88.9295 67.7587 90.0724V90.0776Z" fill="#05446B"/>
<path d="M72.7174 90.5602H69.378C69.4413 91.3885 70.0744 91.939 70.9501 91.939C71.4355 91.939 71.8681 91.766 72.1741 91.42L72.48 91.766C72.1213 92.1906 71.5674 92.416 70.9396 92.416C69.6946 92.416 68.8452 91.572 68.8452 90.3925C68.8452 89.2129 69.6735 88.3794 70.7971 88.3794C71.9208 88.3794 72.7333 89.2024 72.7333 90.3925C72.7333 90.4397 72.728 90.4973 72.728 90.5602H72.7174ZM69.3728 90.1618H72.2057C72.1371 89.3859 71.5674 88.8407 70.7866 88.8407C70.0058 88.8407 69.4413 89.3859 69.3728 90.1618Z" fill="#05446B"/>
<path d="M75.8352 88.3794V88.8984C75.7877 88.8984 75.7455 88.8931 75.7085 88.8931C74.875 88.8931 74.3633 89.4226 74.3633 90.3558V92.3793H73.8252V88.4108H74.3422V89.1867C74.5901 88.6572 75.1019 88.3794 75.8352 88.3794Z" fill="#05446B"/>
<path d="M80.2457 90.5602H76.9064C76.9697 91.3885 77.6027 91.939 78.4785 91.939C78.9638 91.939 79.3964 91.766 79.7024 91.42L80.0084 91.766C79.6496 92.1906 79.0957 92.416 78.4679 92.416C77.2229 92.416 76.3735 91.572 76.3735 90.3925C76.3735 89.2129 77.2018 88.3794 78.3255 88.3794C79.4491 88.3794 80.2616 89.2024 80.2616 90.3925C80.2616 90.4397 80.2563 90.4973 80.2563 90.5602H80.2457ZM76.9064 90.1618H79.7393C79.6707 89.3859 79.101 88.8407 78.3202 88.8407C77.5394 88.8407 76.9749 89.3859 76.9064 90.1618Z" fill="#05446B"/>
<path d="M76.5578 28.6841C76.5578 29.7587 76.4945 30.8125 76.3784 31.8557C63.8385 29.051 54.5906 35.6617 51.0349 38.8124C45.8438 26.4718 36.1369 19.4417 24.151 19.4417C23.4968 19.4417 22.8321 19.4627 22.1621 19.5046C25.9763 8.65812 36.3637 0.878418 48.5818 0.878418C57.6873 0.878418 65.7747 5.19815 70.8813 11.8927C74.4476 16.5584 76.563 22.3775 76.563 28.6841H76.5578Z" fill="url(#paint0_linear_23_8206)"/>
<path style="mix-blend-mode:multiply" d="M22.1675 19.5046C22.8375 19.4627 23.5022 19.4417 24.1563 19.4417C35.2454 19.4417 44.3826 25.4652 49.8005 36.1387C61.6071 20.3591 62.3615 1.33975 49.2519 0.899388C49.0303 0.894145 48.8035 0.878418 48.5819 0.878418C36.3638 0.878418 25.9764 8.65812 22.1675 19.5046Z" fill="url(#paint1_linear_23_8206)"/>
<path d="M42.7789 48.957C38.0996 51.9766 37.1078 50.0212 38.643 49.3921C40.1834 48.7683 46.3557 45.0252 47.3422 40.9047C48.3288 36.7841 42.1775 30.3517 42.1775 30.3517C42.1775 30.3517 44.0873 33.5968 41.1013 39.1852C38.184 44.653 32.7133 44.48 36.385 42.1314C40.0568 39.7828 40.6582 34.4198 40.3997 30.4828C40.1412 26.5405 33.7367 24.5274 33.7367 24.5274C36.633 35.0332 28.6881 37.1616 30.793 34.5299C32.191 32.7842 32.7924 26.9809 30.6189 24.1552C28.725 21.6965 21.4765 22.2365 19.6195 22.42C18.3059 23.7411 13.3206 28.9992 14.0539 32.0031C14.8979 35.4631 19.8094 38.6504 22.0568 38.6714C25.4437 38.7029 18.7754 43.4997 12.3868 34.6453C12.3868 34.6453 9.92842 40.8627 12.8458 43.5416C15.7631 46.2204 20.3317 49.13 24.4835 47.7774C28.6353 46.4197 25.3223 50.7551 19.2133 49.5651C12.9671 48.3489 11.6271 44.8312 11.6271 44.8312C11.6271 44.8312 12.7825 53.6279 16.623 55.4575C20.4689 57.2924 27.2795 54.8756 28.7356 54.084C30.1916 53.2924 31.099 55.2845 25.7918 57.004C20.4478 58.7288 15.8845 57.3343 15.8845 57.3343C15.8845 57.3343 22.4155 67.4731 28.6986 63.599C36.5011 58.7812 35.1928 54.8861 35.1928 54.8861C35.1928 54.8861 37.4138 58.3513 46.092 55.3527C53.0767 52.9412 49.2625 41.5128 49.2625 41.5128C49.2625 41.5128 47.4794 45.9164 42.7684 48.957H42.7789Z" fill="url(#paint2_linear_23_8206)"/>
<path d="M19.6249 22.4145L32.8559 49.9842C35.1718 54.8072 40.748 57.1401 45.8441 55.4311C45.9285 55.4049 46.0182 55.3734 46.1026 55.3419C53.0874 52.9305 49.2732 41.502 49.2732 41.502C49.2732 41.502 47.4901 45.9056 42.7791 48.9462C38.0997 51.9659 37.1079 50.0104 38.6431 49.3813C40.1835 48.7575 46.3559 45.0144 47.3424 40.8939C48.3289 36.7734 42.1777 30.341 42.1777 30.341C42.1777 30.341 44.0874 33.586 41.1015 39.1744C38.1841 44.6422 32.7134 44.4692 36.3852 42.1206C40.0569 39.7721 40.6583 34.4091 40.3998 30.4721C40.1413 26.5298 33.7369 24.5167 33.7369 24.5167C36.6331 35.0224 28.6882 37.1509 30.7931 34.5192C32.1911 32.7735 32.7925 26.9701 30.619 24.1445C28.7251 21.6858 21.4766 22.2258 19.6196 22.4093L19.6249 22.4145Z" fill="url(#paint3_linear_23_8206)"/>
<path d="M52.8552 42.0675C62.7942 37.6429 68.7819 54.6178 48.582 59.0267C32.592 62.5128 34.6547 62.6072 31.4155 65.1131H61.6072C69.5363 65.1131 75.334 59.3674 77.5656 52.7096C80.7414 43.2209 74.3897 33.2079 62.81 35.1685C58.9325 35.8238 54.5486 38.2144 52.8604 42.0675H52.8552Z" fill="url(#paint4_linear_23_8206)"/>
<path style="mix-blend-mode:multiply" d="M48.5766 59.027C32.5866 62.5132 34.6493 62.6075 31.4102 65.1134H52.2378C58.5737 65.1134 64.6722 62.3506 68.576 57.3913C71.1874 54.0729 72.2847 50.4714 70.7073 47.1372C65.4582 36.0653 52.8551 42.0626 52.8551 42.0626C62.7941 37.638 68.7818 54.6129 48.5819 59.0217L48.5766 59.027Z" fill="url(#paint5_linear_23_8206)"/>
</g>
<defs>
<linearGradient id="paint0_linear_23_8206" x1="49.3626" y1="7.96613" x2="49.3626" y2="28.2594" gradientUnits="userSpaceOnUse">
<stop stop-color="#F9D730"/>
<stop offset="0.57" stop-color="#F9C430"/>
<stop offset="1" stop-color="#F9BB30"/>
</linearGradient>
<linearGradient id="paint1_linear_23_8206" x1="40.9799" y1="13.0303" x2="60.9567" y2="28.8062" gradientUnits="userSpaceOnUse">
<stop stop-color="white"/>
<stop offset="0.03" stop-color="#FEFBF7"/>
<stop offset="0.29" stop-color="#FCD7B1"/>
<stop offset="0.53" stop-color="#FBBA79"/>
<stop offset="0.74" stop-color="#F9A651"/>
<stop offset="0.9" stop-color="#F99939"/>
<stop offset="1" stop-color="#F99530"/>
</linearGradient>
<linearGradient id="paint2_linear_23_8206" x1="34.0849" y1="49.0251" x2="63.3136" y2="77.1561" gradientUnits="userSpaceOnUse">
<stop stop-color="#00AA86"/>
<stop offset="1" stop-color="#156755"/>
</linearGradient>
<linearGradient id="paint3_linear_23_8206" x1="37.3973" y1="34.2645" x2="28.1063" y2="45.0516" gradientUnits="userSpaceOnUse">
<stop stop-color="#00AA86"/>
<stop offset="1" stop-color="#156755"/>
</linearGradient>
<linearGradient id="paint4_linear_23_8206" x1="69.5943" y1="68.4682" x2="52.0604" y2="50.5756" gradientUnits="userSpaceOnUse">
<stop stop-color="#287CAF"/>
<stop offset="1" stop-color="#165D91"/>
</linearGradient>
<linearGradient id="paint5_linear_23_8206" x1="48.7982" y1="64.673" x2="58.8463" y2="41.3192" gradientUnits="userSpaceOnUse">
<stop stop-color="white"/>
<stop offset="1" stop-color="#165D91"/>
</linearGradient>
<clipPath id="clip0_23_8206">
<rect width="90" height="93" fill="white" transform="translate(0 0.878418)"/>
</clipPath>
</defs>
</svg>
