<svg width="111" height="108" viewBox="0 0 111 108" fill="none" xmlns="http://www.w3.org/2000/svg">
<g clip-path="url(#clip0_23_8076)">
<path d="M17.3557 87.2438V88.4286C17.3557 91.1795 18.1441 92.9626 19.7676 92.9626C20.9766 92.9626 21.9402 91.7074 22.7753 89.7601H23.044L22.9388 93.0975H22.7753C22.6702 92.904 22.6118 92.7984 22.3723 92.7984C21.8643 92.7984 21.0466 93.2618 19.4056 93.2618C16.2461 93.2618 14.3071 91.5842 14.3071 88.0063C14.3071 84.4283 16.3921 82.4692 19.4464 82.4692C20.9941 82.4692 21.7124 82.9326 22.2322 82.9326C22.4716 82.9326 22.53 82.827 22.6351 82.6335H22.7987L22.9155 85.883H22.6468C21.8292 84.0412 20.9357 82.7684 19.6508 82.7684C18.1441 82.7684 17.344 84.1468 17.344 87.2438H17.3557Z" fill="#05446B"/>
<path d="M32.3473 89.6836V82.9207H31.3778V82.6392H33.5503V82.9207H32.7327V89.5781C32.7327 91.8832 31.9735 93.2616 28.9191 93.2616C26.4896 93.2616 24.7493 92.3935 24.7493 89.4138V82.9207H23.9316V82.6392H28.6271V82.9207H27.6576V89.9241C27.6576 91.5723 28.0431 92.7689 29.8769 92.7689C31.3836 92.7689 32.3531 91.8245 32.3531 89.6836H32.3473Z" fill="#05446B"/>
<path d="M38.561 82.6333C41.1832 82.6333 42.7016 83.2316 42.7016 85.0851C42.7016 86.5221 41.8081 87.2847 40.243 87.5369V87.5662C42.1176 87.8067 43.2214 88.5985 43.2214 90.1705C43.2214 92.4874 41.2825 93.1032 38.4851 93.1032H34.105V92.8217H35.0744V82.9148H34.105V82.6333H38.561ZM37.977 87.5251H38.3624C39.437 87.5251 39.7465 86.8389 39.7465 85.6071V84.9033C39.7465 83.4662 39.4954 82.9148 38.45 82.9148H37.9711V87.5251H37.977ZM37.977 92.8217H38.6778C39.8225 92.8217 40.1553 91.9536 40.1553 90.5752V89.7834C40.1553 88.5575 39.7699 87.8067 38.3216 87.8067H37.977V92.8217Z" fill="#05446B"/>
<path d="M48.5129 89.5899H45.5637L44.419 92.8218H45.5345V93.1033H43.2568V92.8218H43.9577L47.7596 82.5396H48.9802L52.7354 92.8218H53.4187V93.1033H48.548V92.8218H49.6051L48.5188 89.5899H48.5129ZM45.698 89.2614H48.3961L47.0996 85.3433L45.698 89.2614Z" fill="#05446B"/>
<path d="M61.8632 82.6333V82.9618H60.2864V92.7806H60.8237C62.6691 92.7806 63.4926 91.4316 64.3686 89.6074H64.684L64.4037 93.1091H56.5078V92.7806H57.3897V82.9618H56.5078V82.6333H61.869H61.8632Z" fill="#05446B"/>
<path d="M70.6292 82.4692C73.8354 82.4692 75.459 84.4459 75.459 87.842C75.459 91.2382 73.8938 93.2618 70.454 93.2618C67.0142 93.2618 65.5366 91.332 65.5366 88.0415C65.5366 84.7509 67.312 82.4751 70.6351 82.4751L70.6292 82.4692ZM72.3871 87.3787C72.3871 84.311 72.2995 82.786 70.5124 82.786C68.7253 82.786 68.591 84.3697 68.591 87.4373V88.5166C68.591 91.332 68.772 92.945 70.5124 92.945C72.2528 92.945 72.3871 91.4963 72.3871 88.4873V87.3787Z" fill="#05446B"/>
<path d="M83.0104 91.7778V88.8744H82.0584V88.5459H86.3509V88.8744H85.7669V93.0917H85.545C85.364 92.8395 85.2004 92.7163 84.7858 92.7163C84.1901 92.7163 83.0746 93.2559 81.7781 93.2559C78.6186 93.2559 76.6797 91.5784 76.6797 88.0004C76.6797 84.4225 78.7646 82.4634 81.819 82.4634C83.3666 82.4634 84.1726 82.9268 84.6923 82.9268C84.9318 82.9268 84.9902 82.8212 85.0953 82.6276H85.2588L85.3756 85.8771H85.107C84.2719 84.1996 83.3024 82.7625 81.9942 82.7625C80.5167 82.7625 79.7166 84.1409 79.7166 87.2379V88.4227C79.7166 91.4611 80.505 92.9568 81.8774 92.9568C82.9228 92.9568 83.0104 92.5403 83.0104 91.772V91.7778Z" fill="#05446B"/>
<path d="M92.3548 82.4692C95.561 82.4692 97.1846 84.4459 97.1846 87.842C97.1846 91.2382 95.6194 93.2618 92.1796 93.2618C88.7398 93.2618 87.2622 91.332 87.2622 88.0415C87.2622 84.7509 89.0376 82.4751 92.3606 82.4751L92.3548 82.4692ZM94.1127 87.3787C94.1127 84.311 94.0251 82.786 92.238 82.786C90.4509 82.786 90.3166 84.3697 90.3166 87.4373V88.5166C90.3166 91.332 90.4976 92.945 92.238 92.945C93.9783 92.945 94.1127 91.4963 94.1127 88.4873V87.3787Z" fill="#05446B"/>
<path d="M20.5034 104.958L20.7721 104.483C21.1225 104.758 21.724 104.981 22.3431 104.981C23.184 104.981 23.5286 104.694 23.5286 104.254C23.5286 103.098 20.6611 104.008 20.6611 102.254C20.6611 101.526 21.286 100.987 22.4073 100.987C22.9796 100.987 23.5987 101.145 23.9725 101.403L23.7096 101.884C23.3242 101.614 22.8628 101.503 22.4073 101.503C21.6072 101.503 21.2568 101.814 21.2568 102.236C21.2568 103.433 24.1243 102.529 24.1243 104.236C24.1243 105.005 23.4527 105.503 22.3022 105.503C21.5722 105.503 20.8655 105.269 20.5034 104.952V104.958Z" fill="#05446B"/>
<path d="M25.2222 99.1978H25.8179V105.462H25.2222V99.1978Z" fill="#05446B"/>
<path d="M27.0386 103.245C27.0386 101.931 27.9964 100.993 29.2929 100.993C30.5894 100.993 31.5355 101.931 31.5355 103.245C31.5355 104.559 30.5835 105.509 29.2929 105.509C28.0022 105.509 27.0386 104.565 27.0386 103.245ZM30.9281 103.245C30.9281 102.207 30.2331 101.515 29.287 101.515C28.3409 101.515 27.6401 102.207 27.6401 103.245C27.6401 104.283 28.3468 104.975 29.287 104.975C30.2273 104.975 30.9281 104.283 30.9281 103.245Z" fill="#05446B"/>
<path d="M36.8439 101.022V104.923C36.8439 106.448 36.0964 107.14 34.6364 107.14C33.8304 107.14 33.042 106.893 32.5748 106.453L32.8785 105.996C33.299 106.377 33.9355 106.606 34.6188 106.606C35.7343 106.606 36.2482 106.09 36.2482 104.993V104.43C35.8803 104.993 35.2496 105.292 34.5254 105.292C33.2639 105.292 32.3062 104.406 32.3062 103.134C32.3062 101.861 33.2639 100.993 34.5254 100.993C35.2671 100.993 35.9037 101.298 36.2716 101.878V101.028H36.8439V101.022ZM36.2658 103.134C36.2658 102.172 35.5591 101.515 34.5838 101.515C33.6085 101.515 32.9135 102.172 32.9135 103.134C32.9135 104.096 33.6085 104.764 34.5838 104.764C35.5591 104.764 36.2658 104.096 36.2658 103.134Z" fill="#05446B"/>
<path d="M41.855 102.711V105.462H41.2827V104.77C41.014 105.228 40.4942 105.503 39.7642 105.503C38.7656 105.503 38.1523 104.981 38.1523 104.213C38.1523 103.527 38.5904 102.958 39.8577 102.958H41.2593V102.688C41.2593 101.931 40.833 101.515 40.0095 101.515C39.4372 101.515 38.8999 101.72 38.5378 102.037L38.2691 101.591C38.713 101.21 39.3671 100.993 40.0679 100.993C41.2126 100.993 41.8608 101.567 41.8608 102.717L41.855 102.711ZM41.2593 104.131V103.403H39.8752C39.0167 103.403 38.7422 103.744 38.7422 104.195C38.7422 104.711 39.1568 105.028 39.8577 105.028C40.5585 105.028 41.0257 104.706 41.2593 104.125V104.131Z" fill="#05446B"/>
<path d="M47.5432 102.887V105.462H46.9475V102.946C46.9475 102.007 46.4628 101.526 45.6218 101.526C44.6699 101.526 44.0742 102.119 44.0742 103.128V105.456H43.4785V101.016H44.0508V101.837C44.3721 101.298 44.9677 100.987 45.7328 100.987C46.8074 100.987 47.5491 101.609 47.5491 102.887H47.5432Z" fill="#05446B"/>
<path d="M55.4567 101.022V104.923C55.4567 106.448 54.7092 107.14 53.2492 107.14C52.4432 107.14 51.6548 106.893 51.1876 106.453L51.4913 105.996C51.9118 106.377 52.5483 106.606 53.2316 106.606C54.3471 106.606 54.861 106.09 54.861 104.993V104.43C54.4931 104.993 53.8624 105.292 53.1382 105.292C51.8767 105.292 50.9189 104.406 50.9189 103.134C50.9189 101.861 51.8767 100.993 53.1382 100.993C53.8799 100.993 54.5165 101.298 54.8844 101.878V101.028H55.4567V101.022ZM54.8785 103.134C54.8785 102.172 54.1719 101.515 53.1966 101.515C52.2213 101.515 51.5263 102.172 51.5263 103.134C51.5263 104.096 52.2213 104.764 53.1966 104.764C54.1719 104.764 54.8785 104.096 54.8785 103.134Z" fill="#05446B"/>
<path d="M56.689 103.245C56.689 101.931 57.6467 100.993 58.9433 100.993C60.2398 100.993 61.1859 101.931 61.1859 103.245C61.1859 104.559 60.2339 105.509 58.9433 105.509C57.6526 105.509 56.689 104.565 56.689 103.245ZM60.5785 103.245C60.5785 102.207 59.8835 101.515 58.9374 101.515C57.9913 101.515 57.2905 102.207 57.2905 103.245C57.2905 104.283 57.9972 104.975 58.9374 104.975C59.8777 104.975 60.5785 104.283 60.5785 103.245Z" fill="#05446B"/>
<path d="M66.2491 103.427H62.5523C62.6223 104.354 63.3232 104.97 64.2926 104.97C64.8299 104.97 65.3088 104.776 65.6475 104.389L65.9862 104.776C65.5891 105.251 64.9759 105.503 64.2809 105.503C62.9027 105.503 61.9624 104.559 61.9624 103.239C61.9624 101.919 62.8793 100.987 64.1233 100.987C65.3672 100.987 66.2666 101.908 66.2666 103.239C66.2666 103.292 66.2607 103.356 66.2607 103.427H66.2491ZM62.5523 102.981H65.6884C65.6125 102.113 64.9817 101.503 64.1174 101.503C63.2531 101.503 62.6282 102.113 62.5523 102.981Z" fill="#05446B"/>
<path d="M66.8623 104.958L67.131 104.483C67.4814 104.758 68.0829 104.981 68.7019 104.981C69.5429 104.981 69.8875 104.694 69.8875 104.254C69.8875 103.098 67.02 104.008 67.02 102.254C67.02 101.526 67.639 100.987 68.7662 100.987C69.3385 100.987 69.9576 101.145 70.3313 101.403L70.0685 101.884C69.6831 101.614 69.2217 101.503 68.7662 101.503C67.9661 101.503 67.6157 101.814 67.6157 102.236C67.6157 103.433 70.4832 102.529 70.4832 104.236C70.4832 105.005 69.8116 105.503 68.6611 105.503C67.931 105.503 67.2244 105.269 66.8623 104.952V104.958Z" fill="#05446B"/>
<path d="M77.8533 102.887V105.462H77.2576V102.946C77.2576 102.007 76.7729 101.526 75.9319 101.526C74.98 101.526 74.3843 102.119 74.3843 103.128V105.456H73.7886V99.1919H74.3843V101.79C74.7113 101.274 75.2895 100.981 76.037 100.981C77.1116 100.981 77.8533 101.603 77.8533 102.881V102.887Z" fill="#05446B"/>
<path d="M83.3433 103.427H79.6465C79.7166 104.354 80.4174 104.97 81.3869 104.97C81.9241 104.97 82.403 104.776 82.7418 104.389L83.0805 104.776C82.6834 105.251 82.0701 105.503 81.3752 105.503C79.9969 105.503 79.0566 104.559 79.0566 103.239C79.0566 101.919 79.9735 100.987 81.2175 100.987C82.4614 100.987 83.3608 101.908 83.3608 103.239C83.3608 103.292 83.355 103.356 83.355 103.427H83.3433ZM79.6465 102.981H82.7826C82.7067 102.113 82.076 101.503 81.2116 101.503C80.3473 101.503 79.7224 102.113 79.6465 102.981Z" fill="#05446B"/>
<path d="M86.7949 100.993V101.573C86.7423 101.573 86.6956 101.567 86.6547 101.567C85.732 101.567 85.1655 102.16 85.1655 103.204V105.468H84.5698V101.028H85.1422V101.896C85.4225 101.304 85.9831 100.993 86.7949 100.993Z" fill="#05446B"/>
<path d="M91.6768 103.427H87.98C88.0501 104.354 88.7509 104.97 89.7203 104.97C90.2576 104.97 90.7365 104.776 91.0753 104.389L91.414 104.776C91.0169 105.251 90.4036 105.503 89.7087 105.503C88.3304 105.503 87.3901 104.559 87.3901 103.239C87.3901 101.919 88.307 100.987 89.551 100.987C90.7949 100.987 91.6943 101.908 91.6943 103.239C91.6943 103.292 91.6885 103.356 91.6885 103.427H91.6768ZM87.98 102.981H91.1161C91.0402 102.113 90.4095 101.503 89.5451 101.503C88.6808 101.503 88.0559 102.113 87.98 102.981Z" fill="#05446B"/>
<path d="M36.9023 44.3792C33.848 36.3434 29.5671 28.8415 24.1884 22.1665L22.2378 22.8117C26.7989 29.3869 29.6489 36.7364 31.325 44.3792H36.8965H36.9023Z" fill="url(#paint0_linear_23_8076)"/>
<path d="M24.4221 22.811C20.8013 23.6967 16.9993 26.9873 14.6107 31.7618C12.2221 36.5363 11.8542 41.5572 13.3084 45.0061L24.4221 22.811Z" fill="url(#paint1_linear_23_8076)"/>
<path d="M24.4514 22.8932C21.2627 20.9458 16.2635 20.5763 11.2118 22.2538C6.16011 23.9314 2.36987 27.2219 0.962402 30.6943L24.4514 22.8932Z" fill="url(#paint2_linear_23_8076)"/>
<path d="M24.4164 22.8819C23.5346 19.2453 20.2582 15.4268 15.5044 13.0278C10.7505 10.6289 5.75138 10.2593 2.31738 11.7198L24.4164 22.8819Z" fill="url(#paint3_linear_23_8076)"/>
<path d="M23.5869 23.0874C27.0209 21.6328 32.0259 21.9964 36.7739 24.3954C41.5278 26.7944 44.7982 30.6129 45.6859 34.2495L23.5869 23.0874Z" fill="url(#paint4_linear_23_8076)"/>
<path d="M23.6162 23.169C25.0178 19.6966 28.8139 16.4061 33.8656 14.7285C38.9173 13.051 43.9165 13.4264 47.1052 15.3679L23.6162 23.169Z" fill="url(#paint5_linear_23_8076)"/>
<path d="M23.6398 23.1399C22.1915 19.691 22.5536 14.6643 24.9422 9.8956C27.3308 5.12107 31.1327 1.83052 34.7536 0.944824L23.6398 23.1399Z" fill="url(#paint6_linear_23_8076)"/>
<path d="M110.535 71.6188C96.6995 68.0467 77.8767 65.8472 57.1385 65.8472C36.4002 65.8472 17.5774 68.0467 3.74219 71.6188H110.535Z" fill="url(#paint7_linear_23_8076)"/>
<path d="M79.6344 55.4351C75.9785 55.4351 73.0176 58.4089 73.0176 62.0807C73.0176 65.7525 75.9785 68.7322 79.6344 68.7322C83.2904 68.7322 86.2571 65.7525 86.2571 62.0807C86.2571 58.4089 83.2904 55.4351 79.6344 55.4351ZM79.6344 66.3801C77.275 66.3801 75.3595 64.4562 75.3595 62.0807C75.3595 59.7052 77.275 57.7871 79.6344 57.7871C81.9939 57.7871 83.9152 59.711 83.9152 62.0807C83.9152 64.4504 81.9997 66.3801 79.6344 66.3801Z" fill="url(#paint8_linear_23_8076)"/>
<path d="M79.6345 63.2187C80.257 63.2187 80.7616 62.7118 80.7616 62.0866C80.7616 61.4614 80.257 60.9546 79.6345 60.9546C79.012 60.9546 78.5073 61.4614 78.5073 62.0866C78.5073 62.7118 79.012 63.2187 79.6345 63.2187Z" fill="url(#paint9_linear_23_8076)"/>
<path d="M79.6348 60.157C79.9541 60.157 80.213 59.897 80.213 59.5763C80.213 59.2556 79.9541 58.9956 79.6348 58.9956C79.3155 58.9956 79.0566 59.2556 79.0566 59.5763C79.0566 59.897 79.3155 60.157 79.6348 60.157Z" fill="url(#paint10_linear_23_8076)"/>
<path d="M77.4796 60.6326C77.176 60.5328 76.8489 60.7029 76.7496 61.008C76.6503 61.313 76.8197 61.6414 77.1234 61.7411C77.4271 61.8409 77.7541 61.6708 77.8534 61.3657C77.9527 61.0607 77.7833 60.7323 77.4796 60.6326Z" fill="url(#paint11_linear_23_8076)"/>
<path d="M77.6315 63.5764C77.4446 63.8345 77.503 64.1982 77.76 64.3859C78.0169 64.5736 78.379 64.5149 78.5659 64.2568C78.7528 63.9988 78.6944 63.6351 78.4374 63.4474C78.1805 63.2597 77.8184 63.3184 77.6315 63.5764Z" fill="url(#paint12_linear_23_8076)"/>
<path d="M80.4699 64.3389C80.6568 64.597 81.0189 64.6556 81.2758 64.4679C81.5328 64.2802 81.5912 63.9166 81.4043 63.6585C81.2174 63.4004 80.8553 63.3417 80.5984 63.5294C80.3414 63.7171 80.283 64.0808 80.4699 64.3389Z" fill="url(#paint13_linear_23_8076)"/>
<path d="M82.0641 61.8642C82.3678 61.7645 82.5372 61.436 82.4379 61.131C82.3386 60.826 82.0115 60.6559 81.7079 60.7556C81.4042 60.8553 81.2348 61.1838 81.3341 61.4888C81.4334 61.7938 81.7604 61.9639 82.0641 61.8642Z" fill="url(#paint14_linear_23_8076)"/>
<path d="M26.6823 55.4351C23.0264 55.4351 20.0596 58.4089 20.0596 62.0807C20.0596 65.7525 23.0264 68.7322 26.6823 68.7322C30.3382 68.7322 33.2991 65.7525 33.2991 62.0807C33.2991 58.4089 30.3382 55.4351 26.6823 55.4351ZM26.6823 66.3801C24.317 66.3801 22.4015 64.4562 22.4015 62.0807C22.4015 59.7052 24.317 57.7871 26.6823 57.7871C29.0475 57.7871 30.9572 59.711 30.9572 62.0807C30.9572 64.4504 29.0417 66.3801 26.6823 66.3801Z" fill="url(#paint15_linear_23_8076)"/>
<path d="M26.6823 63.2187C27.3048 63.2187 27.8095 62.7118 27.8095 62.0866C27.8095 61.4614 27.3048 60.9546 26.6823 60.9546C26.0598 60.9546 25.5552 61.4614 25.5552 62.0866C25.5552 62.7118 26.0598 63.2187 26.6823 63.2187Z" fill="url(#paint16_linear_23_8076)"/>
<path d="M27.2608 59.5763C27.2608 59.2537 27.0039 58.9956 26.6827 58.9956C26.3615 58.9956 26.1045 59.2537 26.1045 59.5763C26.1045 59.8989 26.3615 60.157 26.6827 60.157C27.0039 60.157 27.2608 59.8989 27.2608 59.5763Z" fill="url(#paint17_linear_23_8076)"/>
<path d="M24.5216 60.6326C24.2179 60.5328 23.8909 60.7029 23.7916 61.008C23.6923 61.313 23.8617 61.6414 24.1654 61.7411C24.4691 61.8409 24.7961 61.6708 24.8954 61.3657C24.9947 61.0607 24.8253 60.7323 24.5216 60.6326Z" fill="url(#paint18_linear_23_8076)"/>
<path d="M24.6793 63.5764C24.4925 63.8345 24.5509 64.1982 24.8078 64.3859C25.0648 64.5736 25.4269 64.5149 25.6138 64.2568C25.8007 63.9988 25.7423 63.6351 25.4853 63.4474C25.2283 63.2597 24.8662 63.3184 24.6793 63.5764Z" fill="url(#paint19_linear_23_8076)"/>
<path d="M27.5119 64.3389C27.6988 64.597 28.0608 64.6556 28.3178 64.4679C28.5748 64.2802 28.6332 63.9166 28.4463 63.6585C28.2594 63.4004 27.8973 63.3417 27.6404 63.5294C27.3834 63.7171 27.325 64.0808 27.5119 64.3389Z" fill="url(#paint20_linear_23_8076)"/>
<path d="M29.112 61.8642C29.4156 61.7645 29.585 61.436 29.4857 61.131C29.3864 60.826 29.0594 60.6559 28.7557 60.7556C28.452 60.8553 28.2827 61.1838 28.3819 61.4888C28.4812 61.7938 28.8083 61.9639 29.112 61.8642Z" fill="url(#paint21_linear_23_8076)"/>
<path d="M101.827 57.4353C98.6909 54.0392 94.2992 52.0859 89.6855 52.0449L26.2851 51.4759L96.5593 50.9128L87.5363 48.5842L77.0591 38.0674C62.2778 32.8588 47.3679 38.0674 47.3679 38.0674L39.3962 46.4609L26.2909 47.1061L22.6292 50.2031L13.3726 51.822V54.6609L16.1992 57.8165V62.6263H17.5541L19.2886 57.2183C19.5105 56.5379 20.1413 56.0686 20.8596 56.0686H32.0493C32.7676 56.0686 33.3983 56.532 33.6203 57.2183L34.5138 59.9985C35.0219 61.5705 36.4761 62.6321 38.1172 62.6321H67.8259C69.467 62.6321 70.927 61.5646 71.4292 59.9985L72.3228 57.2241C72.5447 56.5437 73.1754 56.0745 73.8938 56.0745H85.0835C85.7959 56.0745 86.4325 56.5437 86.6486 57.2241L88.389 62.6321H102.043V57.6992L101.81 57.4411L101.827 57.4353ZM63.2297 38.3313C67.8843 38.3724 72.2761 39.088 76.2707 40.4488L83.9038 48.115H63.2297V38.3313ZM48.1797 40.4546C49.4295 40.0616 54.195 38.6891 60.3972 38.3841V48.115H40.9029L48.1797 40.4546ZM59.0307 39.7566C56.2858 39.8798 53.1788 40.1672 49.6806 40.6892L59.0307 42.5193V39.7566ZM64.3569 43.5692L80.7326 46.7776L75.7918 41.7685C75.7918 41.7685 72.2994 40.0206 64.3569 39.7332V43.5692Z" fill="url(#paint22_linear_23_8076)"/>
<path style="mix-blend-mode:multiply" d="M89.6914 52.045L26.291 51.4761L50.9305 61.1776C53.3542 62.1337 55.9355 62.6205 58.5402 62.6205H67.8435C69.4846 62.6205 70.9446 61.553 71.4469 59.9869L72.3404 57.2125C72.5623 56.5321 73.1931 56.0629 73.9114 56.0629H85.1011C85.8136 56.0629 86.4501 56.5321 86.6662 57.2125L88.4066 62.6205H102.061V57.6876L101.827 57.4296C98.6911 54.0334 94.2993 52.0802 89.6856 52.0392L89.6914 52.045Z" fill="url(#paint23_linear_23_8076)"/>
<path d="M92.851 30.935C92.851 36.3664 90.6435 41.2758 87.0751 44.801L78.3383 36.0321L77.8361 35.8561C73.2282 34.2314 68.1648 33.4102 62.7977 33.4102C59.6207 33.4102 56.7182 33.6976 54.277 34.073C54.1135 33.0524 54.0259 32.0025 54.0259 30.935C54.0259 20.1659 62.716 11.438 73.4385 11.438C84.1609 11.438 92.851 20.1659 92.851 30.935Z" fill="url(#paint24_linear_23_8076)"/>
<path style="mix-blend-mode:multiply" d="M83.4835 14.2476C80.5517 12.4645 77.1177 11.438 73.4385 11.438C62.716 11.438 54.0259 20.1659 54.0259 30.935C54.0259 32.0025 54.1135 33.0524 54.277 34.073C54.277 34.073 89.5922 28.7119 83.4835 14.2476Z" fill="url(#paint25_linear_23_8076)"/>
</g>
<defs>
<linearGradient id="paint0_linear_23_8076" x1="33.0303" y1="42.2617" x2="25.7401" y2="24.1181" gradientUnits="userSpaceOnUse">
<stop stop-color="#00AA86"/>
<stop offset="1" stop-color="#156755"/>
</linearGradient>
<linearGradient id="paint1_linear_23_8076" x1="12.4499" y1="33.9086" x2="24.4221" y2="33.9086" gradientUnits="userSpaceOnUse">
<stop stop-color="#00AA86"/>
<stop offset="1" stop-color="#156755"/>
</linearGradient>
<linearGradient id="paint2_linear_23_8076" x1="0.962402" y1="25.9374" x2="24.4514" y2="25.9374" gradientUnits="userSpaceOnUse">
<stop stop-color="#00AA86"/>
<stop offset="1" stop-color="#156755"/>
</linearGradient>
<linearGradient id="paint3_linear_23_8076" x1="2.31738" y1="16.8698" x2="24.4164" y2="16.8698" gradientUnits="userSpaceOnUse">
<stop stop-color="#00AA86"/>
<stop offset="1" stop-color="#156755"/>
</linearGradient>
<linearGradient id="paint4_linear_23_8076" x1="28.6853" y1="33.3931" x2="51.9186" y2="15.1028" gradientUnits="userSpaceOnUse">
<stop stop-color="#00AA86"/>
<stop offset="1" stop-color="#156755"/>
</linearGradient>
<linearGradient id="paint5_linear_23_8076" x1="23.9491" y1="27.3746" x2="47.1766" y2="9.08422" gradientUnits="userSpaceOnUse">
<stop stop-color="#00AA86"/>
<stop offset="1" stop-color="#156755"/>
</linearGradient>
<linearGradient id="paint6_linear_23_8076" x1="18.226" y1="20.1133" x2="41.4594" y2="1.81714" gradientUnits="userSpaceOnUse">
<stop stop-color="#00AA86"/>
<stop offset="1" stop-color="#156755"/>
</linearGradient>
<linearGradient id="paint7_linear_23_8076" x1="26.0573" y1="40.9422" x2="70.4202" y2="84.3423" gradientUnits="userSpaceOnUse">
<stop stop-color="#287CAF"/>
<stop offset="1" stop-color="#165D91"/>
</linearGradient>
<linearGradient id="paint8_linear_23_8076" x1="41.9014" y1="24.8464" x2="86.2702" y2="68.2465" gradientUnits="userSpaceOnUse">
<stop stop-color="#287CAF"/>
<stop offset="1" stop-color="#165D91"/>
</linearGradient>
<linearGradient id="paint9_linear_23_8076" x1="41.9014" y1="24.8524" x2="86.2702" y2="68.2524" gradientUnits="userSpaceOnUse">
<stop stop-color="#287CAF"/>
<stop offset="1" stop-color="#165D91"/>
</linearGradient>
<linearGradient id="paint10_linear_23_8076" x1="43.1516" y1="23.5739" x2="87.5203" y2="66.9738" gradientUnits="userSpaceOnUse">
<stop stop-color="#287CAF"/>
<stop offset="1" stop-color="#165D91"/>
</linearGradient>
<linearGradient id="paint11_linear_23_8076" x1="41.2008" y1="25.5685" x2="85.5695" y2="68.9686" gradientUnits="userSpaceOnUse">
<stop stop-color="#287CAF"/>
<stop offset="1" stop-color="#165D91"/>
</linearGradient>
<linearGradient id="paint12_linear_23_8076" x1="40.2371" y1="26.5591" x2="84.6001" y2="69.9534" gradientUnits="userSpaceOnUse">
<stop stop-color="#287CAF"/>
<stop offset="1" stop-color="#165D91"/>
</linearGradient>
<linearGradient id="paint13_linear_23_8076" x1="41.5862" y1="25.1689" x2="85.9551" y2="68.5691" gradientUnits="userSpaceOnUse">
<stop stop-color="#287CAF"/>
<stop offset="1" stop-color="#165D91"/>
</linearGradient>
<linearGradient id="paint14_linear_23_8076" x1="43.3908" y1="23.3278" x2="87.7596" y2="66.7278" gradientUnits="userSpaceOnUse">
<stop stop-color="#287CAF"/>
<stop offset="1" stop-color="#165D91"/>
</linearGradient>
<linearGradient id="paint15_linear_23_8076" x1="15.8956" y1="51.4348" x2="60.2643" y2="94.8348" gradientUnits="userSpaceOnUse">
<stop stop-color="#287CAF"/>
<stop offset="1" stop-color="#165D91"/>
</linearGradient>
<linearGradient id="paint16_linear_23_8076" x1="15.8956" y1="51.4407" x2="60.2585" y2="94.8408" gradientUnits="userSpaceOnUse">
<stop stop-color="#287CAF"/>
<stop offset="1" stop-color="#165D91"/>
</linearGradient>
<linearGradient id="paint17_linear_23_8076" x1="17.1457" y1="50.1622" x2="61.5086" y2="93.5622" gradientUnits="userSpaceOnUse">
<stop stop-color="#287CAF"/>
<stop offset="1" stop-color="#165D91"/>
</linearGradient>
<linearGradient id="paint18_linear_23_8076" x1="15.195" y1="52.1569" x2="59.5579" y2="95.557" gradientUnits="userSpaceOnUse">
<stop stop-color="#287CAF"/>
<stop offset="1" stop-color="#165D91"/>
</linearGradient>
<linearGradient id="paint19_linear_23_8076" x1="14.2255" y1="53.1417" x2="58.5944" y2="96.5417" gradientUnits="userSpaceOnUse">
<stop stop-color="#287CAF"/>
<stop offset="1" stop-color="#165D91"/>
</linearGradient>
<linearGradient id="paint20_linear_23_8076" x1="15.5805" y1="51.7573" x2="59.9494" y2="95.1574" gradientUnits="userSpaceOnUse">
<stop stop-color="#287CAF"/>
<stop offset="1" stop-color="#165D91"/>
</linearGradient>
<linearGradient id="paint21_linear_23_8076" x1="17.385" y1="49.9161" x2="61.7479" y2="93.3162" gradientUnits="userSpaceOnUse">
<stop stop-color="#287CAF"/>
<stop offset="1" stop-color="#165D91"/>
</linearGradient>
<linearGradient id="paint22_linear_23_8076" x1="33.1239" y1="33.8207" x2="77.4926" y2="77.2208" gradientUnits="userSpaceOnUse">
<stop stop-color="#287CAF"/>
<stop offset="1" stop-color="#165D91"/>
</linearGradient>
<linearGradient id="paint23_linear_23_8076" x1="65.817" y1="56.0746" x2="45.2309" y2="68.2551" gradientUnits="userSpaceOnUse">
<stop stop-color="white"/>
<stop offset="1" stop-color="#165D91"/>
</linearGradient>
<linearGradient id="paint24_linear_23_8076" x1="75.0036" y1="17.5909" x2="72.9184" y2="35.2381" gradientUnits="userSpaceOnUse">
<stop stop-color="#F9D730"/>
<stop offset="0.57" stop-color="#F9C430"/>
<stop offset="1" stop-color="#F9BB30"/>
</linearGradient>
<linearGradient id="paint25_linear_23_8076" x1="66.5179" y1="21.339" x2="78.3279" y2="35.3012" gradientUnits="userSpaceOnUse">
<stop stop-color="white"/>
<stop offset="0.03" stop-color="#FEFBF7"/>
<stop offset="0.29" stop-color="#FCD7B1"/>
<stop offset="0.53" stop-color="#FBBA79"/>
<stop offset="0.74" stop-color="#F9A651"/>
<stop offset="0.9" stop-color="#F99939"/>
<stop offset="1" stop-color="#F99530"/>
</linearGradient>
<clipPath id="clip0_23_8076">
<rect width="109.572" height="106.201" fill="white" transform="translate(0.962402 0.944824)"/>
</clipPath>
</defs>
</svg>
