<svg width="82" height="89" viewBox="0 0 82 89" fill="none" xmlns="http://www.w3.org/2000/svg">
<g clip-path="url(#clip0_23_8028)">
<path d="M3.82212 67.6733V67.9078H3.11075V71.7712H5.55248V67.9078H4.82669V67.6733H8.66714V67.9078H7.94615V76.1573H8.66714V76.3918H4.82669V76.1573H5.55248V72.0936H3.11075V76.1573H3.82212V76.3918H-0.00390625V76.1573H0.717078V67.9078H-0.00390625V67.6733H3.82212Z" fill="#05446B"/>
<path d="M13.3293 73.4661H10.902L9.95992 76.1574H10.878V76.3918H9.00342V76.1574H9.58021L12.7093 67.5952H13.7139L16.8045 76.1574H17.3668V76.3918H13.3582V76.1574H14.2282L13.3341 73.4661H13.3293ZM11.0078 73.1926H13.2284L12.1613 69.9299L11.0078 73.1926Z" fill="#05446B"/>
<path d="M23.077 67.9078H22.1205V67.6733H23.9951V67.9078H23.4183L20.4622 76.5188H19.4336L16.3046 67.9078H15.7422V67.6733H19.7509V67.9078H18.8809L20.9429 74.1401L23.077 67.9078Z" fill="#05446B"/>
<path d="M26.634 73.4661H24.2067L23.2646 76.1574H24.1827V76.3918H22.3081V76.1574H22.8849L26.014 67.5952H27.0185L30.1092 76.1574H30.6715V76.3918H26.6629V76.1574H27.5328L26.6388 73.4661H26.634ZM24.3172 73.1926H26.5379L25.4708 69.9299L24.3172 73.1926Z" fill="#05446B"/>
<path d="M37.9775 76.3918H36.2615L32.0558 68.3278V76.1524H32.7287V76.3869H31.0464V76.1524H31.7193V67.9029H31.0464V67.6685H34.4302L37.641 73.9252V67.9078H36.9681V67.6733H38.6504V67.9078H37.9775V76.3918Z" fill="#05446B"/>
<path d="M42.9958 73.4661H40.5685L39.6264 76.1574H40.5445V76.3918H38.6699V76.1574H39.2467L42.3758 67.5952H43.3804L46.471 76.1574H47.0333V76.3918H43.0247V76.1574H43.8947L43.0006 73.4661H42.9958ZM40.6791 73.1926H42.8997L41.8326 69.9299L40.6791 73.1926Z" fill="#05446B"/>
<path d="M52.3157 71.5075V72.4942C52.3157 74.7849 52.9646 76.2697 54.3008 76.2697C55.2957 76.2697 56.0888 75.2245 56.7762 73.6029H56.9973L56.9107 76.382H56.7762C56.6896 76.2209 56.6416 76.1329 56.4445 76.1329C56.0263 76.1329 55.3534 76.5188 54.0028 76.5188C51.4024 76.5188 49.8066 75.1219 49.8066 72.1425C49.8066 69.1631 51.5226 67.5317 54.0364 67.5317C55.3102 67.5317 55.9014 67.9176 56.3291 67.9176C56.5262 67.9176 56.5743 67.8297 56.6608 67.6685H56.7954L56.8915 70.3744H56.6704C55.9975 68.8407 55.2621 67.7808 54.2046 67.7808C52.9646 67.7808 52.3061 68.9286 52.3061 71.5075H52.3157Z" fill="#05446B"/>
<path d="M64.6538 73.5394V67.9078H63.8559V67.6733H65.644V67.9078H64.971V73.4514C64.971 75.371 64.3462 76.5188 61.8323 76.5188C59.8328 76.5188 58.4005 75.7959 58.4005 73.3147V67.9078H57.7275V67.6733H61.592V67.9078H60.7941V73.7396C60.7941 75.1121 61.1114 76.1085 62.6206 76.1085C63.8607 76.1085 64.6586 75.3221 64.6586 73.5394H64.6538Z" fill="#05446B"/>
<path d="M69.7729 67.6733C71.931 67.6733 73.1807 68.1715 73.1807 69.715C73.1807 70.9116 72.4453 71.5466 71.1572 71.7566V71.781C72.7001 71.9813 73.6085 72.6406 73.6085 73.9496C73.6085 75.8838 72.0127 76.3918 69.7104 76.3918H66.1055V76.1573H66.9034V67.9078H66.1055V67.6733H69.7729ZM69.2922 71.7468H69.6095C70.4939 71.7468 70.7486 71.1754 70.7486 70.1497V69.5636C70.7486 68.3669 70.5419 67.9078 69.6816 67.9078H69.2874V71.7468H69.2922ZM69.2922 76.1573H69.869C70.8111 76.1573 71.0851 75.4345 71.0851 74.2866V73.6273C71.0851 72.6065 70.7678 71.9813 69.5758 71.9813H69.2922V76.1573Z" fill="#05446B"/>
<path d="M77.9636 73.4661H75.5363L74.5942 76.1574H75.5123V76.3918H73.6377V76.1574H74.2145L77.3436 67.5952H78.3481L81.4387 76.1574H82.0011V76.3918H77.9924V76.1574H78.8624L77.9684 73.4661H77.9636ZM75.6468 73.1926H77.8675L76.8004 69.9299L75.6468 73.1926Z" fill="#05446B"/>
<path d="M11.8926 86.2232L12.1137 85.8275C12.4021 86.0571 12.8972 86.2427 13.4066 86.2427C14.0988 86.2427 14.3824 86.0034 14.3824 85.637C14.3824 84.6748 12.0224 85.4319 12.0224 83.9715C12.0224 83.3659 12.5319 82.9165 13.4595 82.9165C13.9306 82.9165 14.4401 83.0484 14.7477 83.2633L14.5314 83.6638C14.2141 83.4391 13.8344 83.3463 13.4595 83.3463C12.801 83.3463 12.5126 83.6052 12.5126 83.9569C12.5126 84.9532 14.8726 84.2011 14.8726 85.6224C14.8726 86.2622 14.3199 86.6774 13.373 86.6774C12.7722 86.6774 12.1906 86.482 11.8926 86.2183V86.2232Z" fill="#05446B"/>
<path d="M15.7812 81.4321H16.2715V86.6485H15.7812V81.4321Z" fill="#05446B"/>
<path d="M17.2759 84.797C17.2759 83.698 18.0642 82.9214 19.1312 82.9214C20.1983 82.9214 20.9769 83.7029 20.9769 84.797C20.9769 85.891 20.1935 86.6823 19.1312 86.6823C18.069 86.6823 17.2759 85.8959 17.2759 84.797ZM20.4771 84.797C20.4771 83.9324 19.9051 83.3561 19.1264 83.3561C18.3477 83.3561 17.771 83.9324 17.771 84.797C17.771 85.6615 18.3525 86.2378 19.1264 86.2378C19.9003 86.2378 20.4771 85.6615 20.4771 84.797Z" fill="#05446B"/>
<path d="M25.346 82.9507V86.1987C25.346 87.4686 24.7308 88.045 23.5291 88.045C22.8658 88.045 22.217 87.8398 21.8324 87.4735L22.0824 87.0926C22.4284 87.41 22.9524 87.6005 23.5147 87.6005C24.4328 87.6005 24.8558 87.1707 24.8558 86.2573V85.7885C24.5529 86.2573 24.0338 86.5064 23.4378 86.5064C22.3996 86.5064 21.6113 85.7689 21.6113 84.709C21.6113 83.6491 22.3996 82.9263 23.4378 82.9263C24.0483 82.9263 24.5722 83.1802 24.875 83.6638V82.9556H25.346V82.9507ZM24.8702 84.7041C24.8702 83.9031 24.2886 83.3561 23.4859 83.3561C22.6832 83.3561 22.1112 83.9031 22.1112 84.7041C22.1112 85.5052 22.6832 86.062 23.4859 86.062C24.2886 86.062 24.8702 85.5052 24.8702 84.7041Z" fill="#05446B"/>
<path d="M29.4702 84.3574V86.6481H28.9992V86.0717C28.7781 86.4527 28.3503 86.6823 27.7495 86.6823C26.9275 86.6823 26.4229 86.2476 26.4229 85.6077C26.4229 85.0363 26.7833 84.5625 27.8264 84.5625H28.9799V84.3378C28.9799 83.7078 28.6291 83.361 27.9513 83.361C27.4803 83.361 27.0381 83.5319 26.7401 83.7957L26.519 83.4245C26.8843 83.107 27.4226 82.9263 27.9994 82.9263C28.9415 82.9263 29.475 83.4049 29.475 84.3622L29.4702 84.3574ZM28.9799 85.5345V84.9288H27.8408C27.1342 84.9288 26.9083 85.2121 26.9083 85.5882C26.9083 86.018 27.2496 86.2818 27.8264 86.2818C28.4032 86.2818 28.7877 86.0131 28.9799 85.5296V85.5345Z" fill="#05446B"/>
<path d="M34.152 84.5039V86.6481H33.6617V84.5527C33.6617 83.7713 33.2628 83.3707 32.5706 83.3707C31.7872 83.3707 31.2969 83.8641 31.2969 84.7042V86.6432H30.8066V82.9458H31.2777V83.6296C31.542 83.1803 32.0323 82.9214 32.662 82.9214C33.5464 82.9214 34.1568 83.4391 34.1568 84.5039H34.152Z" fill="#05446B"/>
<path d="M40.6649 82.9507V86.1987C40.6649 87.4686 40.0496 88.045 38.848 88.045C38.1847 88.045 37.5358 87.8398 37.1513 87.4735L37.4012 87.0926C37.7473 87.41 38.2712 87.6005 38.8336 87.6005C39.7516 87.6005 40.1746 87.1707 40.1746 86.2573V85.7885C39.8718 86.2573 39.3527 86.5064 38.7567 86.5064C37.7185 86.5064 36.9302 85.7689 36.9302 84.709C36.9302 83.6491 37.7185 82.9263 38.7567 82.9263C39.3671 82.9263 39.891 83.1802 40.1938 83.6638V82.9556H40.6649V82.9507ZM40.189 84.7041C40.189 83.9031 39.6074 83.3561 38.8047 83.3561C38.002 83.3561 37.4301 83.9031 37.4301 84.7041C37.4301 85.5052 38.002 86.062 38.8047 86.062C39.6074 86.062 40.189 85.5052 40.189 84.7041Z" fill="#05446B"/>
<path d="M41.6787 84.797C41.6787 83.698 42.467 82.9214 43.534 82.9214C44.6011 82.9214 45.3798 83.7029 45.3798 84.797C45.3798 85.891 44.5963 86.6823 43.534 86.6823C42.4718 86.6823 41.6787 85.8959 41.6787 84.797ZM44.8799 84.797C44.8799 83.9324 44.3079 83.3561 43.5292 83.3561C42.7506 83.3561 42.1738 83.9324 42.1738 84.797C42.1738 85.6615 42.7554 86.2378 43.5292 86.2378C44.3031 86.2378 44.8799 85.6615 44.8799 84.797Z" fill="#05446B"/>
<path d="M49.5471 84.9532H46.5045C46.5622 85.725 47.139 86.2378 47.9369 86.2378C48.3791 86.2378 48.7732 86.0766 49.052 85.7543L49.3308 86.0766C49.0039 86.4723 48.4992 86.6823 47.9272 86.6823C46.7929 86.6823 46.019 85.8959 46.019 84.797C46.019 83.698 46.7737 82.9214 47.7975 82.9214C48.8213 82.9214 49.5615 83.6882 49.5615 84.797C49.5615 84.8409 49.5567 84.8946 49.5567 84.9532H49.5471ZM46.5045 84.582H49.0856C49.0231 83.8592 48.504 83.3512 47.7927 83.3512C47.0813 83.3512 46.567 83.8592 46.5045 84.582Z" fill="#05446B"/>
<path d="M50.0518 86.2232L50.2729 85.8275C50.5613 86.0571 51.0563 86.2427 51.5658 86.2427C52.258 86.2427 52.5416 86.0034 52.5416 85.637C52.5416 84.6748 50.1815 85.4319 50.1815 83.9715C50.1815 83.3659 50.6958 82.9165 51.6187 82.9165C52.0897 82.9165 52.5992 83.0484 52.9069 83.2633L52.6906 83.6638C52.3733 83.4391 51.9936 83.3463 51.6187 83.3463C50.9602 83.3463 50.6718 83.6052 50.6718 83.9569C50.6718 84.9532 53.0318 84.2011 53.0318 85.6224C53.0318 86.2622 52.4791 86.6774 51.5322 86.6774C50.9314 86.6774 50.3498 86.482 50.0518 86.2183V86.2232Z" fill="#05446B"/>
<path d="M59.0978 84.5043V86.6485H58.6075V84.5532C58.6075 83.7717 58.2086 83.3712 57.5164 83.3712C56.733 83.3712 56.2427 83.8645 56.2427 84.7046V86.6437H55.7524V81.4272H56.2427V83.591C56.5119 83.1612 56.9877 82.917 57.603 82.917C58.4874 82.917 59.0978 83.4347 59.0978 84.4995V84.5043Z" fill="#05446B"/>
<path d="M63.6159 84.9532H60.5734C60.631 85.725 61.2078 86.2378 62.0057 86.2378C62.4479 86.2378 62.8421 86.0766 63.1208 85.7543L63.3996 86.0766C63.0728 86.4723 62.5681 86.6823 61.9961 86.6823C60.8618 86.6823 60.0879 85.8959 60.0879 84.797C60.0879 83.698 60.8425 82.9214 61.8663 82.9214C62.8901 82.9214 63.6303 83.6882 63.6303 84.797C63.6303 84.8409 63.6255 84.8946 63.6255 84.9532H63.6159ZM60.5734 84.582H63.1545C63.092 83.8592 62.5729 83.3512 61.8615 83.3512C61.1501 83.3512 60.6358 83.8592 60.5734 84.582Z" fill="#05446B"/>
<path d="M66.4567 82.9214V83.4049C66.4135 83.4049 66.375 83.4001 66.3366 83.4001C65.5771 83.4001 65.1109 83.8934 65.1109 84.7628V86.6481H64.6206V82.9507H65.0916V83.6736C65.3176 83.1803 65.7838 82.9214 66.4519 82.9214H66.4567Z" fill="#05446B"/>
<path d="M70.4748 84.9532H67.4322C67.4899 85.725 68.0667 86.2378 68.8646 86.2378C69.3068 86.2378 69.7009 86.0766 69.9797 85.7543L70.2585 86.0766C69.9317 86.4723 69.427 86.6823 68.855 86.6823C67.7206 86.6823 66.9468 85.8959 66.9468 84.797C66.9468 83.698 67.7014 82.9214 68.7252 82.9214C69.749 82.9214 70.4892 83.6882 70.4892 84.797C70.4892 84.8409 70.4844 84.8946 70.4844 84.9532H70.4748ZM67.4322 84.582H70.0134C69.9509 83.8592 69.4318 83.3512 68.7204 83.3512C68.009 83.3512 67.4947 83.8592 67.4322 84.582Z" fill="#05446B"/>
<path d="M19.9384 48.5948L31.0897 46.6265C30.5994 49.4007 30.2149 52.0431 29.9024 54.4755L20.0394 56.2143C18.0879 56.4146 16.5498 55.0274 16.5498 53.0053C16.5498 50.9832 18.035 49.1174 19.9384 48.5899V48.5948Z" fill="url(#paint0_linear_23_8028)"/>
<path d="M72.8057 44.1257C72.8057 46.1429 71.2724 48.0722 69.3209 48.5655C69.2248 48.59 69.1286 48.6144 69.0325 48.629C68.9316 48.6486 68.8402 48.6584 68.7441 48.6681L48.1191 52.3069L49.9841 47.5252C52.3537 46.309 54.4734 44.8535 56.3528 43.2173L68.6432 41.0486C68.773 41.0145 68.8979 40.9803 69.0325 40.9558C69.1623 40.9314 69.2921 40.9168 69.417 40.9119C71.3204 40.7702 72.8057 42.1427 72.8057 44.1306V44.1257Z" fill="url(#paint1_linear_23_8028)"/>
<path d="M24.1008 51.6765C24.1008 53.6986 22.5675 55.623 20.6161 56.1163C20.52 56.1408 20.419 56.1652 20.3229 56.1798C20.2268 56.1945 20.1306 56.2091 20.0345 56.2189C18.083 56.4143 16.5449 55.0271 16.5449 53.0099C16.5449 50.9927 18.0302 49.1269 19.9384 48.5945C20.0681 48.5604 20.1931 48.5262 20.3229 48.5066C20.4527 48.4822 20.5824 48.4676 20.7074 48.4578C22.6108 48.3161 24.1008 49.6886 24.1008 51.6765Z" fill="url(#paint2_linear_23_8028)"/>
<path d="M48.4943 45.9333L39.8184 58.6617L32.9883 59.7607L33.3247 54.935C33.3247 54.935 57.1893 42.1577 56.7375 17.3993C56.675 13.9462 50.3688 14.9767 48.0473 13.5212C48.2828 13.2233 48.5135 12.9351 48.7586 12.6421C49.1816 12.1341 49.1047 11.1621 48.8548 10.1608C47.6195 5.25703 51.4311 -0.0424042 56.4155 0.0455128C56.5741 0.0455128 56.7279 0.0552814 56.8913 0.0601656C62.4141 0.328801 62.8467 4.31437 62.4766 7.05445C62.2122 9.03747 62.3179 11.0547 62.7505 13.0084C64.6732 21.6975 61.5441 40.0673 48.4943 45.9333Z" fill="url(#paint3_linear_23_8028)"/>
<path style="mix-blend-mode:multiply" d="M48.8549 10.1657C49.1096 11.167 49.1817 12.139 48.7587 12.6469C48.5136 12.94 48.2829 13.2282 48.0474 13.5261C48.206 13.6238 48.3838 13.7117 48.5761 13.7899C50.7438 14.6739 53.2577 13.8387 54.5699 11.8752C55.9494 9.80429 57.5884 8.49042 60.5733 7.94827L62.5055 6.82488C62.5055 6.79558 62.5103 6.76627 62.5151 6.73208C62.5344 6.56113 62.5488 6.3853 62.5584 6.20947C62.5584 6.16062 62.5584 6.11178 62.5632 6.06294C62.5728 5.86757 62.5728 5.6722 62.568 5.47194C62.568 5.44263 62.568 5.40844 62.568 5.37914C62.5632 5.16912 62.544 4.95421 62.5199 4.74418C62.5199 4.72465 62.5199 4.70511 62.5151 4.68557C62.5151 4.6758 62.5151 4.66603 62.5151 4.65627C62.4863 4.43159 62.4478 4.2118 62.3998 3.98712C62.2892 3.50358 62.1162 3.03469 61.871 2.5951C61.1116 1.24216 59.6264 0.201807 56.8962 0.0699313C56.7328 0.065047 56.579 0.0552784 56.4204 0.0552784C51.436 -0.0326385 47.6244 5.2668 48.8597 10.1755L48.8549 10.1657Z" fill="url(#paint4_linear_23_8028)"/>
<path d="M61.8662 2.59033C61.8662 2.59033 61.8181 6.28284 60.5732 7.94838C60.5732 7.94838 64.63 9.062 68.134 6.33169C68.134 6.33169 66.7641 3.40112 61.8662 2.59033Z" fill="url(#paint5_linear_23_8028)"/>
<path d="M54.1133 16.7103C50.8688 16.4807 49.0904 16.0412 45.6441 13.9556C31.3686 24.403 33.0172 41.8692 33.7575 52.4876C52.4598 42.9047 57.8191 16.9692 54.1133 16.7103Z" fill="url(#paint6_linear_23_8028)"/>
<path d="M57.1891 6.05783C57.8289 6.05783 58.3475 5.53082 58.3475 4.88072C58.3475 4.23062 57.8289 3.70361 57.1891 3.70361C56.5494 3.70361 56.0308 4.23062 56.0308 4.88072C56.0308 5.53082 56.5494 6.05783 57.1891 6.05783Z" fill="white"/>
<path d="M30.3446 42.3874C30.3446 42.3874 31.0992 37.2003 32.1951 31.896C32.9113 28.433 34.5552 24.9212 33.5266 22.7624C32.2336 20.0565 26.9608 17.9025 26.6916 17.8146C26.8262 17.9025 28.9892 19.3678 29.042 23.8272C29.0997 28.3305 25.6198 30.1132 27.105 27.339C28.595 24.5647 27.129 20.9405 25.6198 18.5131C24.1057 16.0856 19.4193 17.0185 19.4193 17.0185C24.8315 22.7233 20.5969 26.831 21.0103 24.423C21.289 22.821 19.6692 18.9087 17.3477 17.8586C15.3241 16.9452 10.979 19.7976 9.88306 20.5596C9.51776 21.8588 8.20076 26.9433 9.69079 28.6089C11.4019 30.5284 15.5596 30.8605 16.9727 30.0986C19.0972 28.9459 16.5786 34.3137 9.5514 30.8752C9.5514 30.8752 10.1474 35.6959 12.892 36.3944C15.6317 37.0928 19.4818 37.3664 21.6063 35.0708C23.7308 32.7654 23.154 36.6826 18.929 38.0355C14.6079 39.4178 12.5651 37.635 12.5651 37.635C12.5651 37.635 16.3046 42.8514 19.3328 42.6902C22.3609 42.5339 25.788 38.6363 26.4273 37.6203C27.0665 36.6093 28.3162 37.5715 25.5909 40.5021C22.8464 43.4522 19.5202 44.1409 19.5202 44.1409C19.5202 44.1409 27.0761 48.356 29.6717 43.7062C29.9312 43.2422 30.1571 42.8026 30.3446 42.3874Z" fill="url(#paint7_linear_23_8028)"/>
<path d="M31.8873 33.4394C31.9883 32.9266 32.0892 32.4137 32.1998 31.896C32.9159 28.433 34.5598 24.9163 33.5312 22.7624C32.2382 20.0565 26.9654 17.9025 26.6963 17.8146C26.8308 17.9025 28.9938 19.3678 29.0467 23.8272C29.1043 28.3305 25.6244 30.1132 27.1096 27.339C28.5997 24.5647 27.1336 20.9405 25.6244 18.5131C24.1103 16.0856 19.4239 17.0185 19.4239 17.0185C24.8361 22.7233 20.6015 26.831 21.0149 24.423C21.2937 22.821 19.6739 18.9087 17.3523 17.8586C15.3287 16.9452 10.9836 19.7976 9.8877 20.5596C9.8877 20.5596 20.8659 31.8911 31.8873 33.4492V33.4394Z" fill="url(#paint8_linear_23_8028)"/>
<path d="M54.113 16.7104C54.113 16.7104 54.089 16.7104 54.0794 16.7104C51.8732 16.5541 49.6958 17.3405 48.1289 18.923C38.0303 29.1409 33.7524 52.4878 33.7524 52.4878C52.4548 42.9048 57.8141 16.9693 54.1082 16.7104H54.113Z" fill="url(#paint9_linear_23_8028)"/>
</g>
<defs>
<linearGradient id="paint0_linear_23_8028" x1="43.0698" y1="48.0049" x2="58.5705" y2="52.184" gradientUnits="userSpaceOnUse">
<stop stop-color="#F9D730"/>
<stop offset="0.57" stop-color="#F9C430"/>
<stop offset="1" stop-color="#F9BB30"/>
</linearGradient>
<linearGradient id="paint1_linear_23_8028" x1="68.0296" y1="45.5445" x2="92.6181" y2="41.3432" gradientUnits="userSpaceOnUse">
<stop stop-color="#F9D730"/>
<stop offset="0.57" stop-color="#F9C430"/>
<stop offset="1" stop-color="#F9BB30"/>
</linearGradient>
<linearGradient id="paint2_linear_23_8028" x1="36.345" y1="46.7126" x2="42.91" y2="51.359" gradientUnits="userSpaceOnUse">
<stop stop-color="#F9D730"/>
<stop offset="0.57" stop-color="#F9C430"/>
<stop offset="1" stop-color="#F9BB30"/>
</linearGradient>
<linearGradient id="paint3_linear_23_8028" x1="32.9931" y1="29.9031" x2="63.2696" y2="29.9031" gradientUnits="userSpaceOnUse">
<stop stop-color="#287CAF"/>
<stop offset="1" stop-color="#165D91"/>
</linearGradient>
<linearGradient id="paint4_linear_23_8028" x1="52.6617" y1="5.20819" x2="57.1038" y2="10.4424" gradientUnits="userSpaceOnUse">
<stop stop-color="white"/>
<stop offset="1" stop-color="#165D91"/>
</linearGradient>
<linearGradient id="paint5_linear_23_8028" x1="60.5732" y1="5.37925" x2="68.134" y2="5.37925" gradientUnits="userSpaceOnUse">
<stop stop-color="#F9D730"/>
<stop offset="0.57" stop-color="#F9C430"/>
<stop offset="1" stop-color="#F9BB30"/>
</linearGradient>
<linearGradient id="paint6_linear_23_8028" x1="33.5971" y1="32.8853" x2="52.9066" y2="33.9061" gradientUnits="userSpaceOnUse">
<stop stop-color="#00AA86"/>
<stop offset="1" stop-color="#156755"/>
</linearGradient>
<linearGradient id="paint7_linear_23_8028" x1="26.2254" y1="33.2831" x2="47.3272" y2="53.1415" gradientUnits="userSpaceOnUse">
<stop stop-color="#00AA86"/>
<stop offset="1" stop-color="#156755"/>
</linearGradient>
<linearGradient id="paint8_linear_23_8028" x1="29.1332" y1="19.7927" x2="17.7524" y2="29.4199" gradientUnits="userSpaceOnUse">
<stop stop-color="#00AA86"/>
<stop offset="1" stop-color="#156755"/>
</linearGradient>
<linearGradient id="paint9_linear_23_8028" x1="48.6768" y1="38.3917" x2="38.7431" y2="30.5128" gradientUnits="userSpaceOnUse">
<stop stop-color="#00AA86"/>
<stop offset="1" stop-color="#156755"/>
</linearGradient>
<clipPath id="clip0_23_8028">
<rect width="82" height="88" fill="white" transform="translate(-0.00390625 0.0454102)"/>
</clipPath>
</defs>
</svg>
