<svg width="81" height="88" viewBox="0 0 81 88" fill="none" xmlns="http://www.w3.org/2000/svg">
<g clip-path="url(#clip0_23_8249)">
<path d="M10.4479 72.2271V73.141C10.4479 75.2628 11.0575 76.6382 12.3128 76.6382C13.2474 76.6382 13.9925 75.67 14.6382 74.168H14.8459L14.7646 76.7422H14.6382C14.5569 76.5929 14.5118 76.5115 14.3266 76.5115C13.9338 76.5115 13.3016 76.8689 12.0328 76.8689C9.58995 76.8689 8.09082 75.575 8.09082 72.8153C8.09082 70.0555 9.70283 68.5444 12.0644 68.5444C13.261 68.5444 13.8164 68.9018 14.2183 68.9018C14.4034 68.9018 14.4486 68.8204 14.5298 68.6711H14.6563L14.7466 71.1775H14.5389C13.9067 69.7569 13.2158 68.7752 12.2224 68.7752C11.0575 68.7752 10.4388 69.8383 10.4388 72.2271H10.4479Z" fill="#05446B"/>
<path d="M22.039 74.1088V68.8925H21.2894V68.6753H22.9692V68.8925H22.337V74.0274C22.337 75.8054 21.75 76.8686 19.3884 76.8686C17.51 76.8686 16.1644 76.199 16.1644 73.9007V68.8925H15.5322V68.6753H19.1626V68.8925H18.4131V74.2943C18.4131 75.5656 18.7111 76.4886 20.1289 76.4886C21.2939 76.4886 22.0435 75.7602 22.0435 74.1088H22.039Z" fill="#05446B"/>
<path d="M26.8432 68.6753C28.8707 68.6753 30.0447 69.1368 30.0447 70.5664C30.0447 71.6748 29.3538 72.263 28.1437 72.4575V72.4801C29.5931 72.6656 30.4465 73.2764 30.4465 74.4889C30.4465 76.2804 28.9474 76.751 26.7845 76.751H23.3979V76.5338H24.1475V68.8925H23.3979V68.6753H26.8432ZM26.3962 72.4485H26.6942C27.5251 72.4485 27.7644 71.9191 27.7644 70.9691V70.4262C27.7644 69.3177 27.5702 68.8925 26.762 68.8925H26.3917V72.4485H26.3962ZM26.3962 76.5338H26.9381C27.8231 76.5338 28.0805 75.8642 28.0805 74.801V74.1903C28.0805 73.2447 27.7824 72.6656 26.6626 72.6656H26.3962V76.5338Z" fill="#05446B"/>
<path d="M34.5424 74.0411H32.2621L31.3771 76.5339H32.2395V76.7511H30.4785V76.5339H31.0204L33.9599 68.603H34.9036L37.8071 76.5339H38.3354V76.7511H34.5695V76.5339H35.3868L34.5469 74.0411H34.5424ZM32.3615 73.7877H34.4476L33.4452 70.7656L32.3615 73.7877Z" fill="#05446B"/>
<path d="M44.8644 68.6753V68.9286H43.6407V76.5021H44.0561C45.483 76.5021 46.1197 75.4616 46.797 74.0545H47.0409L46.8241 76.7555H40.7192V76.5021H41.3966V68.9286H40.7192V68.6753H44.8644Z" fill="#05446B"/>
<path d="M51.6377 68.5483C54.1166 68.5483 55.3719 70.073 55.3719 72.6925C55.3719 75.312 54.1618 76.8728 51.5022 76.8728C48.8426 76.8728 47.7002 75.3844 47.7002 72.8463C47.7002 70.3082 49.0729 68.5529 51.6422 68.5529L51.6377 68.5483ZM52.9968 72.3306C52.9968 69.9644 52.9291 68.7881 51.5473 68.7881C50.1656 68.7881 50.0618 70.0097 50.0618 72.3758V73.2082C50.0618 75.3799 50.2017 76.624 51.5473 76.624C52.893 76.624 52.9968 75.5065 52.9968 73.1856V72.3306Z" fill="#05446B"/>
<path d="M61.2107 75.724V73.4845H60.4746V73.2311H63.7935V73.4845H63.3419V76.7374H63.1704C63.0304 76.5428 62.9039 76.4478 62.5833 76.4478C62.1228 76.4478 61.2603 76.864 60.2579 76.864C57.815 76.864 56.3159 75.5701 56.3159 72.8104C56.3159 70.0506 57.9279 68.5396 60.2895 68.5396C61.4861 68.5396 62.1092 68.897 62.5111 68.897C62.6962 68.897 62.7414 68.8155 62.8227 68.6662H62.9491L63.0394 71.1726H62.8317C62.186 69.8787 61.4364 68.7703 60.425 68.7703C59.2826 68.7703 58.6639 69.8335 58.6639 72.2222V73.1361C58.6639 75.4796 59.2735 76.6333 60.3347 76.6333C61.1429 76.6333 61.2107 76.3121 61.2107 75.7194V75.724Z" fill="#05446B"/>
<path d="M68.435 68.5483C70.914 68.5483 72.1693 70.073 72.1693 72.6925C72.1693 75.312 70.9592 76.8728 68.2996 76.8728C65.64 76.8728 64.4976 75.3844 64.4976 72.8463C64.4976 70.3082 65.8703 68.5529 68.4395 68.5529L68.435 68.5483ZM69.7942 72.3306C69.7942 69.9644 69.7264 68.7881 68.3447 68.7881C66.963 68.7881 66.8591 70.0097 66.8591 72.3758V73.2082C66.8591 75.3799 66.9991 76.624 68.3447 76.624C69.6903 76.624 69.7942 75.5065 69.7942 73.1856V72.3306Z" fill="#05446B"/>
<path d="M12.8818 85.8583L13.0895 85.4918C13.3605 85.7045 13.8256 85.8764 14.3042 85.8764C14.9544 85.8764 15.2208 85.6547 15.2208 85.3154C15.2208 84.4241 13.0038 85.1254 13.0038 83.7726C13.0038 83.2116 13.4824 82.7954 14.3539 82.7954C14.7964 82.7954 15.275 82.9176 15.564 83.1166L15.3608 83.4876C15.0628 83.2795 14.7061 83.1935 14.3539 83.1935C13.7353 83.1935 13.4643 83.4333 13.4643 83.7591C13.4643 84.682 15.6814 83.9853 15.6814 85.3018C15.6814 85.8945 15.1621 86.279 14.2726 86.279C13.7082 86.279 13.1618 86.0981 12.8818 85.8538V85.8583Z" fill="#05446B"/>
<path d="M16.5347 81.4204H16.9952V86.2522H16.5347V81.4204Z" fill="#05446B"/>
<path d="M17.939 84.5376C17.939 83.5196 18.6795 82.8003 19.6819 82.8003C20.6844 82.8003 21.4159 83.5242 21.4159 84.5376C21.4159 85.551 20.6798 86.2839 19.6819 86.2839C18.684 86.2839 17.939 85.5555 17.939 84.5376ZM20.9462 84.5376C20.9462 83.7368 20.4089 83.2029 19.6774 83.2029C18.9459 83.2029 18.4041 83.7368 18.4041 84.5376C18.4041 85.3384 18.9504 85.8722 19.6774 85.8722C20.4044 85.8722 20.9462 85.3384 20.9462 84.5376Z" fill="#05446B"/>
<path d="M25.5207 82.8268V85.8354C25.5207 87.0117 24.9427 87.5455 23.8139 87.5455C23.1907 87.5455 22.5812 87.3555 22.2199 87.0162L22.4547 86.6633C22.7798 86.9574 23.272 87.1338 23.8003 87.1338C24.6628 87.1338 25.0601 86.7357 25.0601 85.8897V85.4554C24.7757 85.8897 24.288 86.1204 23.7281 86.1204C22.7527 86.1204 22.0122 85.4373 22.0122 84.4555C22.0122 83.4738 22.7527 82.8042 23.7281 82.8042C24.3015 82.8042 24.7937 83.0395 25.0782 83.4873V82.8313H25.5207V82.8268ZM25.0737 84.4555C25.0737 83.7136 24.5273 83.2069 23.7732 83.2069C23.0191 83.2069 22.4818 83.7136 22.4818 84.4555C22.4818 85.1975 23.0191 85.7132 23.7732 85.7132C24.5273 85.7132 25.0737 85.1975 25.0737 84.4555Z" fill="#05446B"/>
<path d="M29.3901 84.1298V86.2516H28.9476V85.7178C28.7399 86.0707 28.338 86.2833 27.7736 86.2833C27.0015 86.2833 26.5273 85.8806 26.5273 85.288C26.5273 84.7586 26.866 84.3198 27.8459 84.3198H28.9296V84.1117C28.9296 83.5281 28.5999 83.2069 27.9633 83.2069C27.5207 83.2069 27.1053 83.3652 26.8254 83.6095L26.6177 83.2657C26.9608 82.9716 27.4666 82.8042 28.0084 82.8042C28.8934 82.8042 29.3901 83.2476 29.3901 84.1343V84.1298ZM28.9296 85.2201V84.6591H27.8594C27.1956 84.6591 26.9834 84.9215 26.9834 85.2699C26.9834 85.668 27.304 85.9123 27.8459 85.9123C28.3877 85.9123 28.7489 85.6635 28.9296 85.2156V85.2201Z" fill="#05446B"/>
<path d="M33.7883 84.2661V86.2522H33.3277V84.3114C33.3277 83.5875 32.9529 83.2165 32.3027 83.2165C31.5667 83.2165 31.1061 83.6735 31.1061 84.4516V86.2477H30.6455V82.8229H31.088V83.4563C31.3364 83.0401 31.7969 82.8003 32.3885 82.8003C33.2193 82.8003 33.7928 83.2799 33.7928 84.2661H33.7883Z" fill="#05446B"/>
<path d="M39.9113 82.8268V85.8354C39.9113 87.0117 39.3333 87.5455 38.2045 87.5455C37.5814 87.5455 36.9718 87.3555 36.6105 87.0162L36.8453 86.6633C37.1705 86.9574 37.6626 87.1338 38.1909 87.1338C39.0534 87.1338 39.4508 86.7357 39.4508 85.8897V85.4554C39.1663 85.8897 38.6786 86.1204 38.1187 86.1204C37.1434 86.1204 36.4028 85.4373 36.4028 84.4555C36.4028 83.4738 37.1434 82.8042 38.1187 82.8042C38.6922 82.8042 39.1843 83.0395 39.4688 83.4873V82.8313H39.9113V82.8268ZM39.4643 84.4555C39.4643 83.7136 38.9179 83.2069 38.1639 83.2069C37.4098 83.2069 36.8724 83.7136 36.8724 84.4555C36.8724 85.1975 37.4098 85.7132 38.1639 85.7132C38.9179 85.7132 39.4643 85.1975 39.4643 84.4555Z" fill="#05446B"/>
<path d="M40.8594 84.5376C40.8594 83.5196 41.5999 82.8003 42.6023 82.8003C43.6048 82.8003 44.3363 83.5242 44.3363 84.5376C44.3363 85.551 43.6002 86.2839 42.6023 86.2839C41.6044 86.2839 40.8594 85.5555 40.8594 84.5376ZM43.8667 84.5376C43.8667 83.7368 43.3293 83.2029 42.5978 83.2029C41.8663 83.2029 41.3245 83.7368 41.3245 84.5376C41.3245 85.3384 41.8708 85.8722 42.5978 85.8722C43.3248 85.8722 43.8667 85.3384 43.8667 84.5376Z" fill="#05446B"/>
<path d="M48.2513 84.6824H45.3931C45.4473 85.3972 45.9891 85.8722 46.7387 85.8722C47.1541 85.8722 47.5244 85.7229 47.7863 85.4243L48.0481 85.7229C47.7411 86.0894 47.267 86.2839 46.7296 86.2839C45.664 86.2839 44.937 85.5555 44.937 84.5376C44.937 83.5196 45.6459 82.8003 46.6077 82.8003C47.5695 82.8003 48.2649 83.5106 48.2649 84.5376C48.2649 84.5783 48.2604 84.6281 48.2604 84.6824H48.2513ZM45.3931 84.3385H47.8179C47.7592 83.6689 47.2715 83.1984 46.6032 83.1984C45.9349 83.1984 45.4518 83.6689 45.3931 84.3385Z" fill="#05446B"/>
<path d="M48.7256 85.8583L48.9333 85.4918C49.2042 85.7045 49.6693 85.8764 50.1479 85.8764C50.7982 85.8764 51.0646 85.6547 51.0646 85.3154C51.0646 84.4241 48.8475 85.1254 48.8475 83.7726C48.8475 83.2116 49.3261 82.7954 50.1976 82.7954C50.6401 82.7954 51.1188 82.9176 51.4078 83.1166L51.2046 83.4876C50.9065 83.2795 50.5498 83.1935 50.1976 83.1935C49.579 83.1935 49.3081 83.4333 49.3081 83.7591C49.3081 84.682 51.5252 83.9853 51.5252 85.3018C51.5252 85.8945 51.0059 86.279 50.1163 86.279C49.5519 86.279 49.0055 86.0981 48.7256 85.8538V85.8583Z" fill="#05446B"/>
<path d="M57.2233 84.2658V86.2519H56.7627V84.311C56.7627 83.5871 56.388 83.2161 55.7377 83.2161C55.0017 83.2161 54.5411 83.6731 54.5411 84.4513V86.2473H54.0806V81.4155H54.5411V83.4197C54.794 83.0216 55.241 82.7954 55.819 82.7954C56.6498 82.7954 57.2233 83.275 57.2233 84.2612V84.2658Z" fill="#05446B"/>
<path d="M61.4676 84.6824H58.6094C58.6636 85.3972 59.2054 85.8722 59.955 85.8722C60.3704 85.8722 60.7407 85.7229 61.0026 85.4243L61.2645 85.7229C60.9574 86.0894 60.4833 86.2839 59.9459 86.2839C58.8803 86.2839 58.1533 85.5555 58.1533 84.5376C58.1533 83.5196 58.8622 82.8003 59.824 82.8003C60.7858 82.8003 61.4812 83.5106 61.4812 84.5376C61.4812 84.5783 61.4767 84.6281 61.4767 84.6824H61.4676ZM58.6094 84.3385H61.0342C60.9755 83.6689 60.4878 83.1984 59.8195 83.1984C59.1512 83.1984 58.6681 83.6689 58.6094 84.3385Z" fill="#05446B"/>
<path d="M64.1364 82.8003V83.2482C64.0958 83.2482 64.0596 83.2437 64.028 83.2437C63.3146 83.2437 62.8766 83.7006 62.8766 84.5059V86.2522H62.416V82.8274H62.8585V83.497C63.0708 83.0401 63.5088 82.8003 64.1364 82.8003Z" fill="#05446B"/>
<path d="M67.9115 84.6824H65.0532C65.1074 85.3972 65.6493 85.8722 66.3988 85.8722C66.8143 85.8722 67.1845 85.7229 67.4464 85.4243L67.7083 85.7229C67.4013 86.0894 66.9271 86.2839 66.3898 86.2839C65.3242 86.2839 64.5972 85.5555 64.5972 84.5376C64.5972 83.5196 65.3061 82.8003 66.2679 82.8003C67.2297 82.8003 67.925 83.5106 67.925 84.5376C67.925 84.5783 67.9205 84.6281 67.9205 84.6824H67.9115ZM65.0532 84.3385H67.478C67.4193 83.6689 66.9317 83.1984 66.2634 83.1984C65.5951 83.1984 65.1119 83.6689 65.0532 84.3385Z" fill="#05446B"/>
<path d="M41.6273 39.064H38.6426V53.6137H41.6273V39.064Z" fill="url(#paint0_linear_23_8249)"/>
<path d="M33.1289 57.7716L40.3265 50.5601L47.5241 57.7716C48.3595 58.6086 47.7679 60.0382 46.5849 60.0382H34.0636C32.8851 60.0382 32.2935 58.6086 33.1244 57.7716H33.1289Z" fill="url(#paint1_linear_23_8249)"/>
<path d="M59.3999 22.0173L59.3637 22.0625L40.137 43.67L20.8877 22.0399C20.8877 22.0399 20.8741 22.0263 20.8696 22.0173L23.764 20.755C24.78 21.7549 26.4101 21.7549 27.426 20.755L28.6136 19.5833C29.6296 18.5834 31.2597 18.5834 32.2756 19.5833L33.4677 20.755C34.4792 21.7549 36.1092 21.7549 37.1252 20.755L38.3173 19.5788C39.3333 18.5834 40.9588 18.5834 41.9793 19.5788L43.1714 20.755C44.1873 21.7549 45.8129 21.7549 46.8334 20.755L48.0255 19.5788C49.0369 18.5834 50.667 18.5789 51.683 19.5788L52.8796 20.755C53.891 21.7549 55.5166 21.7549 56.5326 20.755L59.4134 22.0128L59.3999 22.0173Z" fill="url(#paint2_linear_23_8249)"/>
<path d="M59.6211 21.5422C59.6211 21.7187 59.5353 21.8906 59.3637 22.0625C57.851 23.5691 49.818 24.7182 40.1369 24.7182C30.4558 24.7182 22.3552 23.5555 20.8876 22.0399C20.8876 22.0309 20.8741 22.0263 20.8696 22.0173C20.7251 21.8589 20.6528 21.7051 20.6528 21.5422C20.6528 20.9948 21.5153 20.4745 23.028 20.0221L23.7685 20.755C24.7845 21.7549 26.4145 21.7549 27.4305 20.755L28.6181 19.5833C29.634 18.5834 31.2641 18.5834 32.2801 19.5833L33.4722 20.755C34.4836 21.7549 36.1137 21.7549 37.1297 20.755L38.3217 19.5788C39.3377 18.5834 40.9633 18.5834 41.9838 19.5788L43.1758 20.755C44.1918 21.7549 45.8174 21.7549 46.8379 20.755L48.0299 19.5788C49.0414 18.5834 50.6715 18.5789 51.6874 19.5788L52.884 20.755C53.8955 21.7549 55.521 21.7549 56.537 20.755L57.2775 20.0221C58.7812 20.4745 59.6391 20.9903 59.6391 21.5377L59.6211 21.5422Z" fill="url(#paint3_linear_23_8249)"/>
<path d="M25.3535 59.1839C23.2132 53.5603 20.2059 48.3078 16.4356 43.6343L15.0674 44.0867C18.2688 48.6878 20.2692 53.8318 21.4432 59.1839H25.3535Z" fill="url(#paint4_linear_23_8249)"/>
<path d="M16.5981 44.0815C14.0559 44.7014 11.3918 47.0042 9.71201 50.3475C8.03678 53.6864 7.7794 57.2062 8.79538 59.6221L16.5981 44.0861V44.0815Z" fill="url(#paint5_linear_23_8249)"/>
<path d="M16.6161 44.1361C14.381 42.7744 10.8725 42.512 7.32786 43.6882C3.78324 44.8645 1.12365 47.1673 0.134766 49.5968L16.6161 44.1361Z" fill="url(#paint6_linear_23_8249)"/>
<path d="M16.5935 44.1314C15.9749 41.5843 13.6766 38.915 10.3397 37.232C7.00726 35.5536 3.49425 35.2957 1.08301 36.3136L16.589 44.1314H16.5935Z" fill="url(#paint7_linear_23_8249)"/>
<path d="M16.0107 44.2768C18.422 43.2589 21.9305 43.5122 25.2674 45.1952C28.5998 46.8737 30.8981 49.5475 31.5213 52.0946L16.0153 44.2768H16.0107Z" fill="url(#paint8_linear_23_8249)"/>
<path d="M16.0293 44.3303C17.0137 41.9008 19.6778 39.598 23.2224 38.4217C26.767 37.2499 30.2755 37.5078 32.5106 38.8696L16.0293 44.3303Z" fill="url(#paint9_linear_23_8249)"/>
<path d="M16.0471 44.3125C15.0312 41.8966 15.284 38.3813 16.9638 35.038C18.6435 31.6946 21.3076 29.3963 23.8498 28.772L16.0471 44.308V44.3125Z" fill="url(#paint10_linear_23_8249)"/>
<path d="M54.9116 59.1839C57.0519 53.5603 60.0592 48.3078 63.8341 43.6343L65.2023 44.0867C62.0009 48.6878 60.0005 53.8318 58.8265 59.1839H54.9161H54.9116Z" fill="url(#paint11_linear_23_8249)"/>
<path d="M63.6719 44.0815C66.2141 44.7014 68.8782 47.0042 70.5579 50.3475C72.2331 53.6864 72.4905 57.2062 71.4745 59.6221L63.6719 44.0861V44.0815Z" fill="url(#paint12_linear_23_8249)"/>
<path d="M63.6538 44.1361C65.8889 42.7744 69.3974 42.512 72.9421 43.6882C76.4867 44.8645 79.1463 47.1673 80.1352 49.5968L63.6538 44.1361Z" fill="url(#paint13_linear_23_8249)"/>
<path d="M63.6763 44.1314C64.2949 41.5843 66.5932 38.915 69.9302 37.232C73.2625 35.5536 76.7756 35.2957 79.1868 36.3136L63.6808 44.1314H63.6763Z" fill="url(#paint14_linear_23_8249)"/>
<path d="M64.2586 44.2768C61.8473 43.2589 58.3388 43.5122 55.0019 45.1952C51.6695 46.8737 49.3712 49.5475 48.748 52.0946L64.2541 44.2768H64.2586Z" fill="url(#paint15_linear_23_8249)"/>
<path d="M64.2406 44.3303C63.2563 41.9008 60.5921 39.598 57.0475 38.4217C53.5029 37.2499 49.9944 37.5078 47.7593 38.8696L64.2406 44.3303Z" fill="url(#paint16_linear_23_8249)"/>
<path d="M64.2226 44.3125C65.2386 41.8966 64.9857 38.3813 63.306 35.038C61.6262 31.6946 58.9621 29.3963 56.4199 28.772L64.2226 44.308V44.3125Z" fill="url(#paint17_linear_23_8249)"/>
<path d="M55.747 15.8643C55.747 16.4162 55.7154 16.9682 55.6612 17.5066C54.8078 17.3211 53.846 17.1537 52.7758 17.0044C49.3712 16.5339 44.9596 16.2443 40.1371 16.2443C35.3146 16.2443 30.894 16.5339 27.4894 17.0044C26.6811 17.1175 25.9271 17.2396 25.2407 17.3754C25.191 16.8777 25.1685 16.3755 25.1685 15.8643C25.1685 7.40407 32.0139 0.54541 40.4577 0.54541C48.9016 0.54541 55.747 7.40407 55.747 15.8643Z" fill="url(#paint18_linear_23_8249)"/>
<path style="mix-blend-mode:multiply" d="M40.1371 16.2486C40.9048 16.2486 41.6634 16.2576 42.4084 16.2712C45.068 16.3255 47.3709 14.3394 47.5921 11.6837C47.5921 11.6656 47.5921 11.652 47.5921 11.6339C47.7502 9.60706 47.5063 7.65714 46.9283 5.85199C45.8401 2.45433 42.4761 0.278198 38.9315 0.622036C31.2056 1.38662 25.1685 7.91954 25.1685 15.864C25.1685 16.3752 25.1955 16.8774 25.2407 17.3751C25.9271 17.2394 26.6811 17.1172 27.4894 17.0041C30.894 16.5336 35.3101 16.244 40.1371 16.244V16.2486Z" fill="url(#paint19_linear_23_8249)"/>
<path style="mix-blend-mode:multiply" d="M59.3636 22.0629L59.3997 22.0176L56.5189 20.7599C55.5074 21.7552 53.8819 21.7552 52.8659 20.7599L51.6693 19.5836C50.6578 18.5838 49.0278 18.5883 48.0118 19.5836L46.8197 20.7599C45.8037 21.7598 44.1782 21.7598 43.1577 20.7599L41.9656 19.5836C40.9497 18.5883 39.3241 18.5883 38.3036 19.5836L37.1115 20.7599C36.1001 21.7598 34.47 21.7598 33.454 20.7599L32.262 19.5882C31.2505 18.5883 29.6204 18.5883 28.5999 19.5882L27.4124 20.7599C26.4009 21.7598 24.7708 21.7598 23.7504 20.7599L20.856 22.0222C20.856 22.0222 20.8695 22.0357 20.874 22.0448C20.874 22.0448 29.2637 28.4375 38.7055 33.0566C43.1938 35.2509 48.5943 34.156 51.9131 30.4236L59.3501 22.0674L59.3636 22.0629Z" fill="url(#paint20_linear_23_8249)"/>
</g>
<defs>
<linearGradient id="paint0_linear_23_8249" x1="40.1327" y1="55.6768" x2="40.1327" y2="42.525" gradientUnits="userSpaceOnUse">
<stop stop-color="#287CAF"/>
<stop offset="1" stop-color="#165D91"/>
</linearGradient>
<linearGradient id="paint1_linear_23_8249" x1="40.3265" y1="55.6769" x2="40.3265" y2="42.5251" gradientUnits="userSpaceOnUse">
<stop stop-color="#287CAF"/>
<stop offset="1" stop-color="#165D91"/>
</linearGradient>
<linearGradient id="paint2_linear_23_8249" x1="42.038" y1="24.9671" x2="58.3527" y2="41.5302" gradientUnits="userSpaceOnUse">
<stop stop-color="#287CAF"/>
<stop offset="1" stop-color="#165D91"/>
</linearGradient>
<linearGradient id="paint3_linear_23_8249" x1="40.1369" y1="14.6293" x2="40.1369" y2="26.7043" gradientUnits="userSpaceOnUse">
<stop stop-color="#287CAF"/>
<stop offset="1" stop-color="#165D91"/>
</linearGradient>
<linearGradient id="paint4_linear_23_8249" x1="22.6353" y1="57.7" x2="17.5429" y2="44.9893" gradientUnits="userSpaceOnUse">
<stop stop-color="#00AA86"/>
<stop offset="1" stop-color="#156755"/>
</linearGradient>
<linearGradient id="paint5_linear_23_8249" x1="8.19482" y1="51.8496" x2="16.5981" y2="51.8496" gradientUnits="userSpaceOnUse">
<stop stop-color="#00AA86"/>
<stop offset="1" stop-color="#156755"/>
</linearGradient>
<linearGradient id="paint6_linear_23_8249" x1="0.134766" y1="46.2716" x2="16.6161" y2="46.2716" gradientUnits="userSpaceOnUse">
<stop stop-color="#00AA86"/>
<stop offset="1" stop-color="#156755"/>
</linearGradient>
<linearGradient id="paint7_linear_23_8249" x1="1.08301" y1="39.9194" x2="16.5935" y2="39.9194" gradientUnits="userSpaceOnUse">
<stop stop-color="#00AA86"/>
<stop offset="1" stop-color="#156755"/>
</linearGradient>
<linearGradient id="paint8_linear_23_8249" x1="19.5915" y1="51.4929" x2="35.8622" y2="38.6477" gradientUnits="userSpaceOnUse">
<stop stop-color="#00AA86"/>
<stop offset="1" stop-color="#156755"/>
</linearGradient>
<linearGradient id="paint9_linear_23_8249" x1="16.2641" y1="47.2755" x2="32.5348" y2="34.4349" gradientUnits="userSpaceOnUse">
<stop stop-color="#00AA86"/>
<stop offset="1" stop-color="#156755"/>
</linearGradient>
<linearGradient id="paint10_linear_23_8249" x1="12.2496" y1="42.1907" x2="28.5204" y2="29.3455" gradientUnits="userSpaceOnUse">
<stop stop-color="#00AA86"/>
<stop offset="1" stop-color="#156755"/>
</linearGradient>
<linearGradient id="paint11_linear_23_8249" x1="57.6299" y1="57.7" x2="62.7222" y2="44.9893" gradientUnits="userSpaceOnUse">
<stop stop-color="#00AA86"/>
<stop offset="1" stop-color="#156755"/>
</linearGradient>
<linearGradient id="paint12_linear_23_8249" x1="72.0706" y1="51.8496" x2="63.6719" y2="51.8496" gradientUnits="userSpaceOnUse">
<stop stop-color="#00AA86"/>
<stop offset="1" stop-color="#156755"/>
</linearGradient>
<linearGradient id="paint13_linear_23_8249" x1="80.1352" y1="46.2716" x2="63.6538" y2="46.2716" gradientUnits="userSpaceOnUse">
<stop stop-color="#00AA86"/>
<stop offset="1" stop-color="#156755"/>
</linearGradient>
<linearGradient id="paint14_linear_23_8249" x1="79.1823" y1="39.9194" x2="63.6763" y2="39.9194" gradientUnits="userSpaceOnUse">
<stop stop-color="#00AA86"/>
<stop offset="1" stop-color="#156755"/>
</linearGradient>
<linearGradient id="paint15_linear_23_8249" x1="60.6778" y1="51.4929" x2="44.4071" y2="38.6477" gradientUnits="userSpaceOnUse">
<stop stop-color="#00AA86"/>
<stop offset="1" stop-color="#156755"/>
</linearGradient>
<linearGradient id="paint16_linear_23_8249" x1="64.0058" y1="47.2755" x2="47.7306" y2="34.4349" gradientUnits="userSpaceOnUse">
<stop stop-color="#00AA86"/>
<stop offset="1" stop-color="#156755"/>
</linearGradient>
<linearGradient id="paint17_linear_23_8249" x1="68.0201" y1="42.1907" x2="51.7448" y2="29.3455" gradientUnits="userSpaceOnUse">
<stop stop-color="#00AA86"/>
<stop offset="1" stop-color="#156755"/>
</linearGradient>
<linearGradient id="paint18_linear_23_8249" x1="30.0858" y1="3.01561" x2="47.2007" y2="20.0975" gradientUnits="userSpaceOnUse">
<stop stop-color="#F9D730"/>
<stop offset="0.57" stop-color="#F9C430"/>
<stop offset="1" stop-color="#F9BB30"/>
</linearGradient>
<linearGradient id="paint19_linear_23_8249" x1="33.2917" y1="7.19115" x2="42.5323" y2="20.8738" gradientUnits="userSpaceOnUse">
<stop stop-color="white"/>
<stop offset="0.03" stop-color="#FEFBF7"/>
<stop offset="0.29" stop-color="#FCD7B1"/>
<stop offset="0.53" stop-color="#FBBA79"/>
<stop offset="0.74" stop-color="#F9A651"/>
<stop offset="0.9" stop-color="#F99939"/>
<stop offset="1" stop-color="#F99530"/>
</linearGradient>
<linearGradient id="paint20_linear_23_8249" x1="40.1324" y1="24.0761" x2="40.1324" y2="38.3861" gradientUnits="userSpaceOnUse">
<stop stop-color="white"/>
<stop offset="1" stop-color="#165D91"/>
</linearGradient>
<clipPath id="clip0_23_8249">
<rect width="80" height="87" fill="white" transform="translate(0.134766 0.54541)"/>
</clipPath>
</defs>
</svg>
