<svg width="67" height="48" viewBox="0 0 67 48" fill="none" xmlns="http://www.w3.org/2000/svg">
<g clip-path="url(#clip0_23_8305)">
<path d="M13.4309 45.4286C13.2098 46.6757 12.0017 47.7274 10.737 47.8766C9.4723 48.0257 4.19764 48.0694 3.07433 47.8174C2.45484 47.6786 1.39066 46.6835 1.20815 46.0843L1.11562 21.2782C1.4395 19.3754 2.83014 18.0485 4.4367 17.1408C1.45749 16.804 -0.652886 14.7855 0.185096 11.6047C0.434434 10.661 1.69398 9.40613 2.62707 9.16185C3.35966 8.97156 8.80397 8.88156 9.40547 9.08213C9.67023 9.16956 9.79104 9.38041 9.90158 9.61441C10.1818 10.2187 9.85531 11.1135 10.3437 11.3527C10.8681 8.753 13.5388 2.50196 16.0219 1.47598C16.9602 1.0877 18.888 0.953991 19.9882 0.815136C28.6482 -0.27513 38.3133 -0.27513 46.9733 0.815136C48.0375 0.948848 49.8342 1.07227 50.7545 1.40398C53.3867 2.35797 56.0754 8.68871 56.6178 11.3527L57.1473 9.4447C57.3401 9.05642 57.6434 9.06927 58.0136 9.02556C59.7512 8.82499 64.1673 8.78128 65.4809 9.8124C68.7325 12.3684 66.2983 17.1357 62.5248 17.1383C64.1314 18.0434 65.522 19.3702 65.8459 21.2756L65.7533 46.0818C65.5683 46.6809 64.5041 47.6734 63.8872 47.8149C62.7638 48.0694 57.5046 48.0283 56.2245 47.874C55.114 47.7429 53.5306 46.5317 53.5306 45.4261V41.6976H13.4309C13.2921 42.8341 13.6211 44.3512 13.4309 45.4261V45.4286ZM55.0729 13.9292C54.4586 11.6201 52.2377 4.89335 50.1684 3.7928C49.4333 3.40195 47.6108 3.27852 46.6854 3.16281C38.0614 2.07254 28.8975 2.07254 20.2735 3.16281C17.9421 3.45595 17.0347 3.17824 15.5824 5.15563C13.7445 7.65244 12.7703 10.9875 11.8886 13.9318H55.0729V13.9292ZM7.77577 11.3578H3.2774C2.54481 11.3578 1.48834 14.0809 3.65527 14.5746C4.30817 14.7237 7.34907 14.914 7.66524 14.4615L7.77834 11.3604L7.77577 11.3578ZM63.6841 11.3578C62.6276 11.0672 60.399 11.5712 59.1857 11.3578L59.2988 14.4589C59.615 14.914 62.6559 14.7212 63.3088 14.572C65.157 14.1503 64.8125 11.6664 63.6867 11.3552L63.6841 11.3578ZM54.2992 39.3884C56.1294 39.0902 61.7485 39.949 63.026 38.9873C63.3602 38.7353 63.4759 38.3496 63.5376 37.9562L63.4964 21.5765C63.1006 19.6171 58.7179 17.434 57.0162 16.4877L10.9889 16.246C9.26666 16.4311 3.96116 19.7019 3.52674 21.3811L3.40079 37.7222C3.44449 39.1287 4.38272 39.2985 5.58057 39.3987C7.84518 39.589 10.3668 39.2367 12.6597 39.391C12.305 35.1277 14.6647 31.1832 19.0217 30.4555C28.1033 30.8515 37.9945 29.7021 46.9836 30.3783C51.9472 30.7512 54.6411 34.5517 54.2966 39.391L54.2992 39.3884ZM15.3587 39.3859H51.6027C52.0937 39.0542 52.0166 38.5142 51.9909 37.9819C51.8624 35.3025 50.2815 33.3791 47.6853 32.7594C38.7657 33.1528 29.0621 32.0266 20.2324 32.6874C18.1632 32.8417 16.189 33.8343 15.4307 35.8554C15.1788 36.5265 14.567 39.1365 15.3587 39.3833V39.3859ZM11.1174 41.7001H4.3056C4.17708 41.7001 3.7658 41.2938 3.40593 41.443V45.1715L3.7915 45.5572H10.8604L11.1174 41.7001ZM63.5556 41.443C63.1957 41.2938 62.7844 41.7001 62.6559 41.7001H55.8441L56.1011 45.5572H63.17L63.5556 45.1715V41.443Z" fill="#EE6226"/>
<path d="M7.70117 20.1571C10.0789 19.6119 20.0216 22.803 20.9469 25.053C22.1371 27.9484 18.9214 28.2364 16.8984 28.3264C14.8754 28.4163 11.6315 28.2595 9.70616 28.0692C7.91966 27.8918 7.28475 27.1821 6.48275 25.6367C5.54709 23.8341 5.1024 20.7536 7.6986 20.1571H7.70117ZM18.0551 25.5055C15.7597 24.5747 13.5619 23.3533 11.1174 22.8004C9.91437 22.5279 7.57007 21.6845 8.14843 23.7081C9.17149 27.2824 12.9296 25.035 15.6157 26.0172L18.0551 25.5055Z" fill="#EE6226"/>
<path d="M57.0701 20.1725C61.075 19.7379 62.2291 22.2501 60.476 25.6341C59.6766 27.1795 59.0391 27.8892 57.2526 28.0666C55.4661 28.244 52.3944 28.3777 50.5616 28.3366C49.8676 28.3212 47.8986 28.1489 47.2868 28.0152C45.3872 27.6012 45.4232 25.2869 46.8627 24.099C48.6877 22.5921 54.7001 20.427 57.0701 20.1699V20.1725ZM48.9037 25.7549C49.7339 25.5467 50.6208 26.0146 51.3431 26.0146C51.7801 26.0146 52.2093 25.7627 52.6309 25.7575C53.8673 25.7472 56.3787 25.9761 57.3992 25.6444C58.2783 25.3564 59.7152 22.6487 58.2757 22.4044C57.0778 22.2013 53.0961 23.6284 51.8109 24.1684L48.9037 25.7549Z" fill="#EE6226"/>
</g>
<defs>
<clipPath id="clip0_23_8305">
<rect width="67" height="48" fill="white"/>
</clipPath>
</defs>
</svg>
