<svg width="31" height="26" viewBox="0 0 31 26" fill="none" xmlns="http://www.w3.org/2000/svg">
<g clip-path="url(#clip0_23_6535)">
<path d="M17.074 14.851C16.0036 14.851 15.0024 14.851 13.9 14.851C13.9 15.5312 13.9107 16.2115 13.8973 16.8917C13.8734 18.0331 13.9293 19.1847 13.7802 20.3109C13.3834 23.3452 10.7633 25.6841 7.55994 25.972C4.38592 26.2573 1.38231 24.3796 0.365133 21.465C-0.122154 20.0663 -0.119491 18.6599 0.359808 17.2612C1.49415 13.9465 2.65512 10.6395 3.76549 7.31977C4.27408 5.80129 5.19274 4.66244 6.71318 3.97709C6.83567 3.92104 6.94751 3.76817 6.99011 3.63824C7.1552 3.13123 7.30432 2.61913 7.43479 2.10193C7.78362 0.73123 9.15761 -0.180872 10.5742 0.0356889C12.1053 0.270084 13.1118 1.46754 12.9787 2.92231C12.9174 3.59492 12.8056 4.26244 12.7364 4.9325C12.7204 5.07518 12.7364 5.26117 12.8216 5.36563C13.6124 6.31849 13.9959 7.39875 13.9985 8.60894C13.9985 8.64715 14.0145 8.68537 14.0305 8.75416C14.9917 8.75416 15.9583 8.75416 16.9489 8.75416C16.9782 8.37199 16.9941 7.98728 17.0394 7.60512C17.1246 6.86881 17.4175 6.20639 17.809 5.57454C17.9155 5.40384 17.9714 5.16945 17.9554 4.97072C17.8968 4.29811 17.785 3.63314 17.7078 2.96308C17.556 1.60002 18.5332 0.321039 19.9152 0.0611666C21.3877 -0.21654 22.8123 0.596198 23.2197 1.94397C23.257 2.06881 23.2836 2.1962 23.3102 2.32359C23.4514 3.03696 23.707 3.56945 24.5298 3.9032C25.8612 4.44078 26.6813 5.52359 27.1287 6.84333C28.1432 9.82677 29.1577 12.8102 30.1695 15.7962C30.4198 16.5325 30.75 17.2586 30.8938 18.0128C31.5782 21.5542 28.8728 25.0981 25.1476 25.6051C21.3664 26.1172 18.0167 23.9058 17.2764 20.3159C17.0687 19.3121 17.1166 18.2573 17.0794 17.2255C17.0501 16.451 17.074 15.6714 17.074 14.851ZM24.0372 24.1401C26.9636 24.1631 29.3947 21.8573 29.3947 19.0599C29.3947 16.265 27.0222 13.9822 24.0931 13.9644C21.18 13.9465 18.7569 16.2293 18.7436 19.0089C18.7303 21.8421 21.0788 24.1198 24.0372 24.1401ZM12.2571 19.3401C12.2464 16.5503 9.85525 14.2344 6.94218 14.2624C3.95988 14.2905 1.65392 16.4714 1.62196 19.3733C1.59267 22.186 4.04242 24.4612 6.9768 24.4433C9.8952 24.4255 12.2677 22.1351 12.2571 19.3401ZM12.2997 15.0803C12.3077 14.9401 12.313 14.8663 12.3157 14.7898C12.3316 13.2841 12.3556 11.7809 12.3583 10.2752C12.3583 9.43442 12.4222 8.57582 12.2704 7.75543C12.0041 6.30066 10.5928 5.19238 9.09903 5.1134C7.40817 5.02422 5.95962 5.93378 5.42973 7.45735C4.75338 9.40129 4.10367 11.3529 3.4433 13.2994C3.41135 13.3911 3.39537 13.4905 3.36608 13.6153C6.71318 12.0586 9.66353 12.5249 12.2997 15.0803ZM27.6213 13.2994C26.9103 11.2153 26.2393 9.19238 25.5283 7.18219C24.9532 5.55926 23.281 4.62168 21.5581 4.90703C19.8407 5.18983 18.5971 6.61403 18.6051 8.32104C18.6131 10.3312 18.6451 12.3414 18.6664 14.3516C18.669 14.4841 18.6797 14.6166 18.6877 14.7975C21.3132 12.237 24.2529 11.7656 27.6213 13.2994ZM11.2026 4.00512C11.2133 3.95671 11.2426 3.87008 11.2532 3.78091C11.2958 3.43442 11.3491 3.08792 11.3704 2.73887C11.405 2.17327 11.0322 1.71212 10.4491 1.57454C9.90851 1.44461 9.29075 1.72486 9.08838 2.24461C8.92861 2.65225 8.84606 3.08792 8.74488 3.45735C9.57566 3.64333 10.3718 3.81913 11.2026 4.00512ZM19.4572 3.92868C20.288 3.68664 21.0682 3.45989 21.8857 3.2204C21.8058 2.9325 21.7392 2.57836 21.6061 2.24461C21.4117 1.75543 20.8445 1.47008 20.3306 1.55416C19.8087 1.64078 19.3347 2.05607 19.3294 2.5325C19.3241 3.01658 19.4146 3.50066 19.4572 3.92868ZM17.0181 12.614C15.969 12.614 14.9758 12.614 13.9639 12.614C13.9639 12.8433 13.9639 13.0446 13.9639 13.2637C14.9917 13.2637 15.9983 13.2637 17.0181 13.2637C17.0181 13.037 17.0181 12.8382 17.0181 12.614ZM16.9808 11.0268C16.9808 10.7771 16.9808 10.5656 16.9808 10.321C16.0995 10.321 15.2474 10.3389 14.3979 10.3134C14.0225 10.3007 13.908 10.4331 13.9639 10.7593C13.9772 10.8459 13.9905 10.93 14.0065 11.0268C14.9997 11.0268 15.9716 11.0268 16.9808 11.0268Z" fill="#EE6226"/>
</g>
<defs>
<clipPath id="clip0_23_6535">
<rect width="31" height="26" fill="white"/>
</clipPath>
</defs>
</svg>
