<svg width="51" height="51" viewBox="0 0 51 51" fill="none" xmlns="http://www.w3.org/2000/svg">
<g clip-path="url(#clip0_23_6520)">
<path d="M51.0004 25.5009C50.9638 26.1284 50.9992 26.7693 50.8749 27.3785C50.6923 28.2716 50.193 28.8845 49.1945 29.0563C48.0583 29.2525 46.9477 29.5912 45.8165 29.8264C45.4536 29.9019 45.316 30.0786 45.2368 30.4076C44.7546 32.4155 43.9509 34.2895 42.9049 36.0672C42.8026 36.2402 42.805 36.5765 42.9073 36.7519C43.4882 37.7511 44.0715 38.7538 44.7363 39.6981C45.344 40.5608 45.3379 41.4271 44.7254 42.1703C43.9582 43.1036 43.0875 43.9736 42.1572 44.7424C41.4168 45.3541 40.5522 45.376 39.6876 44.7644C38.7451 44.0979 37.7429 43.5155 36.7443 42.9331C36.5678 42.8307 36.2317 42.8185 36.06 42.9197C34.265 43.976 32.369 44.7717 30.3512 45.2944C30.1442 45.348 29.9007 45.6185 29.8434 45.8329C29.5426 46.9478 29.2224 48.0675 29.0519 49.2068C28.9155 50.1218 28.2324 50.8346 27.2009 50.9272C26.0745 51.0271 24.9274 51.021 23.7998 50.9333C22.8159 50.8565 22.0536 50.1742 21.9123 49.1763C21.754 48.0566 21.3972 46.9661 21.1622 45.8561C21.0891 45.5076 20.9418 45.3456 20.5972 45.2627C18.5903 44.7863 16.7065 43.9968 14.9517 42.9136C14.6643 42.7357 14.461 42.7552 14.1894 42.9306C13.2347 43.5459 12.2325 44.0918 11.3107 44.7497C10.4023 45.398 9.51454 45.3382 8.73641 44.6961C7.85111 43.9651 7.02427 43.1365 6.29363 42.2495C5.67136 41.4929 5.59343 40.6193 6.22178 39.7249C6.88545 38.7806 7.44317 37.762 8.07274 36.7922C8.2554 36.5107 8.24444 36.3072 8.07274 36.0294C6.99139 34.2712 6.22422 32.3826 5.70668 30.3844C5.65188 30.1736 5.39128 29.9214 5.1794 29.8641C4.06517 29.5607 2.93755 29.3049 1.81114 29.0514C0.728574 28.8078 0.127012 28.2241 0.0539481 27.1117C-0.0166806 26.0407 -0.0166806 24.9587 0.0539481 23.8877C0.127012 22.7753 0.728574 22.1929 1.81236 21.948C2.93876 21.6945 4.06639 21.4387 5.18062 21.1353C5.39372 21.078 5.6531 20.8246 5.7079 20.615C6.22543 18.6168 6.99383 16.7282 8.07396 14.97C8.24444 14.6922 8.25662 14.4899 8.07274 14.2073C7.44317 13.2374 6.88667 12.2188 6.22178 11.2745C5.59221 10.3802 5.6738 9.50532 6.29485 8.74989C7.02427 7.86165 7.85111 7.03433 8.73762 6.30327C9.51576 5.65994 10.4035 5.60024 11.3119 6.24966C12.235 6.90762 13.2372 7.45348 14.1919 8.06878C14.4634 8.24424 14.6668 8.26252 14.9542 8.08584C16.7089 7.00144 18.5928 6.21311 20.5996 5.7367C20.9454 5.65385 21.0916 5.4918 21.1658 5.14332C21.4009 4.03333 21.7516 2.94161 21.916 1.82309C22.0511 0.8983 22.6978 0.176987 23.7438 0.0795121C24.9092 -0.0289285 26.0989 -0.0191811 27.2643 0.081949C28.3006 0.172113 28.8059 0.775238 29.0348 1.79507C29.2881 2.92212 29.5439 4.05039 29.8459 5.16526C29.9043 5.3797 30.1466 5.65019 30.3537 5.7038C32.3714 6.22651 34.2675 7.02215 36.0624 8.07853C36.2341 8.17966 36.5702 8.16748 36.7468 8.06513C37.7624 7.47297 38.778 6.8735 39.7436 6.20336C40.5218 5.66238 41.3401 5.6173 42.0013 6.16681C43.0205 7.01362 43.974 7.96765 44.8179 8.98992C45.3659 9.65275 45.3087 10.4728 44.7704 11.2489C44.1007 12.2139 43.5028 13.2313 42.911 14.2475C42.8099 14.4217 42.8074 14.758 42.9085 14.9322C43.9533 16.7111 44.7595 18.5839 45.2405 20.5919C45.3196 20.9208 45.4572 21.0975 45.8201 21.173C46.9307 21.4033 48.0291 21.6921 49.136 21.9431C50.2819 22.2026 50.8433 22.8057 50.9407 23.9791C50.9821 24.4835 50.948 24.9928 50.948 25.4997C50.9638 25.4997 50.9821 25.4997 51.0004 25.5009ZM40.8518 44.1491C41.06 44.0772 41.2548 44.0674 41.3596 43.9663C42.2278 43.1244 43.0985 42.2836 43.9229 41.4003C44.1859 41.1188 44.1153 40.7545 43.8815 40.3951C43.118 39.2217 42.4056 38.0155 41.6482 36.8385C41.4448 36.5229 41.4326 36.2999 41.6469 35.9758C42.956 33.9898 43.8474 31.8209 44.3369 29.495C44.4149 29.127 44.578 28.9954 44.9129 28.9211C46.2585 28.6213 47.5931 28.2716 48.9436 28.0012C49.5342 27.883 49.8131 27.5333 49.8362 27.0167C49.8825 26.0054 49.8813 24.988 49.835 23.9767C49.8119 23.4588 49.5306 23.1128 48.94 22.9946C47.5895 22.7241 46.2536 22.3793 44.9093 22.0722C44.6158 22.0052 44.4209 21.9187 44.3467 21.5581C43.8584 19.1882 42.9463 16.9865 41.6128 14.9663C41.4241 14.68 41.4411 14.4838 41.6189 14.2073C42.3727 13.0278 43.0827 11.8191 43.8535 10.6519C44.1348 10.2254 44.1689 9.81967 43.8632 9.48582C43.1131 8.66582 42.3277 7.87627 41.5118 7.12206C41.1562 6.79308 40.7385 6.8406 40.294 7.13668C39.164 7.89089 37.9852 8.57078 36.8466 9.31159C36.5093 9.53091 36.2755 9.53822 35.9309 9.31037C33.963 8.01274 31.8149 7.12572 29.511 6.64078C29.1213 6.55915 28.9801 6.38978 28.9009 6.02791C28.6099 4.70103 28.2592 3.38634 27.9949 2.05338C27.8731 1.4405 27.5224 1.14808 26.9744 1.12493C25.9832 1.08228 24.9871 1.0835 23.9971 1.12493C23.4467 1.14808 23.1008 1.4466 22.979 2.05703C22.7148 3.38878 22.3641 4.70347 22.0743 6.03156C21.9951 6.39466 21.8478 6.55915 21.4605 6.64078C19.1566 7.12694 17.0073 8.01274 15.0406 9.31159C14.6936 9.54065 14.4598 9.52481 14.1249 9.30793C12.9668 8.5586 11.7759 7.86165 10.6239 7.10379C10.2184 6.83695 9.82872 6.79918 9.5121 7.09282C8.68161 7.85921 7.87547 8.65729 7.10951 9.48826C6.80142 9.82089 6.84161 10.2291 7.12169 10.6543C7.88277 11.8045 8.5781 12.9974 9.32579 14.1573C9.52915 14.4729 9.54133 14.6958 9.32701 15.02C8.02038 17.0072 7.12412 19.1724 6.63703 21.5008C6.56031 21.8688 6.39714 22.0004 6.06226 22.0759C4.71666 22.3756 3.38202 22.7253 2.03155 22.9958C1.43973 23.114 1.16209 23.4625 1.13773 23.9803C1.09146 24.9916 1.09146 26.009 1.13773 27.0203C1.16087 27.5381 1.44217 27.8842 2.03277 28.0024C3.38324 28.2729 4.71909 28.6177 6.06348 28.9247C6.35695 28.9917 6.55179 29.077 6.62607 29.4389C7.11195 31.81 8.02768 34.0105 9.36111 36.0306C9.54985 36.317 9.53281 36.5144 9.35623 36.7897C8.60246 37.9692 7.89252 39.1778 7.12169 40.3451C6.84039 40.7716 6.80629 41.1785 7.11316 41.5111C7.88034 42.3421 8.68526 43.1402 9.51576 43.9054C9.83359 44.1978 10.2233 44.1564 10.6276 43.8908C11.7783 43.1317 12.9717 42.4359 14.1285 41.6854C14.4659 41.4673 14.6997 41.4575 15.0443 41.6854C17.0109 42.9855 19.1602 43.8676 21.4642 44.355C21.8514 44.4366 21.9951 44.6035 22.0743 44.9666C22.3641 46.2935 22.7148 47.6082 22.9803 48.9412C23.102 49.554 23.4527 49.8465 24.0007 49.8696C24.992 49.9123 25.9881 49.911 26.9781 49.8696C27.5285 49.8465 27.8743 49.5492 27.9961 48.9375C28.2604 47.6058 28.6111 46.2911 28.9009 44.963C28.9801 44.5999 29.1274 44.4354 29.5134 44.3538C31.8174 43.8664 33.9667 42.983 35.9333 41.6829C36.2804 41.4539 36.5142 41.4697 36.8491 41.6866C38.0242 42.4469 39.22 43.1731 40.4097 43.9102C40.5619 44.0028 40.7227 44.0796 40.8518 44.1491Z" fill="#EE6226"/>
<path d="M40.291 25.4909C40.3056 33.6495 33.6811 40.2912 25.5089 40.3131C17.355 40.335 10.7146 33.7165 10.6818 25.5359C10.6489 17.3566 17.3123 10.6759 25.4943 10.6845C33.6629 10.6918 40.2776 17.3103 40.291 25.4909ZM39.2036 25.5031C39.2145 17.9561 33.0418 11.775 25.4919 11.7713C17.965 11.7689 11.7948 17.9122 11.7692 25.4312C11.7436 33.0232 17.9066 39.2202 25.4809 39.2226C33.0333 39.2263 39.1926 33.0683 39.2036 25.5031Z" fill="#EE6226"/>
<path d="M18.6767 18.692C18.6767 18.3033 18.617 17.9061 18.6986 17.5406C18.7473 17.3249 18.9933 17.0422 19.1967 16.9972C19.5462 16.9204 19.7422 17.1909 19.7471 17.554C19.752 17.9354 19.7483 18.3179 19.7483 18.7858C20.3414 18.7858 20.882 18.7785 21.4215 18.7883C22.0925 18.8004 22.4383 19.1148 22.4675 19.7849C22.4943 20.4124 22.4955 21.0436 22.4663 21.6699C22.4359 22.3217 22.0718 22.6495 21.4057 22.6665C20.882 22.6799 20.3584 22.669 19.7508 22.669C19.7508 22.9529 19.7508 23.188 19.7508 23.4232C19.7508 26.6277 19.7508 29.8322 19.7508 33.0366C19.7508 33.2194 19.8056 33.4375 19.724 33.5752C19.6156 33.7579 19.3867 34.0089 19.2344 33.9931C19.0384 33.9724 18.8216 33.7458 18.6986 33.5532C18.6146 33.4217 18.6743 33.1987 18.6743 33.0159C18.6743 29.8114 18.6743 26.607 18.6743 23.4025C18.6743 23.1844 18.6743 22.9663 18.6743 22.6702C18.1178 22.6702 17.6173 22.6751 17.118 22.669C16.3155 22.6592 15.9709 22.3327 15.9417 21.5285C15.9222 20.9814 15.921 20.4331 15.9429 19.8861C15.9746 19.1051 16.3058 18.7968 17.0827 18.787C17.5491 18.781 18.0143 18.7785 18.4807 18.7712C18.516 18.7688 18.5525 18.742 18.6767 18.692ZM21.3679 19.9031C19.9115 19.9031 18.505 19.9031 17.0766 19.9031C17.0766 20.4697 17.0766 20.9997 17.0766 21.5358C18.5342 21.5358 19.9383 21.5358 21.3679 21.5358C21.3679 20.9851 21.3679 20.4807 21.3679 19.9031Z" fill="#EE6226"/>
<path d="M31.2234 25.486C30.6219 25.486 30.0995 25.4945 29.5771 25.4836C28.8793 25.4689 28.5322 25.14 28.503 24.4394C28.4787 23.8521 28.4811 23.2623 28.5006 22.6751C28.5261 21.9318 28.8659 21.6114 29.6038 21.6016C30.1092 21.5943 30.6133 21.6004 31.2234 21.6004C31.2234 21.2117 31.2234 20.8572 31.2234 20.5026C31.2234 19.5498 31.2271 18.5957 31.2222 17.6429C31.2198 17.2677 31.3476 16.9838 31.7568 16.9789C32.166 16.974 32.3023 17.2542 32.3011 17.6307C32.2975 18.9247 32.2999 20.2199 32.2999 21.6004C32.8698 21.6004 33.3886 21.5955 33.9073 21.6016C34.6514 21.6102 34.996 21.9196 35.0289 22.6604C35.0556 23.2672 35.0569 23.8789 35.0215 24.4844C34.9826 25.1546 34.6331 25.4677 33.9646 25.4836C33.4409 25.4957 32.9161 25.486 32.3011 25.486C32.3011 25.7431 32.3011 25.9575 32.3011 26.172C32.3011 28.4236 32.3011 30.6753 32.3011 32.9258C32.3011 33.0476 32.2975 33.1694 32.3023 33.2913C32.317 33.6763 32.2256 34.0126 31.7714 34.0175C31.3221 34.0223 31.221 33.6995 31.2222 33.3083C31.2283 31.8474 31.2246 30.3878 31.2246 28.9268C31.2234 27.812 31.2234 26.6983 31.2234 25.486ZM33.9158 22.7238C32.474 22.7238 31.0651 22.7238 29.627 22.7238C29.627 23.2843 29.627 23.8167 29.627 24.3614C31.0797 24.3614 32.4887 24.3614 33.9158 24.3614C33.9158 23.7985 33.9158 23.2794 33.9158 22.7238Z" fill="#EE6226"/>
<path d="M26.0181 26.942C26.6501 26.942 27.1761 26.9335 27.701 26.9445C28.3622 26.9579 28.7263 27.2881 28.7568 27.9424C28.7848 28.5504 28.7823 29.1608 28.7592 29.7688C28.7336 30.4475 28.3598 30.8032 27.6791 30.8215C27.1554 30.8349 26.6306 30.824 26.0181 30.824C26.0181 31.6817 26.0315 32.4871 26.0095 33.2925C26.0035 33.4984 25.934 33.7409 25.8062 33.892C25.7197 33.9943 25.4141 34.0504 25.3227 33.9785C25.1559 33.8481 24.9854 33.6117 24.9769 33.4119C24.9392 32.5846 24.9611 31.7548 24.9611 30.8252C24.4107 30.8252 23.9138 30.8301 23.417 30.824C22.5901 30.8154 22.2285 30.4645 22.2126 29.6457C22.2029 29.1182 22.1993 28.5906 22.2139 28.063C22.2333 27.2954 22.5804 26.9566 23.3378 26.9457C23.8432 26.9384 24.3486 26.9445 24.9221 26.9445C24.9355 26.6715 24.9562 26.4364 24.9562 26.2C24.9586 23.4597 24.9574 20.7207 24.9586 17.9804C24.9586 17.7782 24.9172 17.5467 25 17.381C25.0853 17.2116 25.3094 16.9911 25.4567 17.002C25.6442 17.0167 25.8707 17.208 25.9755 17.3846C26.0668 17.5382 26.0169 17.7794 26.0181 17.9817C26.0193 20.7012 26.0193 23.4208 26.0193 26.1403C26.0181 26.3779 26.0181 26.6167 26.0181 26.942ZM23.3135 29.6859C24.7991 29.6859 26.2214 29.6859 27.6389 29.6859C27.6389 29.1145 27.6389 28.5967 27.6389 28.0764C26.1764 28.0764 24.7541 28.0764 23.3135 28.0764C23.3135 28.6308 23.3135 29.134 23.3135 29.6859Z" fill="#EE6226"/>
</g>
<defs>
<clipPath id="clip0_23_6520">
<rect width="51" height="51" fill="white"/>
</clipPath>
</defs>
</svg>
