<svg width="33" height="22" viewBox="0 0 33 22" fill="none" xmlns="http://www.w3.org/2000/svg">
<g clip-path="url(#clip0_23_6543)">
<path d="M21.1689 19.3357C21.0901 19.3357 21.0244 19.3357 20.9595 19.3357C17.2619 19.3357 13.5634 19.3365 9.86576 19.3327C9.70271 19.3327 9.63394 19.3686 9.58912 19.5404C9.22514 20.9409 8.02196 21.916 6.58539 21.9954C5.06692 22.0794 3.65276 21.0249 3.27179 19.5251C3.25711 19.4686 3.24165 19.4121 3.22233 19.3357C3.15124 19.3357 3.08092 19.3357 3.00983 19.3357C2.25716 19.3357 1.50449 19.3365 0.751817 19.3357C0.254931 19.335 0.0130568 19.096 0.0130568 18.6019C0.0122841 17.4733 -0.0186264 16.3431 0.0261938 15.216C0.0486039 14.6425 0.195429 14.0721 0.31057 13.5047C0.39171 13.103 0.511488 12.709 0.618902 12.3127C0.709315 11.9782 0.925688 11.814 1.27961 11.8049C1.44962 11.8003 1.61963 11.8041 1.81436 11.8041C1.76645 11.4681 1.72318 11.1535 1.67604 10.8404C1.55008 10.0088 1.41948 9.17802 1.29661 8.34643C1.21934 7.82487 1.49058 7.52477 2.02919 7.52401C2.26566 7.52401 2.50212 7.52401 2.76177 7.52401C2.69995 7.09943 2.64354 6.69548 2.57785 6.29305C2.56935 6.24341 2.51294 6.19759 2.47121 6.15712C2.15515 5.84251 1.83986 5.52637 1.5184 5.21634C1.35225 5.05597 1.27343 4.87118 1.27884 4.6398C1.28734 4.2557 1.28116 3.87159 1.28116 3.45695C1.07715 3.45695 0.888595 3.45847 0.700042 3.45695C0.253386 3.45313 0.00455647 3.19808 0.0138296 2.75747C0.0447401 1.23557 1.30048 0.0198768 2.86532 0.00384071C3.70995 -0.00379553 4.55535 0.00231346 5.40075 0.00231346C8.01577 0.00231346 10.6308 0.00231346 13.2458 0.00384071C13.3501 0.00384071 13.4583 0.0099497 13.5588 0.0366765C13.8694 0.119148 14.0479 0.399398 14.0109 0.726229C13.9776 1.01717 13.728 1.2432 13.4197 1.25924C13.354 1.26306 13.2876 1.26077 13.2219 1.26077C9.80781 1.26077 6.39375 1.26153 2.98046 1.26C2.37848 1.26 1.88855 1.47305 1.54467 1.97552C1.5153 2.01828 1.4898 2.06486 1.46508 2.11068C1.45658 2.12671 1.4558 2.14657 1.4473 2.17864C8.22287 2.27562 14.9938 2.0389 21.7926 2.37413C21.7246 2.34511 21.6836 2.32297 21.6396 2.30922C20.3429 1.90374 19.0315 1.55705 17.6799 1.39058C17.1112 1.32033 16.5362 1.29436 15.9636 1.26458C15.5633 1.2432 15.2766 0.990442 15.282 0.630776C15.2867 0.270345 15.5765 0.000786216 15.976 0.00536796C17.435 0.0214041 18.8754 0.213074 20.2718 0.619321C21.9201 1.09964 23.549 1.64563 25.1834 2.17253C25.8472 2.38711 26.5025 2.62689 27.1609 2.85598C27.4129 2.94379 27.572 3.11561 27.6006 3.38211C27.6455 3.79905 27.3356 4.11366 26.8997 4.07625C26.137 4.01134 25.3759 3.93039 24.6147 3.85785C24.4447 3.84181 24.2739 3.83112 24.0768 3.81661C24.0768 4.08846 24.066 4.34733 24.0799 4.60544C24.0938 4.86736 23.9988 5.06972 23.8087 5.24688C23.5498 5.48895 23.3134 5.75545 23.0468 5.98836C22.8721 6.14032 22.8505 6.30145 22.8574 6.51908C22.8845 7.31706 23.1163 8.07152 23.3226 8.83209C23.58 9.78204 23.8381 10.732 24.0908 11.6827C24.1232 11.8034 24.1649 11.8622 24.3071 11.8774C25.6448 12.024 26.9809 12.1813 28.3178 12.3348C29.15 12.4303 29.9838 12.5128 30.8146 12.6212C31.7906 12.7487 32.4814 13.3642 32.6978 14.3989C32.857 15.161 32.9118 15.9452 32.9906 16.7219C33.0231 17.0388 32.9891 17.361 32.9976 17.6802C33.0231 18.6332 32.3377 19.3334 31.3663 19.3357C30.184 19.338 29.0024 19.3388 27.8201 19.3334C27.6609 19.3327 27.5867 19.3609 27.5404 19.5373C27.1725 20.9477 25.9593 21.9275 24.5189 21.9962C23.0019 22.0687 21.604 21.0218 21.223 19.5282C21.2053 19.4709 21.1898 19.4144 21.1689 19.3357ZM1.30048 14.9586C1.30048 16.0186 1.30048 17.038 1.30048 18.0658C1.94728 18.0658 2.5794 18.0658 3.22079 18.0658C3.23856 17.9994 3.25634 17.9375 3.27256 17.8749C3.63499 16.4477 4.88377 15.4596 6.39143 15.4077C7.76308 15.3603 9.07368 16.2935 9.52807 17.6413C9.57521 17.7818 9.58216 17.9834 9.6803 18.0475C9.79235 18.12 9.98554 18.0727 10.144 18.0735C10.4507 18.075 10.7568 18.0742 11.0844 18.0742C10.9105 17.7421 10.7498 17.4435 10.5983 17.1411C10.2614 16.4706 9.92604 15.7986 9.5953 15.1244C9.5327 14.9976 9.45002 14.9495 9.30474 14.9487C8.59844 14.9472 7.89213 14.9296 7.18583 14.9258C6.92232 14.9243 6.72526 14.8227 6.5993 14.5975C6.36052 14.1698 6.67349 13.6704 7.18815 13.6712C7.93386 13.6719 8.68035 13.7101 9.42529 13.691C9.99868 13.6758 10.3812 13.9163 10.6401 14.3981C10.6957 14.502 10.7598 14.6013 10.8124 14.7059C11.086 15.2549 11.3464 15.8108 11.6323 16.3545C11.8989 16.8631 12.1902 17.3587 12.4731 17.8589C12.5642 18.0192 12.6979 18.0788 12.8958 18.078C15.5765 18.0712 18.2572 18.0735 20.9379 18.0735C21.0144 18.0735 21.0917 18.0735 21.1682 18.0735C21.1906 17.9872 21.2076 17.9246 21.2238 17.8619C21.5576 16.5623 22.7214 15.5482 24.0166 15.4267C25.6718 15.2725 27.1331 16.2828 27.5427 17.8787C27.5852 18.0444 27.6516 18.0773 27.8077 18.0765C28.6392 18.0696 29.4715 18.0735 30.3038 18.0735C30.6538 18.0735 31.0039 18.0727 31.3539 18.0735C31.5286 18.0735 31.6924 18.0192 31.711 17.8352C31.7372 17.5733 31.7179 17.3068 31.7179 17.0273C31.4567 17.0273 31.2203 17.0273 30.983 17.0273C30.0495 17.0273 29.3115 16.4637 29.072 15.5695C28.9128 14.9777 28.7497 14.3875 28.5936 13.7949C28.5643 13.6826 28.5249 13.6238 28.3919 13.6093C27.4082 13.5024 26.426 13.3856 25.4431 13.2718C24.9995 13.2206 24.556 13.1718 24.1085 13.1214C24.0931 13.1664 24.0807 13.1954 24.0714 13.226C23.9524 13.6391 23.8381 14.0538 23.7129 14.4653C23.614 14.7914 23.3396 14.9594 22.9981 14.9166C22.716 14.8815 22.478 14.6402 22.468 14.3447C22.4633 14.2057 22.5074 14.0622 22.5437 13.9247C22.6179 13.6445 22.7021 13.3673 22.7848 13.0778C20.315 13.0778 17.8762 13.0778 15.4211 13.0778C15.4211 13.5276 15.4235 13.9644 15.4204 14.4004C15.4173 14.8105 15.1491 15.1022 14.7813 15.1007C14.4135 15.0999 14.1461 14.8105 14.1407 14.3989C14.136 14.027 14.1399 13.6551 14.1399 13.2833C14.1399 13.2145 14.1399 13.1458 14.1399 13.0641C14.0379 13.0641 13.966 13.0641 13.8942 13.0641C9.91908 13.0641 5.94477 13.0641 1.96969 13.0641C1.92332 13.0641 1.87232 13.0519 1.83214 13.0679C1.78654 13.0862 1.72704 13.1221 1.71468 13.1626C1.66136 13.3344 1.62272 13.5108 1.57403 13.7048C1.66754 13.7048 1.73863 13.7055 1.8105 13.7048C2.73472 13.6987 3.65894 13.6941 4.58317 13.6849C4.84436 13.6826 5.04605 13.7811 5.17433 14.0064C5.4162 14.4302 5.11251 14.9281 4.59476 14.9396C3.92787 14.9548 3.26097 14.9525 2.59408 14.9556C2.1652 14.9602 1.73709 14.9586 1.30048 14.9586ZM7.94313 11.7911C7.93541 11.7262 7.93154 11.6812 7.92459 11.6369C7.75767 10.5159 7.58612 9.39488 7.42538 8.27236C7.36356 7.84091 7.63867 7.53012 8.07605 7.52477C8.53121 7.51866 8.98713 7.51408 9.44229 7.52553C10.2676 7.54615 10.9445 8.1288 11.0805 8.9306C11.1524 9.35441 11.2111 9.78051 11.2753 10.2059C11.3556 10.732 11.436 11.2589 11.5156 11.785C12.3664 11.785 13.1987 11.785 14.0379 11.785C13.7721 9.9676 13.5101 8.16927 13.2427 6.3717C13.2311 6.2961 13.1763 6.21668 13.1199 6.15941C12.8301 5.86465 12.5442 5.56531 12.2366 5.28888C11.9963 5.07277 11.9012 4.82231 11.9144 4.50769C11.9283 4.16483 11.9174 3.82043 11.9174 3.46687C9.63239 3.46687 7.37129 3.46687 5.08933 3.46687C5.08933 3.84716 5.08005 4.21752 5.09242 4.58711C5.10092 4.85438 5.00973 5.06437 4.81422 5.24688C4.52676 5.51644 4.25629 5.8028 3.97037 6.07312C3.87764 6.16094 3.85523 6.24723 3.87532 6.36788C3.941 6.76649 3.992 7.16739 4.06464 7.56448C4.08087 7.6523 4.14501 7.75309 4.21765 7.80578C4.60326 8.08298 4.86059 8.43806 4.94327 8.90617C4.98423 9.13678 5.01746 9.36892 5.05223 9.60106C5.16197 10.328 5.2717 11.055 5.3822 11.7911C6.23533 11.7911 7.07764 11.7911 7.94313 11.7911ZM22.8002 11.795C22.6063 11.0749 22.4193 10.3769 22.2299 9.67972C21.9324 8.58621 21.5824 7.50415 21.5661 6.35566C21.5654 6.28846 21.5136 6.20981 21.4634 6.15712C21.2114 5.89901 20.9673 5.63022 20.6914 5.39884C20.3599 5.12165 20.2177 4.79558 20.2617 4.36871C20.2888 4.10679 20.2664 3.84029 20.2664 3.55316C18.7417 3.51651 17.2487 3.48062 15.7395 3.44397C15.7395 3.86319 15.738 4.24119 15.7403 4.61842C15.7418 4.85209 15.6677 5.04757 15.493 5.21252C15.2025 5.48742 14.9274 5.77913 14.6352 6.0525C14.5302 6.15101 14.5077 6.24952 14.5302 6.38163C14.585 6.70922 14.6391 7.03758 14.677 7.36746C14.6917 7.49728 14.7434 7.52935 14.8648 7.52553C15.0819 7.5179 15.3006 7.52019 15.5177 7.52401C16.3515 7.53775 17.0416 8.11047 17.183 8.92144C17.2704 9.42161 17.3391 9.9256 17.4156 10.4281C17.4852 10.8832 17.554 11.3375 17.6235 11.7957C19.3522 11.795 21.06 11.795 22.8002 11.795ZM24.3937 16.6715C23.2948 16.6646 22.3992 17.5695 22.3884 18.6966C22.3783 19.8015 23.2956 20.7431 24.3813 20.7423C25.4663 20.7416 26.3658 19.8275 26.3735 18.7187C26.3812 17.5947 25.4941 16.6776 24.3937 16.6715ZM4.4433 18.7096C4.4518 19.8313 5.36443 20.7568 6.44707 20.7416C7.54671 20.7263 8.43152 19.8061 8.42456 18.6859C8.41761 17.5641 7.5158 16.6615 6.41307 16.6722C5.32347 16.6821 4.43557 17.6008 4.4433 18.7096ZM8.78776 8.78399C8.93459 9.77441 9.07677 10.7381 9.22514 11.7003C9.23133 11.7392 9.29778 11.7965 9.33797 11.798C9.62543 11.8064 9.9129 11.8026 10.2004 11.8026C10.2058 11.7606 10.212 11.7407 10.2096 11.7232C10.0821 10.861 9.9585 9.99891 9.82326 9.13831C9.78849 8.91915 9.63857 8.80079 9.40983 8.78704C9.21355 8.77482 9.0165 8.78399 8.78776 8.78399ZM16.3322 11.8026C16.1955 10.8908 16.0664 10.0104 15.9273 9.13067C15.8956 8.92984 15.7527 8.80613 15.5463 8.79162C15.3385 8.77711 15.1283 8.78857 14.9258 8.78857C14.9142 8.813 14.9034 8.82522 14.9049 8.83591C15.044 9.78815 15.1831 10.7404 15.33 11.6919C15.3361 11.7339 15.4103 11.7965 15.4551 11.798C15.7357 11.8072 16.0177 11.8026 16.3322 11.8026ZM4.09246 11.8026C3.958 10.8992 3.8305 10.0233 3.69526 9.14823C3.6659 8.95886 3.54689 8.81758 3.3452 8.80079C3.12497 8.78246 2.90241 8.79697 2.68063 8.79697C2.67599 8.82751 2.66826 8.8466 2.67136 8.86493C2.80968 9.80571 2.94723 10.7473 3.09251 11.6873C3.09947 11.7308 3.17133 11.7965 3.21461 11.798C3.49667 11.8072 3.7795 11.8026 4.09246 11.8026ZM29.939 13.7911C29.9359 13.8262 29.929 13.846 29.9328 13.8628C30.0665 14.3592 30.1933 14.8578 30.3385 15.3511C30.3996 15.5573 30.5611 15.7131 30.7728 15.7375C31.0533 15.7696 31.3408 15.7452 31.6669 15.7452C31.5757 15.3137 31.5077 14.8892 31.3918 14.4783C31.2883 14.1103 30.9977 13.9209 30.6221 13.8659C30.4027 13.8338 30.1793 13.817 29.939 13.7911ZM3.81582 3.47069C3.37766 3.47069 2.97273 3.47069 2.55467 3.47069C2.55467 3.77843 2.55312 4.07166 2.55621 4.3649C2.55699 4.40689 2.56858 4.45958 2.5964 4.48937C2.78263 4.68867 2.97351 4.88263 3.17365 5.08881C3.39002 4.8727 3.57703 4.68867 3.7594 4.50082C3.78877 4.47104 3.8135 4.42217 3.81427 4.38246C3.81736 4.08312 3.81582 3.78454 3.81582 3.47069ZM13.2002 3.46535C13.2002 3.78607 13.1987 4.08388 13.2018 4.38246C13.2018 4.41835 13.218 4.46188 13.2427 4.48784C13.4313 4.68409 13.6237 4.87729 13.8316 5.08805C14.0333 4.88187 14.2125 4.70089 14.3887 4.51686C14.4189 4.48555 14.4521 4.44126 14.4529 4.40231C14.4583 4.09305 14.456 3.78301 14.456 3.46535C14.0286 3.46535 13.6299 3.46535 13.2002 3.46535ZM22.8033 3.71658C22.3745 3.68909 21.9657 3.66313 21.5399 3.63563C21.5399 3.90596 21.5383 4.14497 21.5414 4.38475C21.5422 4.41988 21.5584 4.46264 21.5824 4.4886C21.7702 4.68638 21.9626 4.88034 22.1689 5.09187C22.3775 4.87958 22.5615 4.69478 22.7415 4.50617C22.7709 4.47562 22.7987 4.4298 22.8002 4.39086C22.8064 4.17017 22.8033 3.95101 22.8033 3.71658Z" fill="#EE6226"/>
<path d="M17.3647 15.3557C17.1537 15.3557 16.942 15.3603 16.731 15.355C16.3709 15.345 16.1113 15.0953 16.1028 14.7578C16.0935 14.4043 16.3385 14.1164 16.6947 14.1034C17.1429 14.0874 17.5927 14.0881 18.0401 14.1026C18.3964 14.1141 18.6521 14.4058 18.6429 14.7509C18.6336 15.0854 18.3701 15.3435 18.0169 15.3542C17.8006 15.3603 17.5826 15.355 17.3647 15.3557Z" fill="#EE6226"/>
<path d="M23.7481 18.7111C23.7442 18.3591 24.0062 18.0934 24.3655 18.0857C24.7326 18.0781 25.0177 18.3446 25.0201 18.6974C25.0224 19.041 24.7249 19.3373 24.3794 19.335C24.0348 19.332 23.7527 19.0532 23.7481 18.7111Z" fill="#EE6226"/>
<path d="M5.80276 18.7104C5.79967 18.356 6.06164 18.0895 6.41943 18.0842C6.78649 18.0788 7.07086 18.3469 7.07241 18.6989C7.07318 19.0479 6.78031 19.3381 6.43179 19.335C6.08173 19.3319 5.80585 19.0578 5.80276 18.7104Z" fill="#EE6226"/>
</g>
<defs>
<clipPath id="clip0_23_6543">
<rect width="33" height="22" fill="white"/>
</clipPath>
</defs>
</svg>
