<svg width="36" height="58" viewBox="0 0 36 58" fill="none" xmlns="http://www.w3.org/2000/svg">
<g clip-path="url(#clip0_23_6469)">
<path d="M24.3486 57.1282C23.4202 57.8993 22.3694 58.1178 21.2434 57.8693C19.5437 57.4945 18.5015 56.1536 18.4993 54.3929C18.495 47.6865 18.4972 40.9821 18.4972 34.2756C18.4972 32.8191 18.5036 31.3626 18.495 29.906C18.4821 27.2821 18.5982 24.6625 18.0094 22.0558C17.5882 20.1922 17.8482 18.3073 18.5702 16.5124C18.5917 16.4588 18.596 16.3988 18.6089 16.3324C17.1692 16.7287 16.1958 17.9753 16.1958 19.419C16.1936 21.5395 16.2172 23.6622 16.185 25.7806C16.1807 26.0933 16.0066 26.481 15.781 26.7038C14.1113 28.3424 12.3987 29.9339 10.7312 31.5725C10.5077 31.7931 10.3164 32.2129 10.3616 32.5021C10.4604 33.164 11.2039 33.3289 11.7669 32.847C13.0691 31.7288 14.3585 30.5957 15.6542 29.4691C15.8971 29.257 16.1334 29.0364 16.3913 28.8458C16.8984 28.4688 17.5667 28.5223 17.9664 28.9507C18.3897 29.407 18.3962 30.1117 17.9105 30.5679C17.1907 31.2426 16.4321 31.8766 15.6908 32.5257C14.9 33.2175 14.1092 33.9115 13.3163 34.6034C13.1873 34.7147 13.0584 34.8711 12.9058 34.9075C11.782 35.1881 11.7497 36.0106 11.8443 36.9252C11.8808 37.2851 11.8507 37.6514 11.8507 38.0648C11.0771 38.0648 10.3422 38.0648 9.52136 38.0648C9.52136 37.2701 9.52136 36.484 9.52136 35.6979C9.52136 34.8497 8.92183 34.2649 8.05369 34.2649C7.81946 34.2649 7.58738 34.2649 7.26935 34.2649C7.26935 35.5565 7.26935 36.8053 7.26935 38.084C6.46352 38.084 5.74365 38.084 4.93783 38.084C4.93783 37.1887 4.93783 36.3191 4.93783 35.4473C4.93783 34.7404 4.92923 34.0336 4.93997 33.3267C4.95502 32.3671 5.3676 31.9602 6.3174 31.9516C6.87396 31.9473 7.43266 31.9516 8.04294 31.9516C8.24279 30.8185 9.00134 30.0774 9.79857 29.347C11.1266 28.1282 12.4352 26.888 13.7224 25.6285C13.9222 25.4336 14.0727 25.0866 14.077 24.806C14.1092 23.071 14.092 21.3361 14.0942 19.6011C14.0942 16.5423 16.1936 14.1176 19.2493 13.7C20.0315 13.5929 20.833 13.5929 21.6259 13.5886C24.0971 13.5757 26.5683 13.58 29.0417 13.5843C32.5164 13.5886 34.8974 15.9704 34.8974 19.4404C34.8974 22.9104 34.8974 26.3825 34.8974 29.8525C34.8974 32.7913 33.4189 34.7833 30.5889 35.6636C30.5094 35.6893 30.4299 35.715 30.2945 35.76C30.2945 36.0128 30.2945 36.2655 30.2945 36.5204C30.2945 42.3487 30.2751 48.1748 30.3074 54.0031C30.316 55.5496 29.8454 56.7898 28.4486 57.5416C27.0389 58.2999 25.6787 58.0835 24.3486 57.1282ZM28.1478 15.904C26.1214 15.904 24.1315 15.9148 22.1417 15.8955C21.7484 15.8912 21.5142 16.0283 21.3058 16.3474C20.3001 17.8746 20.0745 19.5668 20.2636 21.3318C20.3817 22.4327 20.7062 23.5251 20.7105 24.6218C20.7471 34.3913 20.732 44.1608 20.732 53.9303C20.732 54.1445 20.7148 54.3608 20.7428 54.5729C20.8072 55.0741 21.0479 55.4489 21.5529 55.6267C22.5091 55.963 23.2655 55.3461 23.2677 54.198C23.2741 50.8351 23.2698 47.4701 23.2698 44.1072C23.2698 41.8153 23.2655 39.5213 23.2741 37.2294C23.2763 36.4476 23.7426 36.0171 24.4818 36.0727C25.1995 36.1284 25.5218 36.5547 25.5218 37.4822C25.524 42.9677 25.5218 48.4511 25.524 53.9367C25.524 54.1723 25.5154 54.4101 25.5519 54.6414C25.6486 55.2583 26.072 55.6224 26.6951 55.6588C27.5611 55.7081 28.0425 55.1576 28.0425 54.1038C28.0446 44.4842 28.0468 34.8647 28.0339 25.2451C28.0339 24.6732 27.9801 24.0842 27.8319 23.5337C27.1399 20.9655 27.0497 18.4358 28.1478 15.904ZM30.7715 16.2575C30.5867 16.5959 30.3933 16.9001 30.2494 17.2256C29.5058 18.8921 29.4349 20.6335 29.8325 22.3749C30.1527 23.78 30.3439 25.1744 30.3074 26.6181C30.2579 28.5416 30.2945 30.4694 30.2945 32.3929C30.2945 32.6178 30.2945 32.8448 30.2945 33.0868C31.6483 32.7741 32.5744 31.5211 32.5766 30.0624C32.5809 26.4468 32.5787 22.8311 32.5766 19.2155C32.5766 17.8982 31.9556 16.9515 30.7715 16.2575Z" fill="#EE6226"/>
<path d="M5.77626 56.0508C5.58931 57.4238 5.29921 57.8244 4.52132 57.7987C3.76062 57.7751 3.48772 57.3596 3.39746 55.9994C2.90322 55.9994 2.39824 56.0016 1.89326 55.9994C0.601786 55.9951 0.0108475 55.4147 0.00869868 54.1145C0.00440094 50.0019 0.00654981 45.8872 0.00654981 41.7747C0.00654981 41.2606 -0.00849227 40.7465 0.0108475 40.2325C0.0516761 39.1893 0.681295 38.5489 1.7235 38.5446C6.21463 38.5339 10.7079 38.5339 15.1991 38.5446C16.295 38.5467 16.9525 39.2215 16.9525 40.3288C16.959 44.9555 16.959 49.5843 16.9525 54.2109C16.9504 55.3675 16.31 55.993 15.1561 55.9994C14.6425 56.0016 14.1289 55.9994 13.5444 55.9994C13.5079 56.8841 13.5251 57.8394 12.268 57.7901C11.5847 57.7644 11.3741 57.4003 11.1957 56.0487C9.39496 56.0508 7.58346 56.0508 5.77626 56.0508ZM2.31229 40.8558C2.31229 45.159 2.31229 49.4086 2.31229 53.6904C6.43382 53.6904 10.521 53.6904 14.6232 53.6904C14.6232 49.3893 14.6232 45.1375 14.6232 40.8558C10.5188 40.8558 6.44456 40.8558 2.31229 40.8558Z" fill="#EE6226"/>
<path d="M30.6519 6.26095C30.6476 9.70951 27.8541 12.5112 24.403 12.524C20.9433 12.5369 18.1305 9.70736 18.1348 6.21597C18.1369 2.78026 20.9691 -0.0214197 24.4159 -6.35628e-08C27.8863 0.0214195 30.6541 2.79954 30.6519 6.26095ZM28.3269 6.25024C28.3269 4.089 26.5734 2.33688 24.4052 2.32617C22.2456 2.3176 20.4641 4.07401 20.4534 6.22454C20.4427 8.39434 22.2627 10.2214 24.4116 10.2022C26.5583 10.1829 28.3269 8.39648 28.3269 6.25024Z" fill="#EE6226"/>
<path d="M32.1514 10.1808C32.7896 10.2386 33.4385 10.2429 34.0639 10.3629C35.1039 10.5642 35.8195 11.3374 35.9291 12.3827C36.0064 13.1238 36.0107 13.8757 35.985 14.6211C35.9592 15.3108 35.4649 15.7542 34.8289 15.7499C34.1992 15.7456 33.7351 15.3001 33.6857 14.6018C33.6513 14.1134 33.6534 13.6186 33.6749 13.1281C33.6943 12.6762 33.503 12.5262 33.0646 12.5391C32.3362 12.5626 31.6056 12.5519 30.8771 12.5434C30.1615 12.5348 29.6501 12.0764 29.6222 11.4403C29.5942 10.7912 30.1207 10.2686 30.8599 10.2343C31.2875 10.2151 31.7173 10.2301 32.1471 10.2301C32.1492 10.2151 32.1492 10.1979 32.1514 10.1808Z" fill="#EE6226"/>
</g>
<defs>
<clipPath id="clip0_23_6469">
<rect width="36" height="58" fill="white"/>
</clipPath>
</defs>
</svg>
