<svg width="40" height="53" viewBox="0 0 40 53" fill="none" xmlns="http://www.w3.org/2000/svg">
<g clip-path="url(#clip0_23_6528)">
<path d="M33.3087 11.7956C33.3087 12.6229 33.3143 13.3486 33.3069 14.0743C33.3032 14.4695 33.0952 14.7409 32.7127 14.8351C32.3414 14.9256 31.9998 14.8295 31.8123 14.4768C31.725 14.3125 31.7027 14.0983 31.6972 13.9063C31.6823 13.3486 31.6916 12.7891 31.6916 12.0929C31.4762 12.2942 31.3277 12.3939 31.2293 12.5287C29.6474 14.7021 27.4138 15.9375 24.9519 16.8331C22.2133 17.8283 19.3652 18.1903 16.4651 18.2032C15.2322 18.2087 13.9994 18.2032 12.7666 18.2069C12.67 18.2069 12.5735 18.2254 12.4398 18.2401C12.5011 18.386 12.5438 18.5079 12.6032 18.6224C13.1138 19.6158 13.3477 20.6739 13.3533 21.7837C13.3589 23.2757 13.3589 24.7659 13.3533 26.2579C13.3496 27.1166 12.9708 27.4083 12.178 27.244C12.3915 27.9032 12.709 28.579 12.8241 29.2881C13.331 32.4014 10.1487 35.0808 7.1576 34.0282C4.66596 33.1456 2.59949 31.6332 1.04546 29.4838C0.341785 28.5107 -0.0685384 27.4674 0.0094415 26.2007C0.122698 24.4003 -0.00541183 22.5869 0.0985614 20.7865C0.265661 17.8967 1.44836 15.4204 3.45356 13.3283C3.54453 13.2341 3.6318 13.1362 3.74877 13.0107C3.60395 12.922 3.48326 12.8445 3.36072 12.7725C2.04992 11.9988 1.43536 10.5178 1.81969 9.05349C2.19659 7.62056 3.50183 6.62341 5.02987 6.61418C6.07888 6.60864 7.12975 6.60864 8.17877 6.61418C8.79147 6.61788 9.15723 6.93548 9.15166 7.4396C9.14609 7.94001 8.78033 8.25024 8.16206 8.25393C7.14646 8.26132 6.12901 8.25024 5.11342 8.25762C4.09782 8.26316 3.36629 8.95193 3.35701 9.89921C3.34773 10.841 4.07925 11.5704 5.08185 11.5814C6.39823 11.5962 7.7146 11.5814 9.03098 11.5888C9.68452 11.5925 10.106 12.0357 9.96674 12.5786C9.84606 13.0531 9.497 13.2304 9.02912 13.2286C8.21219 13.2267 7.39526 13.2046 6.58018 13.2415C6.28868 13.2544 5.94706 13.3486 5.72426 13.524C3.12121 15.5903 1.7677 18.2863 1.68972 21.6027C1.68044 22.0071 1.68787 22.4134 1.74728 22.8473C3.52782 20.2732 5.58872 18.0684 8.71535 17.0029C8.26046 16.8404 7.80558 16.6835 7.35255 16.5173C6.86982 16.34 6.62845 15.9522 6.72871 15.5275C6.83454 15.0733 7.282 14.8074 7.77773 14.944C8.86017 15.2432 9.88319 15.6642 10.78 16.364C10.9526 16.4988 11.2218 16.569 11.4465 16.569C13.513 16.5727 15.5794 16.5967 17.6441 16.5302C20.6537 16.4323 23.5594 15.8451 26.272 14.4842C27.7035 13.7678 28.9437 12.8297 29.9296 11.5445C30.2787 11.0902 30.8227 10.7634 31.3258 10.4569C31.5913 10.2944 31.7009 10.1614 31.699 9.85674C31.6934 6.94102 31.7009 4.02346 31.7064 1.10774C31.7083 0.0625829 32.2374 -0.260565 33.1843 0.210308C35.2248 1.22222 37.2653 2.23783 39.3058 3.2479C39.679 3.43256 40.0076 3.63753 40.002 4.11948C39.9964 4.60143 39.6641 4.79901 39.2928 4.98367C37.4435 5.89772 35.6036 6.82469 33.7488 7.72766C33.4313 7.88277 33.305 8.07297 33.3199 8.41089C33.3384 8.87437 33.2995 9.34155 33.3384 9.80135C33.3496 9.93984 33.5148 10.1448 33.6485 10.1836C36.5728 11.0127 37.5958 14.0429 35.7168 16.425C33.1695 19.6528 29.8461 21.7135 25.8895 22.7974C25.6834 22.8547 25.4755 22.9064 25.2322 22.971C25.4588 24.0162 25.6778 25.0318 25.8969 26.0455C26.5579 29.1071 26.7454 32.2057 26.7194 35.3319C26.6823 39.8394 26.7139 44.3468 26.699 48.8543C26.6916 51.0738 25.093 52.7598 22.8371 52.9813C20.8171 53.1789 18.8992 51.7405 18.4666 49.6852C18.396 49.3492 18.3867 48.9946 18.3867 48.6475C18.3811 45.2664 18.383 41.8853 18.383 38.5061C18.383 38.3492 18.383 38.1904 18.383 38.0334C18.3496 38.0242 18.3143 38.0168 18.2809 38.0076C18.2233 38.1479 18.1565 38.2846 18.1064 38.4286C16.738 42.3193 15.3622 46.2063 14.005 50.1007C13.2865 52.1615 11.3017 53.3303 9.16094 52.9149C7.15203 52.5252 5.66113 50.6731 5.85051 48.6216C5.9452 47.5931 6.25155 46.5775 6.51891 45.5711C7.41382 42.1882 8.54639 38.8847 9.93517 35.6698C10.0132 35.487 10.0856 35.295 10.2007 35.138C10.4606 34.7853 10.8301 34.6893 11.2181 34.8777C11.6062 35.0642 11.7584 35.4039 11.6452 35.8323C11.6117 35.9597 11.5505 36.0798 11.4985 36.2016C9.82378 40.0739 8.51297 44.0661 7.56236 48.1747C7.23558 49.5874 7.96525 50.8836 9.29648 51.2622C10.6611 51.65 11.9608 50.9317 12.451 49.543C14.0774 44.9359 15.7075 40.3305 17.3433 35.7271C17.6255 34.9312 18.0692 34.6062 18.758 34.6413C19.4302 34.6745 19.9482 35.1713 20.002 35.8379C20.0169 36.0188 20.0094 36.2016 20.0094 36.3844C20.0094 40.4949 20.0057 44.6035 20.0113 48.7139C20.015 50.5273 21.6136 51.7718 23.2735 51.2437C24.2835 50.9224 24.911 50.2189 25.0187 49.159C25.0948 48.4037 25.0781 47.6374 25.0781 46.8748C25.067 42.0866 25.067 37.2966 25.0262 32.5085C24.9983 29.2216 24.2575 26.0382 23.4833 22.8658C23.266 21.9776 23.4387 21.6803 24.3188 21.4919C28.4201 20.6167 31.8568 18.6556 34.471 15.3484C34.9686 14.7187 35.1543 14.0244 34.898 13.2526C34.6585 12.5306 34.1609 12.0634 33.3087 11.7956ZM11.6749 26.6512C11.6749 24.8656 11.7101 23.0006 11.66 21.1392C11.6359 20.251 11.2441 19.4478 10.741 18.7036C10.5497 18.4211 10.3399 18.3177 10.0354 18.4433C9.01241 18.868 7.91327 19.1782 6.98679 19.7599C4.70495 21.1872 3.31802 23.4105 2.02021 25.6855C1.53376 26.5386 1.59689 27.3308 2.13161 28.1506C3.23261 29.8402 4.73651 31.0571 6.5152 31.9656C6.97194 32.1983 7.44724 32.4273 7.94112 32.5454C9.21108 32.8483 10.5312 32.0986 11.0362 30.8503C11.5468 29.5891 11.0789 28.1285 9.84234 27.4619C9.07554 27.0482 8.2289 26.7712 7.40268 26.4776C6.78998 26.2597 6.49663 25.7058 6.85682 25.2054C7.68118 24.0623 8.53711 22.9396 9.40417 21.828C9.69009 21.4605 10.1728 21.4328 10.5237 21.695C10.8617 21.9462 10.9396 22.4134 10.7001 22.8104C10.6147 22.9507 10.507 23.08 10.4068 23.2111C9.92032 23.8574 9.43573 24.5018 8.96785 25.1223C9.90361 25.6504 10.8022 26.1582 11.6749 26.6512ZM33.3849 2.14181C33.3849 3.48426 33.3849 4.7547 33.3849 6.08422C34.7161 5.4213 35.9805 4.78978 37.3433 4.11025C35.9749 3.43071 34.7272 2.81027 33.3849 2.14181Z" fill="#EE6226"/>
<path d="M23.3512 8.2394C23.3679 11.8845 20.401 14.8501 16.7229 14.8667C13.0467 14.8833 10.0575 11.9454 10.0333 8.29664C10.0092 4.65337 12.9873 1.65271 16.6394 1.64163C20.3527 1.63055 23.3345 4.56105 23.3512 8.2394ZM16.7006 3.28507C13.9379 3.28138 11.6988 5.48802 11.6858 8.22462C11.6765 10.9834 13.9193 13.2399 16.6839 13.2491C19.4336 13.2583 21.7099 10.9871 21.7043 8.24124C21.7006 5.51203 19.4578 3.28877 16.7006 3.28507Z" fill="#EE6226"/>
</g>
<defs>
<clipPath id="clip0_23_6528">
<rect width="40" height="53" fill="white"/>
</clipPath>
</defs>
</svg>
