<svg width="51" height="46" viewBox="0 0 51 46" fill="none" xmlns="http://www.w3.org/2000/svg">
<g clip-path="url(#clip0_23_6509)">
<path d="M7.78441 23.0017C7.02219 23.6523 6.3662 24.2314 5.69167 24.7871C3.60229 26.5127 0.506167 25.4295 0.0559143 22.7987C-0.158251 21.5506 0.258275 20.4873 1.22623 19.657C4.16215 17.141 7.1065 14.6333 10.0475 12.1223C14.4016 8.40493 18.7574 4.68753 23.1132 0.97012C24.5247 -0.234626 26.4387 -0.247938 27.8552 0.95348C29.9058 2.69237 31.9463 4.44458 33.9918 6.19013C34.1385 6.31493 34.2903 6.43308 34.4387 6.55621C34.6175 6.42642 34.5416 6.26335 34.5433 6.12856C34.55 4.71914 34.5433 3.30806 34.5483 1.89864C34.5534 0.668934 35.2195 0.0116481 36.464 0.00499204C37.604 -0.00166401 38.7439 -0.00166401 39.8839 0.00499204C41.1537 0.0116481 41.8165 0.670597 41.8165 1.92693C41.8181 5.40638 41.8215 8.88583 41.8063 12.3653C41.8046 12.7314 41.9176 12.9643 42.1993 13.2006C44.7136 15.3272 47.2178 17.4672 49.7186 19.6087C50.8013 20.5356 51.2364 21.7071 50.8772 23.0815C50.523 24.4311 49.6107 25.2797 48.2127 25.5559C47.1352 25.7689 46.1622 25.501 45.3207 24.8005C44.7338 24.3129 44.1588 23.8137 43.5854 23.3245C43.4353 23.436 43.4809 23.5491 43.4809 23.6456C43.4792 29.3299 43.4859 35.0142 43.4792 40.7001C43.4758 43.6604 41.2937 45.9101 38.292 45.9717C35.6782 46.025 33.0627 45.99 30.4488 45.9834C29.7962 45.9817 29.5719 45.7138 29.5719 44.9983C29.5702 40.334 29.5702 35.6698 29.5719 31.0039C29.5719 30.0671 29.2043 29.691 28.2566 29.6893C26.4016 29.686 24.5466 29.686 22.6934 29.6893C21.7136 29.691 21.3578 30.0571 21.3578 31.0339C21.3578 35.6681 21.3578 40.3024 21.3578 44.9384C21.3578 45.7637 21.1352 45.9883 20.3139 45.9883C17.9126 45.9883 15.5095 46.0017 13.1082 45.9834C10.5146 45.9617 8.47919 44.351 7.90752 41.9032C7.8114 41.4922 7.78779 41.0745 7.78779 40.6519C7.78947 34.9975 7.78779 29.3432 7.78779 23.6889C7.78441 23.4975 7.78441 23.3078 7.78441 23.0017ZM9.28526 31.2635C9.28526 34.3835 9.28357 37.5035 9.28526 40.6236C9.28694 42.9166 10.8873 44.504 13.2043 44.5074C15.2566 44.5107 17.3089 44.4974 19.3611 44.5174C19.7423 44.5207 19.8687 44.4525 19.867 44.0381C19.8485 39.6584 19.8552 35.2788 19.8552 30.8991C19.8552 29.2866 20.9396 28.2167 22.5669 28.2183C24.4674 28.22 26.3679 28.2217 28.2684 28.22C30.0475 28.2183 31.0829 29.2584 31.0812 31.0289C31.0778 35.3636 31.0863 39.6984 31.0677 44.0331C31.066 44.4441 31.1925 44.519 31.5736 44.5174C33.7321 44.5007 35.8907 44.5124 38.0492 44.5074C40.3797 44.5024 41.9699 42.9299 41.9699 40.6352C41.9699 34.3652 41.9716 28.0952 41.9682 21.8269C41.9682 21.4591 42.0306 21.1213 42.3932 20.9516C42.7692 20.7769 43.0846 20.925 43.3848 21.1879C44.2937 21.9833 45.2229 22.7571 46.1352 23.5491C46.6124 23.9635 47.1453 24.228 47.7929 24.1349C48.6006 24.0184 49.1655 23.5757 49.4016 22.7953C49.6445 21.9966 49.41 21.311 48.7794 20.7702C46.174 18.5404 43.5719 16.3073 40.9463 14.1009C40.4842 13.7131 40.3055 13.3071 40.3089 12.7114C40.3342 9.15707 40.3156 5.60107 40.3308 2.04674C40.3325 1.62574 40.233 1.461 39.776 1.47432C38.7119 1.50427 37.6478 1.49928 36.5837 1.47598C36.1706 1.466 36.0272 1.58581 36.0323 2.0068C36.0525 4.00195 36.0407 5.99711 36.0475 7.99059C36.0492 8.38164 36.0272 8.75271 35.6057 8.94241C35.1858 9.13044 34.8873 8.90913 34.5871 8.65121C32.0745 6.49964 29.5568 4.35472 27.0391 2.20648C26.7743 1.98018 26.5079 1.76718 26.1605 1.66069C25.2195 1.36948 24.5028 1.72225 23.7996 2.32629C18.8485 6.57618 13.8788 10.8078 8.91595 15.0443C6.72202 16.918 4.52978 18.795 2.3291 20.6621C1.76249 21.143 1.41848 21.7154 1.51966 22.4658C1.61578 23.1847 2.00195 23.7155 2.69841 23.9967C3.43197 24.2946 4.10819 24.1615 4.69841 23.6689C5.76586 22.7787 6.81645 21.8701 7.86873 20.9632C8.16215 20.7087 8.46232 20.5373 8.85693 20.722C9.22961 20.8967 9.28863 21.2178 9.28694 21.5872C9.28188 24.8138 9.28357 28.0386 9.28526 31.2635Z" fill="#EE6226"/>
</g>
<defs>
<clipPath id="clip0_23_6509">
<rect width="51" height="46" fill="white"/>
</clipPath>
</defs>
</svg>
